<svg xmlns="http://www.w3.org/2000/svg" width="112.554" height="24.321"><g id="Group_1683" data-name="Group 1683" transform="translate(-555.254 -31.151)" fill="#fff"><path id="Path_1127" data-name="Path 1127" d="M361.023 32.914h5.768l-2.876-8.456zm1.329-12.5h3.126l7.112 20.757h-2.99l-1.844-5.408h-7.706l-1.829 5.408h-2.981z" transform="translate(200.014 11.601)"/><path id="Path_1128" data-name="Path 1128" d="M367 25.223h2.563l.281 1.422.141.141.141-.141A3.923 3.923 0 01373.252 25a2.564 2.564 0 011.422.281v2.548h-1.7a3.126 3.126 0 00-3.126 3.017v7.815H367z" transform="translate(206.635 14.181)"/><path id="Path_1129" data-name="Path 1129" d="M372.61 27.189h2.61v-2.844l2.251-2.845H378v5.689h2.907v2.548H378v6.83a1.36 1.36 0 001.454 1.422l1.7-.281v2.563l-1.563.281c-2.845 0-4.377-1.422-4.377-3.986v-6.83h-2.61z" transform="translate(209.794 12.215)"/><path id="Path_1130" data-name="Path 1130" d="M383.7 20.41h12.52v2.845h-9.535v5.971h8.675v2.829h-8.675v9.113H383.7z" transform="translate(216.038 11.601)"/><path id="Path_1131" data-name="Path 1131" d="M403.934 38.5h-2.563l-.281-1.141-.141-.141-.141.141a4.032 4.032 0 01-3.126 1.422 5.08 5.08 0 01-5.408-5.408V25.14h2.845v8.237a2.563 2.563 0 002.845 2.845 3.126 3.126 0 003.126-2.985v-8.1h2.845z" transform="translate(220.859 14.264)"/><path id="Path_1132" data-name="Path 1132" d="M400.91 25.246h2.563l.281 1.125.141.156.141-.156a4.127 4.127 0 013.126-1.407 5.064 5.064 0 015.408 5.392v8.254h-2.845v-8.253a2.595 2.595 0 00-2.845-2.845 3.126 3.126 0 00-3.126 3.017v8.081h-2.844z" transform="translate(225.728 14.158)"/><path id="Path_1133" data-name="Path 1133" d="M416.056 30.379a4.064 4.064 0 00-4.111 4.408 4.048 4.048 0 004.158 4.408 4.423 4.423 0 000-8.816m6.674 11.1h-2.548l-.3-1.141-.141-.141-.141.141a5.345 5.345 0 01-3.689 1.422 6.971 6.971 0 010-13.927 5.455 5.455 0 013.689 1.407l.141.156.141-.156v-9.38h2.845z" transform="translate(230.464 11.291)"/><path id="Rectangle_42" data-name="Rectangle 42" transform="translate(654.663 52.768)" d="M0 0h13.145v2.704H0z"/></g></svg>