<svg xmlns="http://www.w3.org/2000/svg" width="57.555" height="40.172"><g id="Group_1681" data-name="Group 1681" transform="translate(-788.192 -1573.118)"><g id="Supporting_reverse_logo-1" transform="translate(788.192 1573.118)" fill="#fff"><path id="Path_1064" data-name="Path 1064" d="M6.832 996.156h-.058c-.7 0-1.144-.517-1.144-1.355a1.183 1.183 0 011.355-1.349h.126V994c-.7 0-1 .232-1 .8v.038c0 .448.242.758.617.758h.042c.385 0 .612-.189.706-.885.121-.9.464-1.3 1.139-1.3h.056c.749 0 1.191.522 1.191 1.391a1.24 1.24 0 01-1.376 1.4H8.44v-.548c.654 0 .943-.332.943-.827v-.042c0-.5-.265-.807-.68-.807h-.042c-.417 0-.632.243-.722.917-.122.892-.496 1.261-1.107 1.261z" transform="translate(-5.63 -956.027)"/><path id="Path_1065" data-name="Path 1065" d="M10.13 903.527H7.3v-.548h2.8c.654 0 .885-.253.885-.833s-.232-.828-.885-.828H7.3v-.548h2.83c.954 0 1.344.417 1.344 1.376s-.389 1.381-1.344 1.381z" transform="translate(-7.237 -866.897)"/><path id="Path_1066" data-name="Path 1066" d="M11.411 812.357v.548H7.3v-1.218c0-.617.206-1.318 1.2-1.318h.105c1 0 1.2.7 1.2 1.318v.669zm-2.082-.685a.667.667 0 00-.738-.743h-.068a.667.667 0 00-.738.743v.685h1.544z" transform="translate(-7.237 -779.922)"/><path id="Path_1067" data-name="Path 1067" d="M11.411 725.287v.548H7.3v-1.218c0-.617.206-1.317 1.2-1.317h.106c1 0 1.2.7 1.2 1.317v.669zm-2.082-.687a.667.667 0 00-.738-.743h-.068a.667.667 0 00-.738.743v.685h1.544z" transform="translate(-7.237 -696.151)"/><path id="Path_1068" data-name="Path 1068" d="M7.854 632.616h-.211c-1.423 0-2.013-.48-2.013-1.471s.59-1.465 2.013-1.465h.211c1.423 0 2.013.48 2.013 1.465s-.589 1.471-2.013 1.471zm1.528-1.486c0-.633-.485-.886-1.528-.886h-.211c-1.043 0-1.528.253-1.528.886v.038c0 .633.485.885 1.528.885h.211c1.044 0 1.528-.253 1.528-.885z" transform="translate(-5.63 -606.078)"/><path id="Path_1069" data-name="Path 1069" d="M11.411 542.908v.548H7.3v-1.218c0-.617.206-1.318 1.2-1.318h.105a1.042 1.042 0 011.106.684l1.7-.685v.6l-1.6.623v.77zm-2.082-.685a.667.667 0 00-.738-.743h-.068a.668.668 0 00-.738.743v.685h1.544z" transform="translate(-7.237 -520.681)"/><path id="Path_1070" data-name="Path 1070" d="M11.411 461.012v.548H7.785v1.012H7.3V460h.485v1.012z" transform="translate(-7.237 -442.827)"/><path id="Path_1071" data-name="Path 1071" d="M11.411 427v.549H7.3V427z" transform="translate(-7.237 -411.078)"/><path id="Path_1072" data-name="Path 1072" d="M11.411 328v.585l-3.141 1.724.913-.021h2.229v.522H7.3v-.585l3.142-1.724-.912.021H7.3V328z" transform="translate(-7.237 -315.829)"/><path id="Path_1073" data-name="Path 1073" d="M7.854 233.492h-.211c-1.423 0-2.013-.506-2.013-1.492 0-.912.455-1.37 1.424-1.37h.163v.553c-.749 0-1.1.211-1.1.78v.042c0 .648.485.928 1.528.928h.211c1.044 0 1.528-.269 1.528-.97v-.042a1.091 1.091 0 00-.258-.743h-.934v.648h-.485v-1.2h1.681a1.788 1.788 0 01.48 1.318c0 1.042-.59 1.548-2.014 1.548z" transform="translate(-5.63 -222.148)"/><path id="Path_1074" data-name="Path 1074" d="M480.054 931.317a2.785 2.785 0 00.541-1.69v-.019h-.882v.019a2.432 2.432 0 01-.213 1.045L478.043 929a1.274 1.274 0 01-.3-.762v-.045a.427.427 0 01.458-.445h.045a.426.426 0 01.458.445v.006h.852v-.038c0-.613-.407-1.122-1.329-1.122s-1.335.509-1.335 1.122v.071a1.667 1.667 0 00.484 1.175 1.561 1.561 0 00-.742 1.335v.071a1.346 1.346 0 001.478 1.426 2.462 2.462 0 001.38-.387l.271.3h1.025zm-1.793.187h-.032a.677.677 0 01-.735-.761v-.043a.893.893 0 01.374-.716l1.129 1.3a1.283 1.283 0 01-.735.219z" transform="translate(-458.784 -892.172)"/><path id="Path_1075" data-name="Path 1075" d="M881.478 523.66v.419h-3.148v-.29l2.174-2.308a1.368 1.368 0 00.516-1.026v-.064a.986.986 0 00-1.1-1h-.038c-.729 0-1.1.387-1.1 1.336h-.459v-.155a1.4 1.4 0 011.574-1.591c1.02 0 1.574.548 1.574 1.342v.076a1.651 1.651 0 01-.587 1.3l-1.857 1.974.484-.006z" transform="translate(-845.264 -499.573)"/><path id="Path_1076" data-name="Path 1076" d="M994.755 518.9a1.373 1.373 0 011.536 1.516v2.142a1.535 1.535 0 01-3.071 0v-2.142a1.374 1.374 0 011.535-1.516zm.02.413h-.038c-.787 0-1.057.458-1.057 1.155v2.038c0 .7.271 1.155 1.057 1.155h.038c.787 0 1.058-.458 1.058-1.155v-2.038c-.001-.697-.272-1.155-1.058-1.155z" transform="translate(-955.801 -499.496)"/><path id="Path_1077" data-name="Path 1077" d="M1109.2 523.66v.419h-3.148v-.29l2.174-2.308a1.368 1.368 0 00.516-1.026v-.064a.986.986 0 00-1.1-1h-.038c-.729 0-1.1.387-1.1 1.336h-.458v-.155a1.4 1.4 0 011.574-1.591c1.019 0 1.574.548 1.574 1.342v.076a1.652 1.652 0 01-.587 1.3l-1.857 1.974.484-.006z" transform="translate(-1064.356 -499.573)"/><path id="Path_1078" data-name="Path 1078" d="M1222.475 518.9a1.374 1.374 0 011.535 1.516v2.142a1.535 1.535 0 01-3.07 0v-2.142a1.374 1.374 0 011.535-1.516zm.019.413h-.038c-.787 0-1.058.458-1.058 1.155v2.038c0 .7.271 1.155 1.058 1.155h.038c.787 0 1.058-.458 1.058-1.155v-2.038c0-.7-.271-1.155-1.057-1.155z" transform="translate(-1174.892 -499.496)"/><path id="Path_1079" data-name="Path 1079" d="M674.071 727.234h.058c.587 0 .813-.393.813-1.026h.871v.065a1.509 1.509 0 01-1.735 1.716c-1.258 0-1.838-.729-1.838-2.47v-.258c0-1.743.581-2.471 1.838-2.471a1.522 1.522 0 011.735 1.755v.219h-.871c0-.8-.2-1.219-.813-1.219h-.058c-.716 0-.947.581-.947 1.716v.258c-.001 1.135.225 1.715.947 1.715z" transform="translate(-646.983 -695.66)"/><path id="Path_1080" data-name="Path 1080" d="M785.4 725.519v-.258c0-1.743.6-2.471 1.864-2.471s1.857.729 1.857 2.471v.258c0 1.743-.6 2.47-1.857 2.47s-1.864-.729-1.864-2.47zm1.89 1.716c.7 0 .947-.581.947-1.716v-.258c0-1.137-.245-1.716-.947-1.716h-.058c-.7 0-.947.581-.947 1.716v.258c0 1.137.245 1.716.947 1.716z" transform="translate(-755.855 -695.66)"/><path id="Path_1081" data-name="Path 1081" d="M898.885 724.33l1.323 5.057h-.929l-.279-1.148h-1.419l-.277 1.149h-.935l1.322-5.057zm-1.122 3.154h1.052l-.522-2.167z" transform="translate(-862.62 -697.142)"/><path id="Path_1082" data-name="Path 1082" d="M1009.255 724.342v-.065c0-.89.632-1.458 1.722-1.458 1.194 0 1.716.561 1.716 1.7v.149h-.864c0-.755-.245-1.09-.845-1.09h-.058c-.478 0-.787.265-.787.658v.038c0 .413.187.644.98.755 1.1.149 1.619.542 1.619 1.426v.071c0 .942-.639 1.5-1.761 1.5a1.545 1.545 0 01-1.767-1.716v-.066h.863c0 .716.329 1.026.871 1.026h.056c.542 0 .852-.29.852-.709v-.038c0-.439-.245-.671-1.013-.775-1.094-.155-1.584-.574-1.584-1.406z" transform="translate(-971.185 -695.689)"/><path id="Path_1083" data-name="Path 1083" d="M1118.154 730.032h-.864v-4.277h-1.2V725h3.264v.754h-1.2z" transform="translate(-1074.015 -697.787)"/><path id="Path_1084" data-name="Path 1084" d="M1213.155 724.342v-.065c0-.89.632-1.458 1.722-1.458 1.193 0 1.715.561 1.715 1.7v.149h-.864c0-.755-.245-1.09-.845-1.09h-.058c-.477 0-.787.265-.787.658v.038c0 .413.187.644.98.755 1.1.149 1.619.542 1.619 1.426v.071c0 .942-.639 1.5-1.761 1.5a1.545 1.545 0 01-1.768-1.716v-.066h.865c0 .716.329 1.026.871 1.026h.058c.542 0 .852-.29.852-.709v-.038c0-.439-.245-.671-1.013-.775-1.096-.155-1.586-.574-1.586-1.406z" transform="translate(-1167.359 -695.689)"/><path id="Path_1085" data-name="Path 1085" d="M651.2 930.23l-.834 4.077h-1.115l-.864-5.057h.9l.574 3.9.786-3.9h1.09l.793 3.9.574-3.9h.9l-.865 5.057h-1.121z" transform="translate(-624.036 -894.298)"/><path id="Path_1086" data-name="Path 1086" d="M804.087 928.522l1.321 5.056h-.929l-.277-1.148h-1.419l-.277 1.148h-.935l1.322-5.058zm-1.123 3.155h1.051l-.523-2.168z" transform="translate(-771.412 -893.595)"/><path id="Path_1087" data-name="Path 1087" d="M906.6 934.28h-.864V930h-1.2v-.755h3.264V930h-1.2z" transform="translate(-870.481 -894.298)"/><path id="Path_1088" data-name="Path 1088" d="M1011.5 929.25v.75h-2.129v1.335h1.805v.748h-1.806v1.44h2.129v.752h-2.993v-5.03z" transform="translate(-970.511 -894.298)"/><path id="Path_1089" data-name="Path 1089" d="M1109.862 934.28H1109v-5.03h1.574c.787 0 1.684.232 1.684 1.51v.129a1.319 1.319 0 01-.819 1.38l.819 2.012h-.935l-.723-1.877h-.735zm.742-2.632a.7.7 0 00.774-.787v-.071a.7.7 0 00-.774-.787h-.742v1.645z" transform="translate(-1067.194 -894.298)"/><path id="Path_1090" data-name="Path 1090" d="M1213.155 928.562v-.062c0-.891.632-1.458 1.722-1.458 1.193 0 1.715.561 1.715 1.7v.148h-.864c0-.755-.245-1.09-.845-1.09h-.058c-.477 0-.787.265-.787.658v.038c0 .413.187.644.98.755 1.1.149 1.619.542 1.619 1.425v.071c0 .942-.639 1.5-1.761 1.5a1.545 1.545 0 01-1.768-1.716v-.065h.865c0 .716.329 1.026.871 1.026h.058c.542 0 .852-.291.852-.71v-.038c0-.439-.245-.671-1.013-.774-1.096-.157-1.586-.576-1.586-1.408z" transform="translate(-1167.359 -892.171)"/><path id="Path_1091" data-name="Path 1091" d="M1086.462 23.692v-4.9a3.562 3.562 0 10-3.562-3.562h-4.9a8.462 8.462 0 118.462 8.46z" transform="translate(-1037.369 -6.77)"/><path id="Path_1092" data-name="Path 1092" d="M273.5 15.231a3.563 3.563 0 01-7.125 0 8.461 8.461 0 10-8.461 8.461v-4.9a3.562 3.562 0 113.562-3.562 8.461 8.461 0 1016.922 0z" transform="translate(-240.212 -6.77)"/><path id="Path_1093" data-name="Path 1093" d="M254.348 528.461h-4.9a8.47 8.47 0 018.463-8.461v4.9a3.567 3.567 0 00-3.563 3.561z" transform="translate(-240.212 -500.554)"/></g></g></svg>