<svg xmlns="http://www.w3.org/2000/svg" width="692" height="208"><g id="Group_1694" data-name="Group 1694" transform="translate(-255 -149)"><g id="HOME-PAGE-HEADER-over-image" transform="translate(255 149)"><text id="Images_of_Scotland_s_coastal_communities_from_the_Mackinnon_collection" data-name="Images of Scotland’s coastal communities from the Mackinnon collection" transform="translate(94 127)" fill="rgba(255,255,255,0.85)" font-size="20" font-family="SourceSansPro-Regular, Source Sans Pro" letter-spacing=".11em"><tspan x="8.42" y="20">Images of Scotland’s coastal communities from</tspan><tspan x="122.25" y="40">the Mackinnon collection</tspan></text><g id="Group_1577" data-name="Group 1577" transform="translate(118.5 103.443)"><g id="Group_1575" data-name="Group 1575" transform="translate(210 -29)"><g id="Group_1574" data-name="Group 1574" fill="#51d5e1"><path id="Path_1220" data-name="Path 1220" d="M410.244 333.907a15.693 15.693 0 01-15.323 0q-.179-.1-.356-.206a17.218 17.218 0 00-4.83-1.833 17.422 17.422 0 004.006 3.273l.345.2a17.3 17.3 0 008.5 2.223 17.4 17.4 0 003.667-.39 17.219 17.219 0 004.829-1.832q.176-.105.356-.206a17.418 17.418 0 003.994-3.267 17.22 17.22 0 00-4.832 1.831q-.176.107-.356.207z" transform="translate(-389.735 -327.648)"/><path id="Path_1221" data-name="Path 1221" d="M522.654 305.843q-.152-.086-.3-.175a17.224 17.224 0 00-4.85-1.845 17.453 17.453 0 00-7.337 0 17.221 17.221 0 00-4.829 1.832q-.176.105-.356.206a17.418 17.418 0 00-3.994 3.267 17.223 17.223 0 004.829-1.832q.176-.105.356-.206a15.693 15.693 0 0115.349.014q.154.087.306.177a17.219 17.219 0 004.854 1.846 17.418 17.418 0 00-4.028-3.284z" transform="translate(-484.472 -303.433)"/></g></g><path id="Path_1224" data-name="Path 1224" d="M102.18 8.057h251.081" fill="none" stroke="#fff" stroke-width=".5"/></g><g id="Group_1692" data-name="Group 1692"><text id="From_Shore_to_Shore" data-name="From Shore to Shore" fill="#fff" font-size="46" font-family="SourceSansPro-Light, Source Sans Pro" font-weight="300" letter-spacing=".15em"><tspan x="93.598" y="47">From Shore to Shore</tspan></text><g id="Group_1635" data-name="Group 1635" transform="translate(2)"><g id="Group_1633" data-name="Group 1633" transform="translate(-84 -19)"><text id="Roon_the_Shores" data-name="Roon the Shores" transform="translate(463 80)" fill="#fff" font-size="23" font-family="SourceSansPro-Bold, Source Sans Pro" font-weight="700" letter-spacing=".148em"><tspan x="4.031" y="24">Roon the Shores</tspan></text></g><g id="Group_1634" data-name="Group 1634" transform="translate(-19 205)"><text id="Eadar_Cladaichean" data-name="Eadar Cladaichean" transform="translate(111 -144)" fill="#fff" font-size="23" font-family="SourceSansPro-Bold, Source Sans Pro" font-weight="700" letter-spacing=".09em"><tspan x="0" y="24">Eadar Cladaichean</tspan></text></g></g></g></g></g></svg>