<svg xmlns="http://www.w3.org/2000/svg" width="667.808" height="55.535"><defs><style>.a{fill:#fff}</style></defs><path class="a" d="M425.428 27.197h1.501v26.134h-1.501zm-43.359-.047l16.709 9.8 16.724-9.8zm0 26.134l16.709-9.8 16.724 9.8zM376.88 30.12v20.21l16.615-10.11zm44.031 0v20.21l-16.615-10.11zm108.397 13.535c-.922 0-1.485-.719-1.485-1.751s.563-1.751 1.485-1.751a1.735 1.735 0 011.36.7v2.094a1.735 1.735 0 01-1.36.7m2.5.891v-5.275h-1.141v.735a2.079 2.079 0 00-1.688-.86 2.438 2.438 0 00-2.345 2.767c0 1.751 1 2.767 2.345 2.767a2.125 2.125 0 001.688-.844v.719zm-10.019 0v-.672a2.157 2.157 0 001.688.844c1.36 0 2.345-1.016 2.345-2.767a2.438 2.438 0 00-2.344-2.767 2.079 2.079 0 00-1.688.86v-2.773h-1.157v7.284zm0-1.563v-2.117a1.735 1.735 0 011.36-.7 1.563 1.563 0 011.485 1.751c0 1.032-.578 1.751-1.485 1.751a1.719 1.719 0 01-1.36-.688m-2.86 1.7a1.563 1.563 0 001.079-.328l-.266-.875a.782.782 0 01-.516.188c-.328 0-.5-.266-.5-.625v-5.769h-1.157v6.049a1.219 1.219 0 001.36 1.36m-4.33-2.657h-2.626l1.313-3.47zm2.345 2.532l-2.86-7.284h-1.564l-2.97 7.284h1.563l.531-1.407h3.345l.531 1.407zm-7.724-3.127h-2.626v.985h2.626zm-3.783 3.126v-3.8a1.563 1.563 0 00-1.751-1.563 2.5 2.5 0 00-1.86.844v-2.764h-1.141v7.284h1.141v-3.689a1.751 1.751 0 011.36-.7c.641 0 1.063.234 1.063 1.063v3.329zm-11.41-.891a1.766 1.766 0 010-3.5 1.735 1.735 0 011.36.7v2.094a1.735 1.735 0 01-1.36.7m2.5.891v-5.277h-1.137v.735a2.11 2.11 0 00-1.7-.86c-1.344 0-2.329 1.063-2.329 2.767s.985 2.767 2.329 2.767a2.157 2.157 0 001.7-.844v.719zm-6.252 0v-3.72a1.563 1.563 0 00-1.751-1.641 2.469 2.469 0 00-1.86.844v-.719h-1.157v5.283h1.157v-3.729a1.735 1.735 0 011.344-.7c.657 0 1.079.266 1.079 1.094v3.3zm-10.769.125c1.422 0 2.2-.7 2.2-1.641 0-2.094-3.126-1.407-3.126-2.329 0-.375.375-.656.969-.656a2.094 2.094 0 011.563.641l.485-.813a3 3 0 00-2.048-.735c-1.329 0-2.079.735-2.079 1.563 0 2.032 3.126 1.3 3.126 2.329 0 .406-.359.7-1.047.7a2.767 2.767 0 01-1.782-.735l-.516.813a3.126 3.126 0 002.251.828m-5.721-1.016a1.751 1.751 0 111.36-2.8v2.094a1.75 1.75 0 01-1.36.7m2.5.891v-5.236h-1.125v.735a2.11 2.11 0 00-1.7-.86c-1.36 0-2.329 1.063-2.329 2.767s.985 2.767 2.329 2.767a2.157 2.157 0 001.7-.8v.719zm-6.58.125a1.563 1.563 0 001.078-.328l-.281-.875a.7.7 0 01-.5.188c-.328 0-.5-.266-.5-.625v-2.72h.969v-1h-1.078v-1.439h-1.141v1.438h-.875v1h.875v3.048a1.2 1.2 0 001.344 1.36m-3.126 0a1.563 1.563 0 001.078-.328l-.266-.875a.781.781 0 01-.516.188c-.328 0-.5-.266-.5-.625v-5.768h-1.157v6.049a1.219 1.219 0 001.36 1.36m-5.221-1.016a1.766 1.766 0 010-3.5 1.7 1.7 0 011.344.7v2.094a1.7 1.7 0 01-1.344.7m2.5.891v-5.278h-1.084v.735a2.063 2.063 0 00-1.688-.86c-1.36 0-2.329 1.063-2.329 2.767s.985 2.767 2.329 2.767a2.11 2.11 0 001.688-.8v.719zm-6.252 0v-3.8a1.563 1.563 0 00-1.672-1.563 2.5 2.5 0 00-1.86.844v-2.759h-1.141v7.284h1.141v-3.689a1.751 1.751 0 011.36-.7c.641 0 1.063.234 1.063 1.063v3.329zm-8.572-1.011a1.7 1.7 0 010-3.376 1.75 1.75 0 011.36.7v1.973a1.751 1.751 0 01-1.36.7m-.2 3.126c1.282 0 2.7-.516 2.7-2.423v-5h-1.14v.735a2.11 2.11 0 00-1.688-.782c-1.36 0-2.329 1-2.329 2.7s.985 2.72 2.329 2.72a2.157 2.157 0 001.7-.891v.594a1.407 1.407 0 01-1.563 1.485 2.063 2.063 0 01-1.688-.688l-.531.828a3 3 0 002.22.8m-6.065-3.032a1.766 1.766 0 010-3.5 1.735 1.735 0 011.36.7v2.094a1.735 1.735 0 01-1.36.7m2.5.891v-5.33h-1.141v.735a2.11 2.11 0 00-1.688-.813c-1.344 0-2.329 1.063-2.329 2.767s1 2.767 2.329 2.767a2.157 2.157 0 001.7-.844v.719zm-6.245-5.274h-1.16v5.283h1.16zm-.578-.641a.719.719 0 00.719-.7.735.735 0 00-.719-.719.719.719 0 00-.7.719.7.7 0 00.7.7m-4.189 2.079h-1.766v-2.361h1.766a1.157 1.157 0 110 2.313m2.61 3.845l-1.8-2.86a2.048 2.048 0 001.735-2.141 2.219 2.219 0 00-2.391-2.282h-3.127v7.284h1.266v-2.719h1.282l1.563 2.72zm94.123-9.517a1.563 1.563 0 001.063-.344l-.266-.875a.781.781 0 01-.516.2c-.328 0-.5-.281-.5-.641v-2.764h1.078v-.984h-1.078v-1.38h-1.141v1.438h-.875v.985h.875v3.048a1.219 1.219 0 001.36 1.375m-3.032-.141v-3.762a1.563 1.563 0 00-1.7-1.7 2.6 2.6 0 00-1.876.844v-.7h-1.141v5.267h1.141v-3.696a1.845 1.845 0 011.36-.7c.641 0 1.063.266 1.063 1.094v3.3zm-6.909-3.126h-2.985a1.469 1.469 0 011.485-1.391 1.438 1.438 0 011.563 1.391m-1.407 3.22a3.126 3.126 0 002.141-.782l-.531-.75a2.235 2.235 0 01-1.563.594 1.563 1.563 0 01-1.672-1.454h4.08v-.3a2.595 2.595 0 00-2.595-2.86 2.782 2.782 0 00.094 5.549m-3.876-.141v-3.822a1.407 1.407 0 00-1.563-1.563 2.251 2.251 0 00-1.8.969 1.375 1.375 0 00-1.438-.969 2.376 2.376 0 00-1.735.844v-.7h-1.157v5.267h1.141v-3.72a1.563 1.563 0 011.219-.7c.625 0 .875.391.875.953v3.439h1.141v-3.695a1.563 1.563 0 011.219-.7c.625 0 .875.391.875.953v3.439zm-9.05 0v-3.72a1.563 1.563 0 00-1.766-1.7 2.516 2.516 0 00-1.86.844v-.7h-1.157v5.267h1.157v-3.688a1.782 1.782 0 011.344-.7c.656 0 1.079.266 1.079 1.094v3.3zm-7.284 0V31.37a1.829 1.829 0 011.375-.7h.344v-1.144a2.282 2.282 0 00-1.719.907v-.766h-1.141v5.267zm-3.329-3.126h-2.986a1.469 1.469 0 011.485-1.391 1.438 1.438 0 011.563 1.391m-1.407 3.22a3.126 3.126 0 002.141-.782l-.531-.75a2.219 2.219 0 01-1.563.594 1.563 1.563 0 01-1.672-1.454h4v-.3a2.595 2.595 0 00-2.579-2.86 2.782 2.782 0 00.078 5.549m-5.127-.141l2.141-5.267h-1.219l-1.562 3.962-1.563-3.954h-1.11l2.157 5.267zm-6.252-.875a1.563 1.563 0 01-1.563-1.766 1.563 1.563 0 113.032 0 1.563 1.563 0 01-1.563 1.766m0 1.016a2.782 2.782 0 10-2.7-2.782 2.642 2.642 0 002.7 2.782m-6.971 0c2.3 0 3.626-1.563 3.626-4.064h-3.97v1.125h2.595a2.126 2.126 0 01-2.141 1.8 2.642 2.642 0 010-5.267 2.345 2.345 0 011.891.969l1.047-.594a3.439 3.439 0 00-2.939-1.563 3.783 3.783 0 00-.109 7.549m-7.5-.141v-3.649a1.563 1.563 0 00-1.7-1.672 2.548 2.548 0 00-1.86.844v-2.72H463.9v7.284h1.14v-3.689a1.8 1.8 0 011.36-.7c.641 0 1.063.25 1.063 1.079v3.314zm-8 .141c1.422 0 2.188-.719 2.188-1.657 0-2.094-3.126-1.391-3.126-2.329 0-.36.375-.656.985-.656a2.219 2.219 0 011.563.641l.469-.813a3.032 3.032 0 00-2.032-.735c-1.344 0-2.079.735-2.079 1.563 0 2.032 3.126 1.3 3.126 2.329 0 .422-.36.7-1.047.7a2.689 2.689 0 01-1.782-.735l-.531.828a3.235 3.235 0 002.266.828m-3.251-5.408h-1.157v5.267h1.157zm-.578-.641a.667.667 0 10-.7-.719.719.719 0 00.7.719m-2.439 6.049a1.563 1.563 0 001.063-.344l-.266-.875a.735.735 0 01-.5.2c-.328 0-.5-.281-.5-.641v-2.641h1.063v-.984h-1.063v-1.38h-1.157v1.438h-.875v.985h.875v3.048a1.219 1.219 0 001.36 1.375m-3.673 0a1.563 1.563 0 001.063-.344l-.266-.875a.782.782 0 01-.516.2c-.313 0-.5-.281-.5-.641v-2.822h1.078v-.984h-1.079v-1.38h-1.141v1.438h-.875v.985h.875v3.048a1.219 1.219 0 001.36 1.375m-5.424-1.016a1.563 1.563 0 01-1.563-1.766 1.563 1.563 0 113.048 0 1.563 1.563 0 01-1.563 1.766m0 1.016a2.782 2.782 0 10-2.7-2.782 2.657 2.657 0 002.7 2.782m-5.236 0a2.36 2.36 0 002.016-.938l-.75-.719a1.391 1.391 0 01-1.2.641 1.766 1.766 0 010-3.517 1.407 1.407 0 011.2.61l.75-.688a2.313 2.313 0 00-2.016-.938 2.782 2.782 0 000 5.549m-6.346 0c1.954 0 2.813-1.047 2.813-2.266 0-2.7-4.236-1.86-4.236-3.235 0-.531.485-.907 1.235-.907a2.97 2.97 0 012.11.844l.719-.953a3.751 3.751 0 00-2.72-1.032c-1.563 0-2.657.938-2.657 2.141 0 2.688 4.251 1.735 4.251 3.267 0 .485-.406 1-1.454 1a3.126 3.126 0 01-2.235-1.016l-.719 1a4 4 0 002.97 1.157m35.259 18.386a1.563 1.563 0 001.047-.328l-.266-.875a.672.672 0 01-.5.2c-.328 0-.5-.266-.5-.625v-2.733h1.063v-.985h-1.063v-1.438h-1.125v1.438h-.875v.985h.875v3.017a1.2 1.2 0 001.344 1.344m-5.361-1a1.751 1.751 0 111.517-1.735 1.751 1.751 0 01-1.517 1.735m0 1a2.751 2.751 0 10-2.689-2.751 2.61 2.61 0 002.688 2.751m-5.189 0a2.376 2.376 0 002-.922l-.75-.7a1.422 1.422 0 01-1.2.625 1.563 1.563 0 01-1.563-1.751 1.563 1.563 0 011.563-1.719 1.36 1.36 0 011.2.61l.75-.688a2.345 2.345 0 00-2-.938 2.751 2.751 0 000 5.486m-5.627 0c1.407 0 2.173-.7 2.173-1.563 0-2.079-3.126-1.391-3.126-2.313 0-.359.375-.641.969-.641a2.142 2.142 0 011.563.625l.469-.8a2.954 2.954 0 00-2.016-.735c-1.329 0-2.063.735-2.063 1.563 0 2.016 3.126 1.282 3.126 2.313 0 .406-.36.688-1.032.688a2.72 2.72 0 01-1.766-.724l-.516.813a3.126 3.126 0 002.235.813m-3.939 0a.75.75 0 10-.766-.766.766.766 0 00.766.766m-2.892-.109l2.141-5.221h-1.219l-1.567 3.912-1.558-3.908h-1.219l2.126 5.221zm-6.252-.875a1.751 1.751 0 111.563-1.751 1.563 1.563 0 01-1.563 1.751m0 1a2.751 2.751 0 10-2.688-2.751 2.61 2.61 0 002.688 2.751m-6.252-1.125a1.688 1.688 0 010-3.345 1.735 1.735 0 011.344.688v1.94a1.735 1.735 0 01-1.344.7m-.2 3.126c1.282 0 2.688-.516 2.688-2.391v-5h-1.141v.719a2.048 2.048 0 00-1.672-.86c-1.36 0-2.313.985-2.313 2.688s.985 2.688 2.313 2.688a2.079 2.079 0 001.672-.891v.61a1.376 1.376 0 01-1.563 1.454 2.063 2.063 0 01-1.657-.672l-.531.828a3 3 0 002.188.782m127.839-10.954h5.768l-2.876-8.456zm1.329-12.5h3.126l7.112 20.757h-2.99l-1.844-5.408h-7.706l-1.829 5.408h-2.981zm11.269 7.389h2.563l.281 1.422.141.141.141-.141a3.923 3.923 0 013.126-1.645 2.564 2.564 0 011.422.281v2.548h-1.7a3.126 3.126 0 00-3.126 3.017v7.815h-2.848zm8.769 0h2.61V36.56l2.251-2.845h.529v5.689h2.907v2.548h-2.907v6.83a1.36 1.36 0 001.454 1.422l1.7-.281v2.563l-1.563.281c-2.845 0-4.377-1.422-4.377-3.986v-6.83h-2.61zm17.334-7.393h12.52v2.845h-9.535v5.971h8.675v2.829h-8.675v9.113h-2.985zm25.055 20.753h-2.563l-.281-1.141-.141-.141-.141.141a4.032 4.032 0 01-3.126 1.422 5.08 5.08 0 01-5.408-5.408v-8.233h2.845v8.237a2.563 2.563 0 002.845 2.845 3.126 3.126 0 003.126-2.985v-8.1h2.845zm1.845-13.36h2.563l.281 1.125.141.156.141-.156a4.127 4.127 0 013.126-1.407 5.064 5.064 0 015.408 5.392v8.254h-2.845v-8.253a2.595 2.595 0 00-2.845-2.845 3.126 3.126 0 00-3.126 3.017v8.081h-2.844zm19.882 2.266a4.064 4.064 0 00-4.111 4.408 4.048 4.048 0 004.158 4.408 4.423 4.423 0 000-8.816m6.674 11.1h-2.548l-.3-1.141-.141-.141-.141.141a5.345 5.345 0 01-3.689 1.422 6.971 6.971 0 010-13.927 5.455 5.455 0 013.689 1.407l.141.156.141-.156v-9.38h2.845zm1.422-.002h13.145v2.704h-13.145zm-371.08-28.213v4.392a4.344 4.344 0 01-.078.813 1.641 1.641 0 01-.219.531.86.86 0 01-.375.281 1.688 1.688 0 01-.688.125 1.751 1.751 0 01-.719-.125.813.813 0 01-.359-.281 1.235 1.235 0 01-.219-.531 3.264 3.264 0 010-.813v-4.392h-2.189v4.689a4.377 4.377 0 00.2 1.375 3.126 3.126 0 00.672 1.172 3 3 0 001.141.8 4.361 4.361 0 003.126 0 3 3 0 001.141-.8 3.125 3.125 0 00.656-1.172 4.378 4.378 0 00.2-1.375v-4.689zm-24.432-3.969a1 1 0 10-1-1 1 1 0 001 1m-5.611 3.625l-1.125.516c1.36 4 4.939 5.408 8.8 3.2l-.453-1.11c-2.939 1.563-6.127.641-7.221-2.61"/><path class="a" d="M265.826 18.87c-.313 1.813-1.407 3.845-2.782 3.845s-1.218-1.723-.918-2.771c.485-1.86 1.751-3.814 2.7-3.814s1.25 1.172 1 2.735m-9.238 12.5c-4.548 0-7.674-3.126-8.878-7.893-.828-3.251-1.876-5.408-4.517-6.111-.3-.078-.86-.3-.86-.86s.985-1.485 2.813-1.485a6.408 6.408 0 015.158 3.126l.922-.344a25.118 25.118 0 012.626-7.6c2-4.3 4.033-7.221 5.377-7.19a1.2 1.2 0 01.938 1.266c0 1.766-1.563 4.439-2.939 7.331l-.766 1.672.891.391c.3-.5.907-1.688.985-1.891l.672 1.485a9.519 9.519 0 00-2.673 6.362 2.876 2.876 0 001.829 3.017 2.423 2.423 0 002.688-.86 2.126 2.126 0 002.2 1.938 2.8 2.8 0 002.563-1.844 9.191 9.191 0 01-9.019 9.535M252.253 3.4c0-.907.391-2 1.25-2 .61 0 1.344.953 2.219 2.86a23.448 23.448 0 00-2.3 3.783 14.317 14.317 0 01-1.172-4.689m9.378 10.191c.907.406.985 2.3 0 4.548s-1.8 3.5-2.782 3.5-1.422-.547-1.422-2.016c0-2.782 2.266-6.909 4.142-6.033m3.22 1.3a2.188 2.188 0 00-1.3.516 2.454 2.454 0 00-3.423-2.939l-.844-2.048c.766-1.907 2.141-4.22 2.141-6.127 0-1.563-.75-2.563-2.173-2.563a3.673 3.673 0 00-2.548 1.563c-1-2.2-2.048-3.251-3.126-3.251-1.782 0-2.516 1.782-2.516 3.3a15.63 15.63 0 001.7 6.252 53.888 53.888 0 00-2.438 6.33 7.159 7.159 0 00-5.111-2.251 5.189 5.189 0 00-2.954.828 2.438 2.438 0 00-1.172 1.954 2.235 2.235 0 001.876 2.126c1.938.516 2.814 2.079 3.548 5.158 1.344 5.549 4.814 8.878 10.144 8.878a10.254 10.254 0 0010.238-10.222 12.5 12.5 0 00-.219-2.22 9.979 9.979 0 00.391-1.3c.469-2.391-.438-4.08-2.173-4.08"/><path class="a" d="M263.497 19.897a.907.907 0 10.907.907.907.907 0 00-.907-.907m-1.454-16.833a.594.594 0 01.141-.234.657.657 0 01.234-.172.891.891 0 01.281 0 .907.907 0 01.3 0 .766.766 0 01.219.172.625.625 0 01.156.234.906.906 0 010 .3.891.891 0 010 .281.625.625 0 01-.156.234.516.516 0 01-.219.156.641.641 0 01-.3 0 .578.578 0 01-.281 0 .484.484 0 01-.234-.156.594.594 0 01-.141-.234.61.61 0 010-.281.641.641 0 010-.3m0 .938a.719.719 0 00.281.2.923.923 0 00.36 0 .875.875 0 00.359 0 .672.672 0 00.3-.2.812.812 0 00.188-.3.672.672 0 000-.36.719.719 0 000-.359 1.189 1.189 0 00-.188-.3.813.813 0 00-.3-.188.875.875 0 00-.359-.078.922.922 0 00-.36.078.891.891 0 00-.281.188.86.86 0 00-.266.656.876.876 0 000 .359.672.672 0 00.2.3"/><path class="a" d="M262.591 3.033h.172a.172.172 0 01.125 0 .156.156 0 010 .109.11.11 0 010 .094.156.156 0 01-.125 0h-.172zm0 .422h.156l.2.359h.2l-.234-.391a.25.25 0 00.141-.109.266.266 0 000-.156.2.2 0 000-.094V2.97h-.61v.938h.141zm7.783 31.104h83.201v1.016h-83.201zm0 12.942v7.768h1.125v-3.407h2.86v-.981h-2.86v-2.38h3.751v-1zm5.721 0h1.11v4.533a4.692 4.692 0 00.094.969 1.828 1.828 0 00.328.75 1.407 1.407 0 00.594.485 2.438 2.438 0 00.969.172 2.469 2.469 0 00.953-.172 1.407 1.407 0 00.594-.485 1.83 1.83 0 00.328-.75 4.691 4.691 0 00.094-.969v-4.533h1.11v4.814a4 4 0 01-.188 1.235 2.86 2.86 0 01-.563 1 2.689 2.689 0 01-.953.672 3.908 3.908 0 01-2.751 0 2.751 2.751 0 01-.969-.672 2.86 2.86 0 01-.563-1 4 4 0 01-.188-1.235zm12.723 0v6.065l-4.236-6.065h-1.125v7.768h1.094v-6.08l4.251 6.08h1.11v-7.768zm4.798 6.768a3.282 3.282 0 002.266-.719 2.72 2.72 0 00.8-2.126 2.829 2.829 0 00-.782-2.173 3.126 3.126 0 00-2.313-.75h-1.424v5.768zm-2.563-6.768h2.59a6.393 6.393 0 011.688.219 3.6 3.6 0 011.344.719 3.532 3.532 0 01.875 1.219 4.5 4.5 0 01.313 1.751 4.423 4.423 0 01-.313 1.7 3.376 3.376 0 01-2.141 1.923 5.908 5.908 0 01-1.7.234h-2.579zm-20.679-10.035h2.157v2.97h2.985v-2.97h2.157v8.128h-2.157v-3.173h-2.985v3.173h-2.157zm8.769 0h5.846v1.876H281.3v1.25h3.032v1.751H281.3v1.391h3.939v1.86h-6.1zm10.363 3.673a1 1 0 00.7-.266.953.953 0 00.266-.7 1 1 0 00-.266-.719.891.891 0 00-.719-.266h-1.028v1.954zm-3.126-3.658h3.345a3.908 3.908 0 011.188.156 2.454 2.454 0 01.907.516 2.126 2.126 0 01.594.828 2.938 2.938 0 01.2 1.157 2.657 2.657 0 01-.344 1.391 3.032 3.032 0 01-.938.953l1.735 3.126h-2.345l-1.373-2.765h-.907v2.751h-2.093zm7.628-.015h2.157v8.112h-2.157zm5.611 1.891h-2.485v-1.891h7.143v1.891h-2.47v6.237h-2.188zm8.643 2.954l-.891-2.985-.938 2.985zm-2.048-4.861h2.47l2.876 8.11h-2.331l-.531-1.688h-2.7l-.534 1.688h-2.235zm9.77 3.502h3.329v3.673a4.532 4.532 0 01-1.672.891 6.5 6.5 0 01-1.891.266 4.814 4.814 0 01-1.766-.3 3.517 3.517 0 01-1.329-.844 3.845 3.845 0 01-.844-1.344 5.33 5.33 0 01-.281-1.782 4.689 4.689 0 01.313-1.7 3.876 3.876 0 012.2-2.188 4.3 4.3 0 011.7-.328 5.346 5.346 0 011.891.344 3.251 3.251 0 011.485 1.11l-1.4 1.404a3.612 3.612 0 00-.8-.61 1.954 1.954 0 00-1.016-.25 2.157 2.157 0 00-.922.188 2.11 2.11 0 00-.672.485 2.143 2.143 0 00-.422.735 2.8 2.8 0 00-.141.891 2.6 2.6 0 00.156.953 2.22 2.22 0 00.438.719 2.11 2.11 0 00.688.453 2.314 2.314 0 00.891.172 3.017 3.017 0 00.766-.094 2.454 2.454 0 00.7-.344v-.782h-1.407zm4.658-3.486h5.846v1.876h-3.686v1.25h3.032v1.751h-3.032v1.391h3.954v1.86h-6.114zM289.99 21.757a2.735 2.735 0 002.048-.907 2.861 2.861 0 00.563-.969 3.532 3.532 0 000-2.36 2.86 2.86 0 00-.563-.969 2.5 2.5 0 00-.891-.656 2.939 2.939 0 00-2.3 0 2.641 2.641 0 00-.891.656 3.5 3.5 0 00-.563.969 3.814 3.814 0 000 2.36 3.5 3.5 0 00.563.969 2.641 2.641 0 00.891.656 2.5 2.5 0 001.141.25m0 1.047a3.908 3.908 0 01-1.563-.313 4.268 4.268 0 01-1.266-.875 3.767 3.767 0 01-.828-1.3 4.2 4.2 0 01-.313-1.563 4.142 4.142 0 01.313-1.563 3.907 3.907 0 01.828-1.3 3.72 3.72 0 011.25-.86 3.923 3.923 0 013.126 0 3.72 3.72 0 011.25.86 4.22 4.22 0 01.844 1.3 4.126 4.126 0 01.3 1.563 4.19 4.19 0 01-.3 1.563 4.048 4.048 0 01-.844 1.3 4 4 0 01-1.25.875 4.064 4.064 0 01-1.563.313m7.959-7.954h1.125l4.236 6.065v-6.065h1.094v7.753h-1.11l-4.255-6.065v6.065h-1.09zm-14.318 4.659l-1.25-3.423-1.266 3.423zm-1.782-4.69h1.078l3.032 7.815h-1.25l-.735-2.2h-3.126l-.8 2.173h-1.184zm13.489.031h1.11v7.768h-1.11zm-17.771 0h-1.125l-2.345 4-2.345-4h-1.141l-.313 7.753h1.094l.2-6.065 2.266 3.7h.469l2.266-3.7.2 6.065h1.094zm52.924 16.819l1.3-1.563a2.985 2.985 0 002.016.922c.594 0 .969-.25 1.016-.531v-.141c0-.359-.3-.625-1.344-.953-1.563-.516-2.47-1.11-2.516-2.5v-.109a2.8 2.8 0 013.126-2.485 4.283 4.283 0 013.017 1.047l-1.11 1.438a2.563 2.563 0 00-1.829-.75c-.516 0-.922.234-.922.547v.094c0 .359.234.531 1.3.86 1.8.547 2.7 1.172 2.7 2.657v.172a2.907 2.907 0 01-3.267 2.563 4.689 4.689 0 01-3.486-1.188m-22.555-1.941a2.516 2.516 0 01-2.094 1.078 2.141 2.141 0 01-2.079-2.251 2.141 2.141 0 012.063-2.266 2.657 2.657 0 012 1l1.407-1.407a4.377 4.377 0 00-7.815 2.688 4.236 4.236 0 004.345 4.283 4.345 4.345 0 003.5-1.719zm-34.575.953a2.032 2.032 0 002.219-2.157 2.563 2.563 0 00-.141-.875 1.782 1.782 0 00-.406-.688 1.922 1.922 0 00-.688-.438 2.61 2.61 0 00-.985-.156h-.871v4.314zm-3.017-6.252h3.126a5.5 5.5 0 011.719.25 3.83 3.83 0 011.391.735 3.517 3.517 0 01.907 1.282 4.689 4.689 0 01.328 1.829 4.064 4.064 0 01-.344 1.751 3.36 3.36 0 01-.907 1.25 3.626 3.626 0 01-1.391.75 5.58 5.58 0 01-1.719.25h-3.125zm20.726 4.907l-.891-2.97-.938 2.97zm-2.047-4.86h2.47l2.86 8.1h-2.313l-.531-1.672h-2.7l-.531 1.672h-2.225zm34.386 4.86l-.891-2.97-.938 2.97zm-2.047-4.86h2.47l2.86 8.1h-2.313l-.531-1.672h-2.7l-.531 1.672h-2.225zm-11.082 0h2.141v2.97h2.985v-2.97h2.157v8.1h-2.157v-3.161h-2.985v3.157h-2.141zm17.209 0h2.157v8.112h-2.157zm-30.261 0h-2.141v8.1h6.08v-1.848h-3.939zM31.089 20.428c0-.3.078-.438.313-.485h.25c.094 0 .141 0 .141-.094s0 0-.172 0H29.26s0 .094.141.094a1.016 1.016 0 01.313 0c.188 0 .266.188.281.469s0 .516 0 1.813v3.407c0 .359-.078.391-.25.422a.875.875 0 01-.313 0h-.141s0 .094.172.094h2.407c.094 0 .156 0 .156-.094s0 0-.125 0a1.876 1.876 0 01-.438 0c-.266 0-.313-.188-.344-.406s0-1.047 0-1.86v-3.379m13.13 2.188c-1.235-1.235-2.532-2.626-2.626-2.735s-.234-.266-.328-.266-.109.125-.109.3v5.033c0 .75 0 1-.25 1.063a1.766 1.766 0 01-.391 0H40.4s0 .094.188.094h1.985c.109 0 .188 0 .188-.094s0 0-.141 0a1.407 1.407 0 01-.438 0c-.172 0-.281-.281-.313-.938v-3.578c.156.156 1.094 1.219 2.032 2.141s1.969 1.985 2.516 2.5a.453.453 0 00.281.188c.078 0 .109-.078.109-.266l.094-5.361c0-.485.078-.656.313-.735h.25c.109 0 .156 0 .156-.078s-.078 0-.188 0h-2.323s0 .078.141.078a1.563 1.563 0 01.453 0c.2.078.281.25.281.766l.094 3.814c-.141-.125-1.3-1.36-1.876-1.938m-2.266 10.348a3.408 3.408 0 01-.844-.094c-.094 0-.094 0-.109-.109s0-.969 0-1.641v-1.032a.156.156 0 01.141-.156h.453c.953 0 1.282.953 1.282 1.844a1.313 1.313 0 01-.328 1 .782.782 0 01-.578.2m5.064 2.97h1.329c.094 0 .156 0 .156-.078s0-.078-.125-.078h-.438c-.266 0-.313-.188-.344-.422s0-1.032 0-1.86v-3.358c0-.234.078-.438.313-.485h.25c.094 0 .141 0 .141-.078s0-.078-.172-.078h-2.142c-.141 0-.219 0-.219.078s0 .078.141.078h.313c.188 0 .266.188.281.485s0 .516 0 1.8v3.423c0 .3 0 .391-.25.422h-.313a3.219 3.219 0 01-.516 0c-1-.234-1.766-1.563-2.532-2.829a1.985 1.985 0 001.016-1.751 1.563 1.563 0 00-1.7-1.641h-2.911c-.125 0-.188 0-.188.078s0 .078.141.078h.344c.281 0 .344.188.359.485s0 .516 0 1.8v3.376c0 .359-.078.438-.234.469H39.4a.141.141 0 00-.141.078s0 .078.172.078h2.3c.109 0 .172 0 .172-.078s0-.078-.109-.078h-.422c-.25 0-.3-.219-.328-.469s0-1.469 0-1.954c0-.094 0-.094.109-.078a3.829 3.829 0 00.969 0c.875 1.563 1.438 2.657 3.017 2.657h1.938M35.95 20.009c1.407 0 2.5 1.188 2.5 3.126 0 2.454-1.375 2.751-1.969 2.751-1.563 0-2.626-1.407-2.626-3.126 0-2.126 1.125-2.673 2.094-2.673m.172 6.252a3.361 3.361 0 003.517-3.486 3.126 3.126 0 00-3.438-3.128 3.345 3.345 0 100 6.674m-3.032 8.55a.192.192 0 00-.172.125 3.252 3.252 0 01-.328.328 1.923 1.923 0 01-1.235.25c-.672 0-.828-.078-.969-.2s-.188-.735-.188-1.829V30.26c0-.234.094-.453.313-.485h.344c.094 0 .156 0 .156-.078s0-.078-.188-.078h-2.329c-.125 0-.172 0-.172.078s0 .078.141.078h.281c.281 0 .344.188.359.485s0 .5 0 1.8v3.376c0 .359 0 .438-.234.469h-.313c-.094 0-.141 0-.141.078s0 .078.172.078h3.361c.453 0 .656-.109.813-.375l.375-.656v-.141m-9.378 4.92c1.391 0 2.438 1.188 2.438 3.126 0 2.454-1.329 2.751-1.923 2.751-1.563 0-2.548-1.407-2.548-3.126 0-2.126 1.047-2.673 2.032-2.673m.156 6.252a3.329 3.329 0 003.47-3.5 3.032 3.032 0 00-3.375-3.13 3.345 3.345 0 10-.094 6.674m3.673-10.394l.375-.656v-.141c0-.031-.125 0-.172.125a3.251 3.251 0 01-.328.328 1.923 1.923 0 01-1.235.25c-.672 0-.828-.078-.969-.2a4.151 4.151 0 01-.328-2v-3.36c0-.234.094-.453.313-.485h.344c.094 0 .141 0 .141-.078s0-.078-.172-.078H23.3c-.125 0-.188 0-.188.078s0 .078.156.078h.281c.281 0 .344.188.359.485s0 .5 0 1.8v3.374c0 .359 0 .438-.234.469h-.313c-.094 0-.141 0-.141.078s0 .078.172.078h3.361c.453 0 .656-.109.813-.375M7.362 52.752l-3.533 2.657h66.117l-3.517-2.657zm12.5-19.491H18.3l.8-2.094.782 2.11m.25.485l.672 1.8a.141.141 0 01-.078.2c-.078 0-.109 0-.109.078s.094 0 .25 0h1.563c.313 0 .391 0 .391-.078s0-.078-.109-.078a1.453 1.453 0 01-.359 0c-.188 0-.422-.156-.75-.922-.547-1.3-1.907-4.767-2.11-5.236-.078-.2-.141-.281-.219-.281s-.125.094-.234.344l-2.14 5.344c-.156.422-.328.719-.719.766h-.234s-.094 0-.094.078 0 .078.156.078h1.907c.094 0 .141 0 .141-.078s0-.078-.125-.078H17.8c-.266 0-.344-.109-.344-.266a1.954 1.954 0 01.125-.516l.469-1.219h1.985M0 52.58l2.642-1.985V4.986L0 3.001zM71.165 4.986v45.609l2.642 1.985V3.001zM56.91 35.609a1.36 1.36 0 01-1.407-.782 1.735 1.735 0 010-.438c0-.078 0-.141-.094-.141s-.094.094-.094.219v1.11c0 .188 0 .234.156.3a4.267 4.267 0 001.469.219c1.563 0 2.5-.782 2.5-1.923a1.657 1.657 0 00-.453-1.219 5.33 5.33 0 00-1.42-.845c-1-.453-1.36-.719-1.36-1.36s.735-.922 1.313-.922a1.438 1.438 0 011.172.406 1.079 1.079 0 01.219.547v.156s.094 0 .094-.25v-1.02c0-.109 0-.094-.109-.109a7.456 7.456 0 00-1.375-.141c-1.36 0-2.22.672-2.22 1.719s.438 1.36 1.563 1.876a5.8 5.8 0 011.282.672 1.157 1.157 0 01.422.875c0 .75-.531 1.047-1.563 1.047m-2.845 0c.141-.234.313-.563.359-.656s0-.109 0-.141-.125 0-.172.125a1.563 1.563 0 01-.328.328 3.235 3.235 0 01-2.376 0c-.109-.078-.156-.313-.172-.688v-1.828h1.454a.42.42 0 01.469.344 2.823 2.823 0 010 .3v-.08a4.926 4.926 0 010-.578 4.846 4.846 0 010-.625l-.141.109a.576.576 0 01-.406.125h-1.564v-2.361h1.688c.422 0 .5.156.563.313a.844.844 0 010 .313v.104a.1.1 0 00.094-.094c.016-.094 0-.469 0-.563a5.272 5.272 0 010-.547H49.6c-.125 0-.172 0-.172.078s0 .078.141.078h.328c.281 0 .344.188.36.485s0 .516 0 1.8v3.376c0 .156 0 .438-.25.469h-.313c-.094 0-.141 0-.141.078s0 .078.172.078h3.548a.8.8 0 00.813-.375m-2.767-12.02h-1.567l.782-2.094.766 2.11m.844 2.485s-.109 0-.109.078.094 0 .25 0h1.563c.266 0 .391 0 .391-.094s0 0-.109 0h-.359c-.172 0-.422-.156-.75-.922-.547-1.3-1.907-4.689-2.11-5.236a.248.248 0 00-.2-.266c-.063 0-.141.094-.25.344l-2 5.267c-.172.422-.344.7-.735.766h-.36s0 .094.156.094h1.907c.094 0 .156 0 .156-.094s0 0-.141 0h-.125c-.266 0-.344-.109-.344-.266a1.422 1.422 0 01.141-.516l.453-1.219h1.891a.078.078 0 01.094 0l.672 1.813a.125.125 0 01-.078.188m4.439-5.564c0-.3.094-.438.328-.485h.328c.094 0 .156 0 .156-.078s0 0-.188 0h-2.5s0 .078.141.078h.281c.281 0 .344.2.359.485s0 .516 0 1.813v3.3c0 .344-.078.438-.25.469a1.469 1.469 0 01-.313 0H54.8s0 .078.156.078h3.376a.8.8 0 00.8-.359l.375-.656v-.156c0-.031-.125 0-.172.125a2.172 2.172 0 01-.328.328 1.923 1.923 0 01-1.235.25c-.672 0-.828 0-.969-.188a4.364 4.364 0 01-.188-1.844v-3.3m-22.322 14.35v.673c0 .156-.078.438-.25.469h-.313c-.094 0-.125 0-.125.078s0 .078.156.078h3.549a.8.8 0 00.813-.375 6.378 6.378 0 00.359-.656v-.141c0-.031-.125 0-.172.125a2.3 2.3 0 01-.344.328 1.922 1.922 0 01-1.235.25 1.938 1.938 0 01-1.141-.2c-.109-.078-.141-.313-.172-.688v-1.832h1.438a.449.449 0 01.485.344.6.6 0 010 .3v.078a.349.349 0 00.078-.156v-.578a4.846 4.846 0 010-.625l-.125.109c-.125.109-.2.109-.422.125h-1.563v-2.363H37c.422 0 .516.156.563.313a.907.907 0 010 .313v.104l.094-.094c.094-.094 0-.469 0-.563a3.719 3.719 0 010-.547h-4.02c-.125 0-.188 0-.188.078s0 .078.141.078h.328c.281 0 .359.188.375.485s0 .516 0 1.8v2.7m20.695 7.163v-1.7a.172.172 0 01.094-.172 2.547 2.547 0 01.563 0 2.86 2.86 0 012.985 2.985 2.454 2.454 0 01-.7 2.016 2.141 2.141 0 01-1.657.5c-.672 0-1-.094-1.125-.25a2.267 2.267 0 01-.094-.656v-1.719zm-1.094 3.439c0 .25 0 .438-.25.469h-.454s0 .078.172.078h2.907a3.236 3.236 0 002.61-1 3.126 3.126 0 00.922-2.282 3.032 3.032 0 00-.813-2.157 3.955 3.955 0 00-3.126-.985h-2.531q-.188 0-.188.094h.485c.281 0 .344.2.36.485s0 .516 0 1.8v3.376m-42.733.406a1.36 1.36 0 01-1.407-.782 1.735 1.735 0 010-.438v-.141a.423.423 0 00-.109.219c-.016.125 0 .641 0 1.11 0 .188 0 .234.156.3a4.173 4.173 0 001.454.219c1.563 0 2.5-.782 2.5-1.923a1.657 1.657 0 00-.453-1.219 5.111 5.111 0 00-1.422-.844c-.985-.453-1.36-.719-1.36-1.36s.735-.907 1.313-.907a1.422 1.422 0 011.172.391 1.079 1.079 0 01.031.594v.141s.109 0 .109-.25v-1.019c0-.109 0-.094-.125-.109a7.16 7.16 0 00-1.375-.141c-1.344 0-2.22.672-2.22 1.719s.438 1.36 1.563 1.876a5.658 5.658 0 011.266.672 1.11 1.11 0 01.422.891c0 .735-.516 1.032-1.563 1.032m31-2.313h-1.568l.8-2.094.766 2.11m.844 2.485h1.7c.313 0 .391 0 .391-.078s0 0-.109 0a1.454 1.454 0 01-.359 0c-.172 0-.422-.156-.75-.922-.547-1.3-1.907-4.689-2.11-5.236-.078-.2-.141-.266-.219-.266s-.125.094-.234.328l-2.141 5.346c-.156.422-.328.719-.719.766h-.359s0 .078.156.078H40.2c.094 0 .141 0 .141-.078s0 0-.125 0h-.046c-.266 0-.344-.109-.344-.25a1.907 1.907 0 01.125-.531l.469-1.219h2.063l.672 1.8a.141.141 0 01-.078.2m-8.69-.453c0 .25-.078.438-.25.469h-.453s0 .094.172.094h3.361c.453 0 .656-.109.813-.375l.375-.656v-.141c0-.031-.125 0-.172.109a3.407 3.407 0 01-.328.344 2.032 2.032 0 01-1.235.25c-.672 0-.828-.078-.969-.2s-.188-.735-.188-1.829v-3.366c0-.234.094-.453.328-.485h.328c.094 0 .156 0 .156-.078s0 0-.188 0h-2.516s0 .078.156.078h.281c.281 0 .344.188.359.485s0 .5 0 1.8v3.374m-2.673-5.142c.766 0 .985.25 1.016.469v.094c0 .125 0 .172.094.172s0 0 .078-.141a4.145 4.145 0 000-.985c0-.188 0-.172-.078-.172a3.861 3.861 0 01-.813.078h-3.984a2.72 2.72 0 01-.359-.109l-.109.156a3.187 3.187 0 00-.172.985c0 .141 0 .141.078.141s0 0 .094-.109a.8.8 0 01.141-.3c.125-.188.328-.234.828-.25H29.7v5.3c0 .359 0 .438-.234.469h-.456s0 .078.172.078h2.391c.094 0 .172 0 .172-.078s0 0-.141 0h-.438c-.25 0-.3-.219-.328-.453s0-1.047 0-1.829v-3.548zm17.195 3.342c.891.875 1.923 1.985 2.454 2.5a.531.531 0 00.3.188.326.326 0 00.109-.266l.094-5.377c0-.469 0-.656.313-.719a.735.735 0 01.25 0h.156a.334.334 0 00-.2-.094h-1.86c-.125 0-.219 0-.219.094s0 0 .141 0a1.094 1.094 0 01.438 0c.219.078.3.234.3.766l.094 3.814c-.141-.141-1.235-1.36-1.813-1.938-1.25-1.235-2.532-2.626-2.642-2.735s-.219-.266-.313-.266-.109.125-.109.3l-.088 5.033c0 .75 0 .985-.266 1.063a1.656 1.656 0 01-.391 0h-.125a.292.292 0 00.188.078h1.923c.125 0 .2 0 .2-.078s0 0-.156 0a1.438 1.438 0 01-.438 0c-.172 0-.281-.281-.3-.953l-.094-3.564a45.962 45.962 0 002.016 2.157m-33.614-7.91v-1.938c0-.266.109-.531.344-.531h.219s.109 0 .109-.078 0-.078-.172-.078h-2.22c-.125 0-.188 0-.188.078s0 .078.141.078h.328c.281 0 .359.2.359.485v1.813a.3.3 0 01-.172.313 1.86 1.86 0 01-.719.094 2.954 2.954 0 01-2.953-3.129 2.485 2.485 0 01.782-2.079 2.423 2.423 0 011.7-.625 2.735 2.735 0 011.891.656 1.313 1.313 0 01.3.719s0 .109.078.109.094 0 .094-.188a10.831 10.831 0 010-1.391s0-.094-.125-.109a3.313 3.313 0 01-.672-.094 11.192 11.192 0 00-1.563-.125 4.2 4.2 0 00-2.3.547 3.2 3.2 0 00-1.561 2.78c.2 2.391 2.063 3.345 4.142 3.345a4.689 4.689 0 002.048-.391c.109 0 .109-.078.109-.3m-2.11-12.8c-1.25-1.235-2.548-2.626-2.642-2.735s-.219-.266-.313-.266-.109.125-.109.3v5.037c0 .75 0 1-.266 1.063a1.672 1.672 0 01-.391 0h-.124s0 .078.188.078h1.891c.125 0 .188 0 .188-.078s0 0-.141 0a1.563 1.563 0 01-.438 0c-.172 0-.281-.281-.3-.938l-.094-3.595c.141.156 1.094 1.219 2.016 2.141l2.516 2.5c.094.094.188.188.281.188s.109-.078.109-.266l.078-5.361c0-.485.078-.656.328-.735h.25c.094 0 .156 0 .156-.078s-.094 0-.2 0H14.13s0 .078.125.078a1.563 1.563 0 01.453 0c.2.078.281.25.3.766l.078 3.814c-.141-.125-1.282-1.36-1.86-1.938M66.429 2.751L69.946.109H3.845l3.533 2.642zM20.21 23.555h-1.563l.782-2.094.891 2m1.78 1.563c-.547-1.3-1.907-4.689-2.11-5.236-.094-.188-.141-.266-.219-.266s-.141.094-.234.344L17.4 25.209c-.172.422-.328.7-.719.766H16.3s0 .078.172.078h1.907q.141 0 .141-.094h-.25c-.266 0-.344-.109-.344-.266a1.344 1.344 0 01.125-.516l.453-1.219h1.816a.078.078 0 01.078 0l.688 1.813a.141.141 0 010 .188c-.094 0-.125 0-.125.078s.109 0 .266 0h1.563c.266 0 .391 0 .391-.094s0 0-.109 0h-.344c-.188 0-.438-.156-.75-.922m-6.69 20.069a4.126 4.126 0 002.86.922 4.376 4.376 0 001.469-.2c.141 0 .172-.094.219-.25a8.769 8.769 0 00.188-1.125s0-.125-.078-.125 0 0-.109.172a1.313 1.313 0 01-.3.563c-.328.391-.719.469-1.485.469a2.8 2.8 0 01-2.61-3.017 2.876 2.876 0 01.782-2.22 2.094 2.094 0 011.563-.516 2.345 2.345 0 011.657.516 1.3 1.3 0 01.344.8v.172s.094 0 .094-.188v-1.394c0-.078 0-.094-.125-.094s-.531-.109-.86-.156a7.908 7.908 0 00-1.157 0 3.548 3.548 0 00-2.626.907 3.126 3.126 0 00-1 2.329 3.235 3.235 0 001.047 2.516M26.9 20.303c.75 0 .985.25 1 .469v.094c0 .141 0 .172.094.172s0 0 .078-.125a4.273 4.273 0 000-1v-.172a3.861 3.861 0 01-.813.078h-4.126c-.219 0-.3-.109-.375-.109s-.078 0-.094.156-.188.844-.188.985v.141s.078 0 .094-.109a1.172 1.172 0 01.141-.3c.141-.188.344-.219.828-.25h1.266v5.316c0 .359-.078.422-.25.453a.875.875 0 01-.313 0h-.125s0 .094.156.094H26.7c.094 0 .156 0 .156-.094s0 0-.141 0a2.079 2.079 0 01-.438 0c-.25 0-.3-.219-.328-.453s0-1.032 0-1.813v-3.642zm103.785 3.127l-4.08-5.58v5.58h-1.828v-8.55h1.876l3.97 5.377V14.88h1.813v8.55zm7.535-2.001v-2.172a1.782 1.782 0 00-1.391-.719 1.563 1.563 0 00-1.563 1.8 1.563 1.563 0 001.563 1.8 1.719 1.719 0 001.391-.7m0 2v-.8a2.36 2.36 0 01-1.907.953c-1.563 0-2.751-1.172-2.751-3.251a2.86 2.86 0 012.751-3.251 2.36 2.36 0 011.907.953v-.735h1.563v6.252zm3.469-1.556v-3.22h-1.016v-1.36h1.032v-1.75h1.563v1.751h1.25v1.422h-1.25v2.782c0 .406.2.688.563.688a.782.782 0 00.563-.188l.344 1.25a1.985 1.985 0 01-1.36.391 1.563 1.563 0 01-1.735-1.7m3.908-4.645h1.563v6.252h-1.563zm-.188-1.704a.969.969 0 11.969.969.969.969 0 01-.969-.969m7.815 4.736a1.563 1.563 0 10-1.563 1.563 1.563 1.563 0 001.563-1.563m-4.861 0a3.282 3.282 0 113.282 3.278 3.282 3.282 0 01-3.282-3.282m11.785 3.099v-3.736a1 1 0 00-1.141-1.153 1.8 1.8 0 00-1.407.719v4.173h-1.563v-6.131h1.563v.8a2.845 2.845 0 012.157-.953 1.813 1.813 0 012.032 1.969v4.377zm7.378-2.001v-2.172a1.813 1.813 0 00-1.407-.719 1.563 1.563 0 00-1.563 1.8 1.563 1.563 0 001.563 1.8 1.751 1.751 0 001.407-.7m0 2v-.8a2.391 2.391 0 01-1.923.953c-1.563 0-2.735-1.172-2.735-3.251s1.157-3.251 2.735-3.251a2.391 2.391 0 011.923.953v-.735h1.563v6.252zm3.125-1.556v-7h1.563v6.565c0 .406.2.688.563.688a.782.782 0 00.563-.188l.344 1.25a2 2 0 01-1.36.391 1.563 1.563 0 01-1.735-1.7m6.878 1.542v-8.55h1.844v6.956h3.611v1.594zm6.517-6.127h1.564v6.252h-1.563zm-.156-1.64a.969.969 0 11.969.969.953.953 0 01-.969-.969m6.315 6.467a1.563 1.563 0 001.563-1.8 1.563 1.563 0 00-1.563-1.8 1.813 1.813 0 00-1.407.719v2.188a1.782 1.782 0 001.407.688m-3.126 1.305v-8.55h1.563v3.126a2.345 2.345 0 011.907-.953c1.563 0 2.735 1.235 2.735 3.251s-1.016 3.251-2.579 3.251a2.36 2.36 0 01-1.907-.953v.8zm7.471 0v-6.127h1.563v.828a2.751 2.751 0 011.985-.985v1.563a1.922 1.922 0 00-.453 0 2.032 2.032 0 00-1.563.7v4.08zm8.753-2.001v-2.172a1.813 1.813 0 00-1.407-.719 1.563 1.563 0 00-1.563 1.8 1.563 1.563 0 001.563 1.8 1.751 1.751 0 001.407-.7m0 2v-.8a2.391 2.391 0 01-1.923.953c-1.563 0-2.735-1.172-2.735-3.251s1.157-3.251 2.735-3.251a2.391 2.391 0 011.923.953v-.735h1.563v6.252zm3.126-.008v-6.127h1.563v.828a2.735 2.735 0 011.969-.985v1.563a1.719 1.719 0 00-.438 0 2.032 2.032 0 00-1.563.7v4.08zm4.408 1.594l.735-1.172a2.407 2.407 0 001.86.766 1.563 1.563 0 001.657-1.563v-.641a2.892 2.892 0 01-2.173.938 1.782 1.782 0 01-2-1.954v-4.095h1.563v3.486a1 1 0 001.141 1.141 1.813 1.813 0 001.407-.7v-3.927h1.641v5.783a2.907 2.907 0 01-3.3 2.923 3.751 3.751 0 01-2.595-.922m-81.464 7.221a1.563 1.563 0 10-1.563 1.563 1.563 1.563 0 001.563-1.563m-4.861 0a3.282 3.282 0 113.282 3.251 3.126 3.126 0 01-3.282-3.251m8.081 3.094v-4.689h-1.016v-1.422h1.016v-.266a2.016 2.016 0 012.079-2.345 2.579 2.579 0 011.188.25l-.344 1.2a.969.969 0 00-.516-.125c-.469 0-.766.3-.766.891v.266h1.25v1.422h-1.25v4.696zm6.439-1.206l1-1.422a3.8 3.8 0 002.72 1.172c1.016 0 1.563-.453 1.563-.953 0-1.485-4.924-.453-4.924-3.673 0-1.422 1.235-2.595 3.251-2.595a4.689 4.689 0 013.33 1.191l-1.016 1.36a3.658 3.658 0 00-2.485-.938c-.766 0-1.2.328-1.2.844 0 1.344 4.908.438 4.908 3.626 0 1.563-1.125 2.751-3.423 2.751a4.924 4.924 0 01-3.642-1.36m7.702-1.891a3.126 3.126 0 013.279-3.251 2.892 2.892 0 012.454 1.11l-1.063 1a1.563 1.563 0 00-1.313-.656 1.8 1.8 0 000 3.595 1.563 1.563 0 001.313-.672l1.063 1a2.892 2.892 0 01-2.454 1.125 3.126 3.126 0 01-3.282-3.251m11.226 0a1.563 1.563 0 10-1.563 1.563 1.563 1.563 0 001.563-1.563m-4.861 0a3.282 3.282 0 113.282 3.251 3.126 3.126 0 01-3.282-3.251m7.987 1.547v-3.22h-1.032v-1.422h1.032v-1.688h1.563v1.688h1.25v1.422h-1.25v2.782c0 .391.2.688.563.688a.782.782 0 00.563-.188l.344 1.235a1.969 1.969 0 01-1.36.406 1.563 1.563 0 01-1.672-1.7m3.969-.003v-7h1.563v6.565c0 .391.2.688.563.688a.781.781 0 00.563-.188l.344 1.235a2 2 0 01-1.36.406 1.563 1.563 0 01-1.735-1.7m8.065-.459V31.23a1.735 1.735 0 00-1.391-.719 1.563 1.563 0 00-1.563 1.8 1.563 1.563 0 001.563 1.8 1.766 1.766 0 001.391-.7m0 2v-.8a2.345 2.345 0 01-1.907.953c-1.563 0-2.735-1.188-2.735-3.251s1.157-3.251 2.735-3.251a2.36 2.36 0 011.907.953v-.8h1.568v6.252zm7.378-.008v-3.752a1 1 0 00-1.141-1.142 1.8 1.8 0 00-1.407.719v4.173h-1.563v-6.25h1.563v.8a2.876 2.876 0 012.173-.953 1.8 1.8 0 012.016 1.969v4.377zm7.44-2.001v-2.188a1.766 1.766 0 00-1.391-.7 1.563 1.563 0 00-1.563 1.8 1.563 1.563 0 001.563 1.8 1.766 1.766 0 001.391-.7m0 2v-.8a2.36 2.36 0 01-1.907.953c-1.563 0-2.751-1.188-2.751-3.251a2.86 2.86 0 012.751-3.251 2.345 2.345 0 011.907.953v-3.134h1.563v8.55zm-63.257 10.539v-5.986h.75v5.314h2.78v.672zm6.193-3.892a1.454 1.454 0 00-1.422 1.438h2.845a1.391 1.391 0 00-1.423-1.438m-2.126 1.719a2.157 2.157 0 012.141-2.266 2.094 2.094 0 012.126 2.36v.172h-3.551a1.563 1.563 0 001.563 1.563 1.922 1.922 0 001.36-.547l.313.438a2.407 2.407 0 01-1.719.672 2.157 2.157 0 01-2.22-2.282m8.426.875v-1.954a1.563 1.563 0 00-1.282-.7c-.891 0-1.407.719-1.407 1.688s.516 1.657 1.407 1.657a1.563 1.563 0 001.282-.688m0 1.188v-.644a1.8 1.8 0 01-1.454.75 2 2 0 01-1.938-2.188 2.016 2.016 0 011.938-2.282 1.766 1.766 0 011.454.766v-.656h.688v4.33zm4-.518c.875 0 1.391-.7 1.391-1.657s-.516-1.688-1.391-1.688a1.563 1.563 0 00-1.3.7v1.974a1.563 1.563 0 001.3.672m-1.923.514v-5.986h.672v2.345a1.766 1.766 0 011.454-.766 2.016 2.016 0 011.891 2.329c0 1.407-.8 2.266-1.938 2.266a1.8 1.8 0 01-1.454-.75v.641zm8.051 0v-2.86c0-.766-.391-.985-.985-.985a1.672 1.672 0 00-1.266.672v3.127h-.688v-5.94h.688v2.345a2.032 2.032 0 011.563-.735 1.219 1.219 0 011.391 1.375v3.126zm5.157-1.188v-1.954a1.563 1.563 0 00-1.3-.7c-.875 0-1.391.719-1.391 1.688s.516 1.657 1.391 1.657a1.563 1.563 0 001.3-.688m0 1.188v-.641a1.844 1.844 0 01-1.469.75c-1.125 0-1.923-.86-1.923-2.266s.8-2.282 1.923-2.282a1.782 1.782 0 011.469.766v-.659h.672v4.33zm2.016-.003v-4.329h.672v.688a1.891 1.891 0 011.454-.8v.7h-.266a1.563 1.563 0 00-1.188.7v3.126zm2.97-.906v-5.08h.672v4.939c0 .328.141.547.438.547a.578.578 0 00.453-.188l.2.516a1.172 1.172 0 01-.813.281c-.641 0-.953-.375-.953-1.016m5.552-.281v-1.954a1.563 1.563 0 00-1.3-.7c-.875 0-1.391.719-1.391 1.688s.516 1.657 1.391 1.657a1.563 1.563 0 001.3-.688m0 1.188v-.641a1.813 1.813 0 01-1.454.75c-1.141 0-1.938-.86-1.938-2.266a2.016 2.016 0 011.938-2.282 1.766 1.766 0 011.454.766v-.659h.672v4.33zm4.955-.003v-2.829c0-.782-.391-1.016-.969-1.016a1.735 1.735 0 00-1.3.672v3.126h-.672v-4.283h.672v.688a2.126 2.126 0 011.563-.735 1.235 1.235 0 011.375 1.391v3.048zm4.954 0v-2.829c0-.782-.391-1.016-.969-1.016a1.688 1.688 0 00-1.282.672v3.126h-.688v-4.283h.688v.688a2.063 2.063 0 011.563-.735 1.235 1.235 0 011.375 1.391v3.048zm8.613 0l-3.486-4.786v4.783h-.75v-5.983h.766l3.439 4.673v-4.673h.75v5.986zm4.142-4.986l-1.563-1.3h.7l1.329 1.3zm1.094 3.8v-1.955a1.563 1.563 0 00-1.3-.7c-.875 0-1.407.719-1.407 1.688a1.469 1.469 0 001.407 1.657 1.563 1.563 0 001.3-.688m0 1.188v-.641a1.844 1.844 0 01-1.469.75c-1.125 0-1.923-.86-1.923-2.266s.8-2.282 1.923-2.282a1.8 1.8 0 011.469.766v-.656h.672v4.33zm2.016-4.333h.672v4.33h-.672zm-.109-1.079a.453.453 0 11.453.453.453.453 0 01-.453-.453m1.767 4.893l.344-.485a1.907 1.907 0 001.422.625c.656 0 1.032-.313 1.032-.75 0-1.047-2.688-.406-2.688-2 0-.688.578-1.25 1.563-1.25a2.188 2.188 0 011.563.625l-.313.469a1.7 1.7 0 00-1.3-.547c-.594 0-.953.3-.953.672 0 .953 2.673.328 2.673 2.016 0 .735-.578 1.313-1.688 1.313a2.282 2.282 0 01-1.751-.688m6.504-3.377a1.438 1.438 0 00-1.407 1.438h2.845a1.407 1.407 0 00-1.438-1.438m-2.126 1.719a2.173 2.173 0 012.141-2.266 2.094 2.094 0 012.079 2.36v.172h-3.5a1.563 1.563 0 001.563 1.563 1.891 1.891 0 001.344-.547l.313.438a2.407 2.407 0 01-1.719.672 2.157 2.157 0 01-2.219-2.282m8.454.875v-1.954a1.563 1.563 0 00-1.3-.7c-.875 0-1.407.719-1.407 1.688a1.469 1.469 0 001.407 1.657 1.563 1.563 0 001.3-.688m0 1.188v-.641a1.844 1.844 0 01-1.469.75 2 2 0 01-1.938-2.188 2.016 2.016 0 012.016-2.36 1.829 1.829 0 011.469.766v-.659h.672v4.33zm4.954-.003v-2.829c0-.782-.406-1.016-.985-1.016a1.7 1.7 0 00-1.282.672v3.126h-.672v-4.283h.672v.688a2.063 2.063 0 011.563-.735 1.219 1.219 0 011.375 1.391v3.048zm2.158-.906v-2.829h-.688v-.594h.719v-1.188h.672v1.188h.875v.594h-.875v2.688c0 .328.141.547.438.547a.61.61 0 00.453-.188l.2.516a1.141 1.141 0 01-.813.281c-.641 0-.953-.375-.953-1.016m5.615-.281v-1.954a1.563 1.563 0 00-1.3-.7c-.875 0-1.407.719-1.407 1.688a1.469 1.469 0 001.407 1.657 1.563 1.563 0 001.3-.688m0 1.188v-.641a1.844 1.844 0 01-1.469.75c-1.125 0-1.923-.86-1.923-2.266s.8-2.282 1.923-2.282a1.829 1.829 0 011.469.766v-.659h.672v4.33zm-88.234 9.407v-2.841c0-.766-.406-1-.985-1a1.657 1.657 0 00-1.282.672v3.126h-.672v-4.298h.672v.672a2.188 2.188 0 011.563-.735 1.235 1.235 0 011.375 1.407v3.126zm5.158-1.188v-1.954a1.563 1.563 0 00-1.3-.7c-.875 0-1.391.719-1.391 1.672s.516 1.672 1.391 1.672a1.563 1.563 0 001.3-.688m0 1.188v-.657a1.86 1.86 0 01-1.469.766c-1.125 0-1.923-.875-1.923-2.282a2.012 2.012 0 011.985-2.284 1.829 1.829 0 011.469.766v-.656h.672v4.345zm7.284-.003v-2.86c0-.766-.391-.985-.985-.985a1.563 1.563 0 00-1.266.672v3.127h-.672v-5.94h.672v2.313a2.079 2.079 0 011.563-.735 1.235 1.235 0 011.391 1.391v3.126zm1.61-2.469h2.157v.594h-2.157zm5.33-2.767l1.282 3.235h-2.5zm-.453-.75l-2.423 5.971h.86l.531-1.329h3.049l.516 1.329h.86l-2.409-5.971zm4.126 5.08v-5.08h.672V54.3c0 .328.156.563.438.563a.61.61 0 00.453-.188l.2.516a1.11 1.11 0 01-.8.266.891.891 0 01-.969-1m4.397.358c.875 0 1.391-.7 1.391-1.672s-.516-1.672-1.391-1.672a1.563 1.563 0 00-1.3.7v1.954a1.563 1.563 0 001.3.688m-1.969.5v-5.937h.672v2.313a1.813 1.813 0 011.454-.766 2.016 2.016 0 011.938 2.329c0 1.407-.8 2.282-1.938 2.282a1.813 1.813 0 01-1.454-.766v.656zm8.3-1.138v-1.954a1.563 1.563 0 00-1.3-.7c-.875 0-1.391.719-1.391 1.672s.516 1.672 1.391 1.672a1.563 1.563 0 001.3-.688m0 1.188v-.657a1.86 1.86 0 01-1.469.766c-1.125 0-1.923-.875-1.923-2.282s.8-2.282 1.923-2.282a1.844 1.844 0 011.469.766v-.656h.672v4.345zm-52.455-34.014l12.285 7.081v-13.5l-12.285-7.101z"/><path class="a" d="M108.879 35.544l12.285-7.1-12.345-7.124-12.27 7.1z"/></svg>