<svg xmlns="http://www.w3.org/2000/svg" width="120.01" height="47.704"><g id="Group_1684" data-name="Group 1684" transform="translate(-96.549 -7.831)" fill="#fff"><path id="Path_1164" data-name="Path 1164" d="M85.738 18l-4.08-5.58V18H79.83V9.45h1.876l3.97 5.377V9.45h1.813V18z" transform="translate(44.947 5.43)"/><path id="Path_1165" data-name="Path 1165" d="M90.118 15.205v-2.172a1.782 1.782 0 00-1.391-.719 1.563 1.563 0 00-1.563 1.8 1.563 1.563 0 001.563 1.8 1.719 1.719 0 001.391-.7m0 2v-.8a2.36 2.36 0 01-1.907.953c-1.563 0-2.751-1.172-2.751-3.251a2.86 2.86 0 012.751-3.251 2.36 2.36 0 011.907.953v-.735h1.563v6.252z" transform="translate(48.102 6.224)"/><path id="Path_1166" data-name="Path 1166" d="M91.016 16.21v-3.22H90v-1.36h1.032V9.88h1.563v1.751h1.25v1.422h-1.25v2.782c0 .406.2.688.563.688a.782.782 0 00.563-.188l.344 1.25a1.985 1.985 0 01-1.36.391 1.563 1.563 0 01-1.735-1.7" transform="translate(50.673 5.672)"/><path id="Path_1167" data-name="Path 1167" d="M93.188 11.963h1.563v6.252h-1.563zM93 10.259a.969.969 0 11.969.969.969.969 0 01-.969-.969" transform="translate(52.363 5.34)"/><path id="Path_1168" data-name="Path 1168" d="M99.751 14.122a1.563 1.563 0 10-1.563 1.563 1.563 1.563 0 001.563-1.563m-4.861 0a3.282 3.282 0 113.282 3.278 3.282 3.282 0 01-3.282-3.282" transform="translate(53.427 6.213)"/><path id="Path_1169" data-name="Path 1169" d="M103.911 17.189v-3.736a1 1 0 00-1.141-1.153 1.8 1.8 0 00-1.407.719v4.173H99.8v-6.131h1.563v.8a2.845 2.845 0 012.157-.953 1.813 1.813 0 012.032 1.969v4.377z" transform="translate(56.191 6.241)"/><path id="Path_1170" data-name="Path 1170" d="M108.828 15.205v-2.172a1.813 1.813 0 00-1.407-.719 1.563 1.563 0 00-1.563 1.8 1.563 1.563 0 001.563 1.8 1.751 1.751 0 001.407-.7m0 2v-.8a2.391 2.391 0 01-1.923.953c-1.563 0-2.735-1.172-2.735-3.251s1.157-3.251 2.735-3.251a2.391 2.391 0 011.923.953v-.735h1.563v6.252z" transform="translate(58.652 6.224)"/><path id="Path_1171" data-name="Path 1171" d="M109.175 16.452v-7h1.563v6.565c0 .406.2.688.563.688a.782.782 0 00.563-.188l.344 1.25a2 2 0 01-1.36.391 1.563 1.563 0 01-1.735-1.7" transform="translate(61.43 5.43)"/><path id="Path_1172" data-name="Path 1172" d="M113.51 18V9.45h1.844v6.956h3.611V18z" transform="translate(63.911 5.43)"/><path id="Path_1173" data-name="Path 1173" d="M117.736 11.94h1.564v6.252h-1.563zm-.156-1.64a.969.969 0 11.969.969.953.953 0 01-.969-.969" transform="translate(66.202 5.363)"/><path id="Path_1174" data-name="Path 1174" d="M122.746 16.7a1.563 1.563 0 001.563-1.8 1.563 1.563 0 00-1.563-1.8 1.813 1.813 0 00-1.407.719v2.188a1.782 1.782 0 001.407.688M119.62 18V9.45h1.563v3.126a2.345 2.345 0 011.907-.953c1.563 0 2.735 1.235 2.735 3.251s-1.016 3.251-2.579 3.251a2.36 2.36 0 01-1.907-.953v.8z" transform="translate(67.351 5.43)"/><path id="Path_1175" data-name="Path 1175" d="M124.4 17.183v-6.127h1.563v.828a2.751 2.751 0 011.985-.985v1.563a1.922 1.922 0 00-.453 0 2.032 2.032 0 00-1.563.7v4.08z" transform="translate(70.042 6.247)"/><path id="Path_1176" data-name="Path 1176" d="M131.678 15.205v-2.172a1.813 1.813 0 00-1.407-.719 1.563 1.563 0 00-1.563 1.8 1.563 1.563 0 001.563 1.8 1.751 1.751 0 001.407-.7m0 2v-.8a2.391 2.391 0 01-1.923.953c-1.563 0-2.735-1.172-2.735-3.251s1.157-3.251 2.735-3.251a2.391 2.391 0 011.923.953v-.735h1.563v6.252z" transform="translate(71.517 6.224)"/><path id="Path_1177" data-name="Path 1177" d="M132 17.183v-6.127h1.563v.828a2.735 2.735 0 011.969-.985v1.563a1.719 1.719 0 00-.438 0 2.032 2.032 0 00-1.563.7v4.08z" transform="translate(74.321 6.247)"/><path id="Path_1178" data-name="Path 1178" d="M134.843 18.721l.735-1.172a2.407 2.407 0 001.86.766 1.563 1.563 0 001.657-1.563v-.641a2.892 2.892 0 01-2.173.938 1.782 1.782 0 01-2-1.954V11h1.563v3.486a1 1 0 001.141 1.141 1.813 1.813 0 001.407-.7V11h1.641v5.783a2.907 2.907 0 01-3.3 2.923 3.751 3.751 0 01-2.595-.922" transform="translate(75.886 6.303)"/><path id="Path_1179" data-name="Path 1179" d="M84.412 21.794a1.563 1.563 0 10-1.563 1.563 1.563 1.563 0 001.563-1.563m-4.861 0a3.282 3.282 0 113.282 3.251 3.126 3.126 0 01-3.282-3.251" transform="translate(44.789 10.514)"/><path id="Path_1180" data-name="Path 1180" d="M85.086 25.722v-4.689H84.07v-1.422h1.016v-.266A2.016 2.016 0 0187.165 17a2.579 2.579 0 011.188.25l-.344 1.2a.969.969 0 00-.516-.125c-.469 0-.766.3-.766.891v.266h1.25v1.422h-1.25V25.6z" transform="translate(47.335 9.68)"/><path id="Path_1181" data-name="Path 1181" d="M88.84 24.5l1-1.422a3.8 3.8 0 002.72 1.172c1.016 0 1.563-.453 1.563-.953 0-1.485-4.924-.453-4.924-3.673 0-1.422 1.235-2.595 3.251-2.595a4.689 4.689 0 013.33 1.191l-1.016 1.36a3.658 3.658 0 00-2.485-.938c-.766 0-1.2.328-1.2.844 0 1.344 4.908.438 4.908 3.626 0 1.563-1.125 2.751-3.423 2.751a4.924 4.924 0 01-3.642-1.36" transform="translate(50.02 9.696)"/><path id="Path_1182" data-name="Path 1182" d="M93.821 21.773a3.126 3.126 0 013.279-3.251 2.892 2.892 0 012.454 1.11l-1.063 1a1.563 1.563 0 00-1.313-.656 1.8 1.8 0 000 3.595 1.563 1.563 0 001.313-.672l1.063 1a2.892 2.892 0 01-2.454 1.125 3.126 3.126 0 01-3.282-3.251" transform="translate(52.823 10.535)"/><path id="Path_1183" data-name="Path 1183" d="M102.752 21.794a1.563 1.563 0 10-1.563 1.563 1.563 1.563 0 001.563-1.563m-4.861 0a3.282 3.282 0 113.282 3.251 3.126 3.126 0 01-3.282-3.251" transform="translate(55.115 10.514)"/><path id="Path_1184" data-name="Path 1184" d="M103.372 23.87v-3.22h-1.032v-1.422h1.032V17.54h1.563v1.688h1.25v1.422h-1.25v2.782c0 .391.2.688.563.688a.782.782 0 00.563-.188l.344 1.235a1.969 1.969 0 01-1.36.406 1.563 1.563 0 01-1.672-1.7" transform="translate(57.621 9.985)"/><path id="Path_1185" data-name="Path 1185" d="M105.565 24.112v-7h1.563v6.565c0 .391.2.688.563.688a.781.781 0 00.563-.188l.344 1.235a2 2 0 01-1.36.406 1.563 1.563 0 01-1.735-1.7" transform="translate(59.398 9.743)"/><path id="Path_1186" data-name="Path 1186" d="M112.332 22.865v-2.172a1.735 1.735 0 00-1.391-.719 1.563 1.563 0 00-1.563 1.8 1.563 1.563 0 001.563 1.8 1.766 1.766 0 001.391-.7m0 2v-.8a2.345 2.345 0 01-1.907.953c-1.563 0-2.735-1.188-2.735-3.251s1.157-3.251 2.735-3.251a2.36 2.36 0 011.907.953v-.8h1.568v6.252z" transform="translate(60.634 10.537)"/><path id="Path_1187" data-name="Path 1187" d="M116.861 24.894v-3.752A1 1 0 00115.72 20a1.8 1.8 0 00-1.407.719v4.173h-1.563v-6.25h1.563v.8a2.876 2.876 0 012.173-.953 1.8 1.8 0 012.016 1.969v4.377z" transform="translate(63.483 10.509)"/><path id="Path_1188" data-name="Path 1188" d="M121.828 23.648V21.46a1.766 1.766 0 00-1.391-.7 1.563 1.563 0 00-1.563 1.8 1.563 1.563 0 001.563 1.8 1.766 1.766 0 001.391-.7m0 2v-.8a2.36 2.36 0 01-1.907.953c-1.563 0-2.751-1.188-2.751-3.251a2.86 2.86 0 012.751-3.251 2.345 2.345 0 011.907.953V17.13h1.563v8.55z" transform="translate(65.956 9.754)"/><path id="Path_1189" data-name="Path 1189" d="M79.67 31.486V25.5h.75v5.314h2.78v.672z" transform="translate(44.857 14.467)"/><path id="Path_1190" data-name="Path 1190" d="M84.4 27.037a1.454 1.454 0 00-1.422 1.438h2.845a1.391 1.391 0 00-1.423-1.438m-2.126 1.719a2.157 2.157 0 012.141-2.266 2.094 2.094 0 012.126 2.36v.172H82.99a1.563 1.563 0 001.563 1.563 1.922 1.922 0 001.36-.547l.313.438a2.407 2.407 0 01-1.719.672 2.157 2.157 0 01-2.22-2.282" transform="translate(46.32 15.024)"/><path id="Path_1191" data-name="Path 1191" d="M88.9 29.713v-1.954a1.563 1.563 0 00-1.282-.7c-.891 0-1.407.719-1.407 1.688s.516 1.657 1.407 1.657a1.563 1.563 0 001.282-.688m0 1.188v-.644a1.8 1.8 0 01-1.454.75 2 2 0 01-1.938-2.188 2.016 2.016 0 011.938-2.282 1.766 1.766 0 011.454.766v-.656h.688v4.33z" transform="translate(48.133 15.052)"/><path id="Path_1192" data-name="Path 1192" d="M90.923 30.971c.875 0 1.391-.7 1.391-1.657s-.516-1.688-1.391-1.688a1.563 1.563 0 00-1.3.7V30.3a1.563 1.563 0 001.3.672M89 31.486V25.5h.672v2.345a1.766 1.766 0 011.454-.766 2.016 2.016 0 011.891 2.329c0 1.407-.8 2.266-1.938 2.266a1.8 1.8 0 01-1.454-.75v.641z" transform="translate(50.11 14.467)"/><path id="Path_1193" data-name="Path 1193" d="M95.209 31.486v-2.86c0-.766-.391-.985-.985-.985a1.672 1.672 0 00-1.266.672v3.127h-.688V25.5h.688v2.345a2.032 2.032 0 011.563-.735 1.219 1.219 0 011.391 1.375v3.126z" transform="translate(51.952 14.467)"/><path id="Path_1194" data-name="Path 1194" d="M98.672 29.741v-1.954a1.563 1.563 0 00-1.3-.7c-.875 0-1.391.719-1.391 1.688s.516 1.657 1.391 1.657a1.563 1.563 0 001.3-.688m0 1.188v-.641a1.844 1.844 0 01-1.469.75c-1.125 0-1.923-.86-1.923-2.266s.8-2.282 1.923-2.282a1.782 1.782 0 011.469.766V26.6h.672v4.33z" transform="translate(53.646 15.024)"/><path id="Path_1195" data-name="Path 1195" d="M98.74 30.929V26.6h.672v.688a1.891 1.891 0 011.454-.8v.7h-.266a1.563 1.563 0 00-1.188.7v3.126z" transform="translate(55.594 15.024)"/><path id="Path_1196" data-name="Path 1196" d="M100.64 30.58V25.5h.672v4.939c0 .328.141.547.438.547a.578.578 0 00.453-.188l.2.516a1.172 1.172 0 01-.813.281c-.641 0-.953-.375-.953-1.016" transform="translate(56.664 14.467)"/><path id="Path_1197" data-name="Path 1197" d="M105.418 29.741v-1.954a1.563 1.563 0 00-1.3-.7c-.875 0-1.391.719-1.391 1.688s.516 1.657 1.391 1.657a1.563 1.563 0 001.3-.688m0 1.188v-.641a1.813 1.813 0 01-1.454.75c-1.141 0-1.938-.86-1.938-2.266a2.016 2.016 0 011.938-2.282 1.766 1.766 0 011.454.766V26.6h.672v4.33z" transform="translate(57.435 15.024)"/><path id="Path_1198" data-name="Path 1198" d="M108.419 30.91v-2.829c0-.782-.391-1.016-.969-1.016a1.735 1.735 0 00-1.3.672v3.126h-.672V26.58h.672v.688a2.126 2.126 0 011.563-.735 1.235 1.235 0 011.375 1.391v3.048z" transform="translate(59.389 15.043)"/><path id="Path_1199" data-name="Path 1199" d="M111.588 30.91v-2.829c0-.782-.391-1.016-.969-1.016a1.688 1.688 0 00-1.282.672v3.126h-.688V26.58h.688v.688a2.063 2.063 0 011.563-.735 1.235 1.235 0 011.375 1.391v3.048z" transform="translate(61.174 15.043)"/><path id="Path_1200" data-name="Path 1200" d="M117.566 31.486L114.08 26.7v4.783h-.75V25.5h.766l3.439 4.673V25.5h.75v5.986z" transform="translate(63.809 14.467)"/><path id="Path_1201" data-name="Path 1201" d="M119.518 26.607l-1.563-1.3h.7l1.329 1.3zm1.094 3.8v-1.955a1.563 1.563 0 00-1.3-.7c-.875 0-1.407.719-1.407 1.688a1.469 1.469 0 001.407 1.657 1.563 1.563 0 001.3-.688m0 1.188v-.641a1.844 1.844 0 01-1.469.75c-1.125 0-1.923-.86-1.923-2.266s.8-2.282 1.923-2.282a1.8 1.8 0 011.469.766v-.656h.672v4.33z" transform="translate(65.999 14.36)"/><path id="Path_1202" data-name="Path 1202" d="M120.719 27.112h.672v4.33h-.672zm-.109-1.079a.453.453 0 11.453.453.453.453 0 01-.453-.453" transform="translate(67.908 14.512)"/><path id="Path_1203" data-name="Path 1203" d="M121.774 30.391l.344-.485a1.907 1.907 0 001.422.625c.656 0 1.032-.313 1.032-.75 0-1.047-2.688-.406-2.688-2 0-.688.578-1.25 1.563-1.25a2.188 2.188 0 011.563.625l-.313.469a1.7 1.7 0 00-1.3-.547c-.594 0-.953.3-.953.672 0 .953 2.673.328 2.673 2.016 0 .735-.578 1.313-1.688 1.313a2.282 2.282 0 01-1.751-.688" transform="translate(68.511 15.047)"/><path id="Path_1204" data-name="Path 1204" d="M126.607 27.037a1.438 1.438 0 00-1.407 1.438h2.845a1.407 1.407 0 00-1.438-1.438m-2.126 1.719a2.173 2.173 0 012.141-2.266 2.094 2.094 0 012.079 2.36v.172h-3.5a1.563 1.563 0 001.563 1.563 1.891 1.891 0 001.344-.547l.313.438a2.407 2.407 0 01-1.719.672 2.157 2.157 0 01-2.219-2.282" transform="translate(70.086 15.024)"/><path id="Path_1205" data-name="Path 1205" d="M131.128 29.741v-1.954a1.563 1.563 0 00-1.3-.7c-.875 0-1.407.719-1.407 1.688a1.469 1.469 0 001.407 1.657 1.563 1.563 0 001.3-.688m0 1.188v-.641a1.844 1.844 0 01-1.469.75 2 2 0 01-1.938-2.188 2.016 2.016 0 012.016-2.36 1.829 1.829 0 011.469.766V26.6h.672v4.33z" transform="translate(71.895 15.024)"/><path id="Path_1206" data-name="Path 1206" d="M134.118 30.911v-2.829c0-.782-.406-1.016-.985-1.016a1.7 1.7 0 00-1.282.672v3.126h-.672v-4.283h.672v.688a2.063 2.063 0 011.563-.735 1.219 1.219 0 011.375 1.391v3.048z" transform="translate(73.859 15.042)"/><path id="Path_1207" data-name="Path 1207" d="M134.688 30.411v-2.829H134v-.594h.719V25.8h.672v1.188h.875v.594h-.875v2.688c0 .328.141.547.438.547a.61.61 0 00.453-.188l.2.516a1.141 1.141 0 01-.813.281c-.641 0-.953-.375-.953-1.016" transform="translate(75.447 14.636)"/><path id="Path_1208" data-name="Path 1208" d="M139.272 29.741v-1.954a1.563 1.563 0 00-1.3-.7c-.875 0-1.407.719-1.407 1.688a1.469 1.469 0 001.407 1.657 1.563 1.563 0 001.3-.688m0 1.188v-.641a1.844 1.844 0 01-1.469.75c-1.125 0-1.923-.86-1.923-2.266s.8-2.282 1.923-2.282a1.829 1.829 0 011.469.766V26.6h.672v4.33z" transform="translate(76.506 15.024)"/><path id="Path_1209" data-name="Path 1209" d="M82.659 36.941V34.1c0-.766-.406-1-.985-1a1.657 1.657 0 00-1.282.672v3.126h-.672V32.6h.672v.672a2.188 2.188 0 011.563-.735 1.235 1.235 0 011.375 1.407v3.126z" transform="translate(44.885 18.422)"/><path id="Path_1210" data-name="Path 1210" d="M86.122 35.767v-1.954a1.563 1.563 0 00-1.3-.7c-.875 0-1.391.719-1.391 1.672s.516 1.672 1.391 1.672a1.563 1.563 0 001.3-.688m0 1.188V36.3a1.86 1.86 0 01-1.469.766c-1.125 0-1.923-.875-1.923-2.282a2.012 2.012 0 011.985-2.284 1.829 1.829 0 011.469.766v-.656h.672v4.345z" transform="translate(46.58 18.408)"/><path id="Path_1211" data-name="Path 1211" d="M90.613 37.506v-2.86c0-.766-.391-.985-.985-.985a1.563 1.563 0 00-1.266.672v3.127h-.672v-5.94h.672v2.313a2.079 2.079 0 011.563-.735 1.235 1.235 0 011.391 1.391v3.126z" transform="translate(49.373 17.856)"/><path id="Rectangle_47" data-name="Rectangle 47" transform="translate(141.596 52.893)" d="M0 0h2.157v.594H0z"/><path id="Path_1212" data-name="Path 1212" d="M95.036 32.27l1.282 3.235h-2.5zm-.453-.75l-2.423 5.971h.86l.531-1.329H96.6l.516 1.329h.86l-2.409-5.971z" transform="translate(51.89 17.856)"/><path id="Path_1213" data-name="Path 1213" d="M96.353 36.6v-5.08h.672v4.924c0 .328.156.563.438.563a.61.61 0 00.453-.188l.2.516a1.11 1.11 0 01-.8.266.891.891 0 01-.969-1" transform="translate(54.246 17.856)"/><path id="Path_1214" data-name="Path 1214" d="M99.869 36.959c.875 0 1.391-.7 1.391-1.672s-.516-1.672-1.391-1.672a1.563 1.563 0 00-1.3.7v1.954a1.563 1.563 0 001.3.688m-1.969.5V31.52h.672v2.313a1.813 1.813 0 011.454-.766 2.016 2.016 0 011.938 2.329c0 1.407-.8 2.282-1.938 2.282a1.813 1.813 0 01-1.454-.766v.656z" transform="translate(55.121 17.856)"/><path id="Path_1215" data-name="Path 1215" d="M104.432 35.767v-1.954a1.563 1.563 0 00-1.3-.7c-.875 0-1.391.719-1.391 1.672s.516 1.672 1.391 1.672a1.563 1.563 0 001.3-.688m0 1.188V36.3a1.86 1.86 0 01-1.469.766c-1.125 0-1.923-.875-1.923-2.282s.8-2.282 1.923-2.282a1.844 1.844 0 011.469.766v-.656h.672v4.345z" transform="translate(56.889 18.408)"/><path id="Path_1216" data-name="Path 1216" d="M69.65 18.46l12.285 7.081v-13.5L69.65 4.94z" transform="translate(39.216 2.891)"/><path id="Path_1217" data-name="Path 1217" d="M74.1 27.794l12.285-7.1L74.04 13.57l-12.27 7.1z" transform="translate(34.779 7.75)"/></g></svg>