<svg id="Group_1688" data-name="Group 1688" xmlns="http://www.w3.org/2000/svg" width="119.152" height="119.152"><path id="Path_1228" data-name="Path 1228" d="M64.181 5.1a59.576 59.576 0 1059.576 59.58A59.576 59.576 0 0064.181 5.1zm0 113.839a54.264 54.264 0 1154.264-54.264 54.326 54.326 0 01-54.264 54.268zm20.728-84.024a2.659 2.659 0 00-2.762.206l-19.484 14H41.315a2.657 2.657 0 00-2.656 2.656V77a2.657 2.657 0 002.656 2.656h19.808l21.025 15.1a2.656 2.656 0 004.205-2.158v-55.32a2.655 2.655 0 00-1.444-2.363zm-3.868 52.514L63.528 74.848a2.657 2.657 0 00-1.55-.5H43.97V54.431h19.548a2.657 2.657 0 001.55-.5l15.973-11.473z" transform="translate(-4.605 -5.104)" fill="#fff"/></svg>