<svg id="Group_1687" data-name="Group 1687" xmlns="http://www.w3.org/2000/svg" width="117.575" height="117.575"><path id="Path_1230" data-name="Path 1230" d="M38.458 77.86a2.392 2.392 0 01-1.165-.3A2.436 2.436 0 0136 75.4V29.981a2.461 2.461 0 013.81-2.045l34.417 22.71a2.453 2.453 0 010 4.1L39.81 77.456a2.444 2.444 0 01-1.352.4zm2.458-43.306v36.29l27.495-18.138-27.494-18.152z" transform="translate(8.011 6.097)" fill="#fff"/><path id="Path_1231" data-name="Path 1231" d="M58.788 4.9A53.889 53.889 0 114.9 58.788 53.959 53.959 0 0158.788 4.9zm0-4.9a58.788 58.788 0 1058.788 58.788A58.79 58.79 0 0058.788 0z" fill="#fff"/></svg>