<svg xmlns="http://www.w3.org/2000/svg" width="155.069" height="28.369"><g id="Group_1677" data-name="Group 1677" transform="translate(-469.081 -1584.544)" fill="#fff"><path id="Rectangle_41" data-name="Rectangle 41" transform="translate(517.629 1584.591)" d="M0 0h1.501v26.134H0z"/><path id="Path_1120" data-name="Path 1120" d="M244.44 17.3l16.709 9.8 16.724-9.8z" transform="translate(229.83 1567.244)"/><path id="Path_1121" data-name="Path 1121" d="M244.44 37.55l16.709-9.8 16.724 9.8z" transform="translate(229.83 1573.128)"/><path id="Path_1122" data-name="Path 1122" d="M241.12 19.2v20.21l16.615-10.11z" transform="translate(227.961 1568.314)"/><path id="Path_1123" data-name="Path 1123" d="M275.275 19.2v20.21L258.66 29.3z" transform="translate(237.836 1568.314)"/><path id="Path_1124" data-name="Path 1124" d="M373.988 30.168c-.922 0-1.485-.719-1.485-1.751s.563-1.751 1.485-1.751a1.735 1.735 0 011.36.7v2.094a1.735 1.735 0 01-1.36.7m2.5.891v-5.275h-1.141v.735a2.079 2.079 0 00-1.688-.86 2.438 2.438 0 00-2.345 2.767c0 1.751 1 2.767 2.345 2.767a2.125 2.125 0 001.688-.844v.719zm-10.019 0v-.672a2.157 2.157 0 001.688.844c1.36 0 2.345-1.016 2.345-2.767a2.438 2.438 0 00-2.344-2.767 2.079 2.079 0 00-1.688.86v-2.773h-1.157v7.284zm0-1.563v-2.117a1.735 1.735 0 011.36-.7 1.563 1.563 0 011.485 1.751c0 1.032-.578 1.751-1.485 1.751a1.719 1.719 0 01-1.36-.688m-2.86 1.7a1.563 1.563 0 001.079-.328l-.266-.875a.782.782 0 01-.516.188c-.328 0-.5-.266-.5-.625v-5.769h-1.157v6.049a1.219 1.219 0 001.36 1.36m-4.33-2.657h-2.626l1.313-3.47zm2.345 2.532l-2.86-7.284H357.2l-2.97 7.284h1.563l.531-1.407h3.345l.531 1.407zm-7.724-3.127h-2.626v.985h2.626zm-3.783 3.126v-3.8a1.563 1.563 0 00-1.751-1.563 2.5 2.5 0 00-1.86.844v-2.764h-1.141v7.284h1.141v-3.689a1.751 1.751 0 011.36-.7c.641 0 1.063.234 1.063 1.063v3.329zm-11.41-.891a1.766 1.766 0 010-3.5 1.735 1.735 0 011.36.7v2.094a1.735 1.735 0 01-1.36.7m2.5.891v-5.277h-1.137v.735a2.11 2.11 0 00-1.7-.86c-1.344 0-2.329 1.063-2.329 2.767s.985 2.767 2.329 2.767a2.157 2.157 0 001.7-.844v.719zm-6.252 0v-3.72a1.563 1.563 0 00-1.751-1.641 2.469 2.469 0 00-1.86.844v-.719h-1.157V31.1h1.157v-3.729a1.735 1.735 0 011.344-.7c.657 0 1.079.266 1.079 1.094v3.3zm-10.769.125c1.422 0 2.2-.7 2.2-1.641 0-2.094-3.126-1.407-3.126-2.329 0-.375.375-.656.969-.656a2.094 2.094 0 011.563.641l.485-.813a3 3 0 00-2.048-.735c-1.329 0-2.079.735-2.079 1.563 0 2.032 3.126 1.3 3.126 2.329 0 .406-.359.7-1.047.7a2.767 2.767 0 01-1.782-.735l-.516.813a3.126 3.126 0 002.251.828m-5.721-1.016a1.751 1.751 0 111.36-2.8v2.094a1.75 1.75 0 01-1.36.7m2.5.891v-5.236h-1.125v.735a2.11 2.11 0 00-1.7-.86c-1.36 0-2.329 1.063-2.329 2.767s.985 2.767 2.329 2.767a2.157 2.157 0 001.7-.8v.719zm-6.58.125a1.563 1.563 0 001.078-.328l-.281-.875a.7.7 0 01-.5.188c-.328 0-.5-.266-.5-.625v-2.72h.969v-1h-1.078v-1.439h-1.141v1.438h-.875v1h.875v3.048a1.2 1.2 0 001.344 1.36m-3.126 0a1.563 1.563 0 001.078-.328l-.266-.875a.781.781 0 01-.516.188c-.328 0-.5-.266-.5-.625v-5.768h-1.157v6.049a1.219 1.219 0 001.36 1.36m-5.221-1.016a1.766 1.766 0 010-3.5 1.7 1.7 0 011.344.7v2.094a1.7 1.7 0 01-1.344.7m2.5.891v-5.278h-1.084v.735a2.063 2.063 0 00-1.688-.86c-1.36 0-2.329 1.063-2.329 2.767s.985 2.767 2.329 2.767a2.11 2.11 0 001.688-.8v.719zm-6.252 0v-3.8a1.563 1.563 0 00-1.672-1.563 2.5 2.5 0 00-1.86.844v-2.759h-1.141v7.284h1.141v-3.689a1.751 1.751 0 011.36-.7c.641 0 1.063.234 1.063 1.063v3.329zm-8.572-1.011a1.7 1.7 0 010-3.376 1.75 1.75 0 011.36.7v1.973a1.751 1.751 0 01-1.36.7m-.2 3.126c1.282 0 2.7-.516 2.7-2.423v-5h-1.14v.735a2.11 2.11 0 00-1.688-.782c-1.36 0-2.329 1-2.329 2.7s.985 2.72 2.329 2.72a2.157 2.157 0 001.7-.891v.594a1.407 1.407 0 01-1.563 1.485 2.063 2.063 0 01-1.688-.688l-.531.828a3 3 0 002.22.8m-6.065-3.032a1.766 1.766 0 010-3.5 1.735 1.735 0 011.36.7v2.094a1.735 1.735 0 01-1.36.7m2.5.891v-5.33h-1.141v.735a2.11 2.11 0 00-1.688-.813c-1.344 0-2.329 1.063-2.329 2.767s1 2.767 2.329 2.767a2.157 2.157 0 001.7-.844v.719zm-6.245-5.274h-1.16v5.283h1.16zm-.578-.641a.719.719 0 00.719-.7.735.735 0 00-.719-.719.719.719 0 00-.7.719.7.7 0 00.7.7m-4.189 2.079h-1.766V24.9h1.766a1.157 1.157 0 110 2.313m2.61 3.845l-1.8-2.86a2.048 2.048 0 001.735-2.141 2.219 2.219 0 00-2.391-2.282h-3.127v7.284h1.266V28.34h1.282l1.563 2.72z" transform="translate(247.521 1570.881)"/><path id="Path_1125" data-name="Path 1125" d="M375.746 25.088a1.563 1.563 0 001.063-.344l-.266-.875a.781.781 0 01-.516.2c-.328 0-.5-.281-.5-.641v-2.764h1.078v-.984h-1.078V18.3h-1.141v1.438h-.875v.985h.875v3.048a1.219 1.219 0 001.36 1.375m-3.032-.141v-3.762a1.563 1.563 0 00-1.7-1.7 2.6 2.6 0 00-1.876.844v-.7h-1.141v5.267h1.141v-3.696a1.845 1.845 0 011.36-.7c.641 0 1.063.266 1.063 1.094v3.3zm-6.909-3.126h-2.985a1.469 1.469 0 011.485-1.391 1.438 1.438 0 011.563 1.391m-1.407 3.22a3.126 3.126 0 002.141-.782l-.531-.75a2.235 2.235 0 01-1.563.594 1.563 1.563 0 01-1.672-1.454h4.08v-.3a2.595 2.595 0 00-2.595-2.86 2.782 2.782 0 00.094 5.549m-3.876-.141v-3.822a1.407 1.407 0 00-1.563-1.563 2.251 2.251 0 00-1.8.969 1.375 1.375 0 00-1.438-.969 2.376 2.376 0 00-1.735.844v-.7h-1.157v5.267h1.141v-3.72a1.563 1.563 0 011.219-.7c.625 0 .875.391.875.953v3.439h1.141v-3.695a1.563 1.563 0 011.219-.7c.625 0 .875.391.875.953v3.439zm-9.05 0v-3.72a1.563 1.563 0 00-1.766-1.7 2.516 2.516 0 00-1.86.844v-.7h-1.157v5.267h1.157v-3.688a1.782 1.782 0 011.344-.7c.656 0 1.079.266 1.079 1.094v3.3zm-7.284 0V21.43a1.829 1.829 0 011.375-.7h.344v-1.144a2.282 2.282 0 00-1.719.907v-.766h-1.141v5.267zm-3.329-3.126h-2.986a1.469 1.469 0 011.485-1.391 1.438 1.438 0 011.563 1.391m-1.407 3.22a3.126 3.126 0 002.141-.782l-.531-.75a2.219 2.219 0 01-1.563.594 1.563 1.563 0 01-1.672-1.454h4v-.3a2.595 2.595 0 00-2.579-2.86 2.782 2.782 0 00.078 5.549m-5.127-.141l2.141-5.267H335.2l-1.562 3.962-1.563-3.954h-1.11l2.157 5.267zm-6.252-.875a1.563 1.563 0 01-1.563-1.766 1.563 1.563 0 113.032 0 1.563 1.563 0 01-1.563 1.766m0 1.016a2.782 2.782 0 10-2.7-2.782 2.642 2.642 0 002.7 2.782m-6.971 0c2.3 0 3.626-1.563 3.626-4.064h-3.97v1.125h2.595a2.126 2.126 0 01-2.141 1.8 2.642 2.642 0 010-5.267 2.345 2.345 0 011.891.969l1.047-.594a3.439 3.439 0 00-2.939-1.563 3.783 3.783 0 00-.109 7.549m-7.5-.141v-3.649a1.563 1.563 0 00-1.7-1.672 2.548 2.548 0 00-1.86.844v-2.72h-1.141v7.284h1.14v-3.689a1.8 1.8 0 011.36-.7c.641 0 1.063.25 1.063 1.079v3.314zm-8 .141c1.422 0 2.188-.719 2.188-1.657 0-2.094-3.126-1.391-3.126-2.329 0-.36.375-.656.985-.656a2.219 2.219 0 011.563.641l.469-.813a3.032 3.032 0 00-2.032-.735c-1.344 0-2.079.735-2.079 1.563 0 2.032 3.126 1.3 3.126 2.329 0 .422-.36.7-1.047.7a2.689 2.689 0 01-1.782-.735l-.531.828a3.235 3.235 0 002.266.828m-3.251-5.408h-1.157v5.267h1.157zm-.578-.641a.667.667 0 10-.7-.719.719.719 0 00.7.719m-2.439 6.049a1.563 1.563 0 001.063-.344l-.266-.875a.735.735 0 01-.5.2c-.328 0-.5-.281-.5-.641v-2.641h1.063v-.984h-1.063V18.3h-1.157v1.438h-.875v.985h.875v3.048a1.219 1.219 0 001.36 1.375m-3.673 0a1.563 1.563 0 001.063-.344l-.266-.875a.782.782 0 01-.516.2c-.313 0-.5-.281-.5-.641v-2.822h1.078v-.984H295.3V18.3h-1.141v1.438h-.875v.985h.875v3.048a1.219 1.219 0 001.36 1.375m-5.424-1.016a1.563 1.563 0 01-1.563-1.766 1.563 1.563 0 113.048 0 1.563 1.563 0 01-1.563 1.766m0 1.016a2.782 2.782 0 10-2.7-2.782 2.657 2.657 0 002.7 2.782m-5.236 0a2.36 2.36 0 002.016-.938l-.75-.719a1.391 1.391 0 01-1.2.641 1.766 1.766 0 010-3.517 1.407 1.407 0 011.2.61l.75-.688a2.313 2.313 0 00-2.016-.938 2.782 2.782 0 000 5.549m-6.346 0c1.954 0 2.813-1.047 2.813-2.266 0-2.7-4.236-1.86-4.236-3.235 0-.531.485-.907 1.235-.907a2.97 2.97 0 012.11.844l.719-.953a3.751 3.751 0 00-2.72-1.032c-1.563 0-2.657.938-2.657 2.141 0 2.688 4.251 1.735 4.251 3.267 0 .485-.406 1-1.454 1a3.126 3.126 0 01-2.235-1.016l-.719 1a4 4 0 002.97 1.157" transform="translate(247.34 1567.334)"/><path id="Path_1126" data-name="Path 1126" d="M313.738 36.584a1.563 1.563 0 001.047-.328l-.266-.875a.672.672 0 01-.5.2c-.328 0-.5-.266-.5-.625v-2.733h1.063v-.985h-1.063V29.8h-1.125v1.438h-.875v.985h.875v3.017a1.2 1.2 0 001.344 1.344m-5.361-1a1.751 1.751 0 111.517-1.735 1.751 1.751 0 01-1.517 1.735m0 1a2.751 2.751 0 10-2.689-2.751 2.61 2.61 0 002.688 2.751m-5.189 0a2.376 2.376 0 002-.922l-.75-.7a1.422 1.422 0 01-1.2.625 1.563 1.563 0 01-1.563-1.751 1.563 1.563 0 011.563-1.719 1.36 1.36 0 011.2.61l.75-.688a2.345 2.345 0 00-2-.938 2.751 2.751 0 000 5.486m-5.627 0c1.407 0 2.173-.7 2.173-1.563 0-2.079-3.126-1.391-3.126-2.313 0-.359.375-.641.969-.641a2.142 2.142 0 011.563.625l.469-.8a2.954 2.954 0 00-2.016-.735c-1.329 0-2.063.735-2.063 1.563 0 2.016 3.126 1.282 3.126 2.313 0 .406-.36.688-1.032.688a2.72 2.72 0 01-1.766-.724l-.516.813a3.126 3.126 0 002.235.813m-3.939 0a.75.75 0 10-.766-.766.766.766 0 00.766.766m-2.892-.109l2.141-5.221h-1.219l-1.567 3.912-1.558-3.908h-1.219l2.126 5.221zm-6.252-.875a1.751 1.751 0 111.563-1.751 1.563 1.563 0 01-1.563 1.751m0 1a2.751 2.751 0 10-2.688-2.751 2.61 2.61 0 002.688 2.751m-6.252-1.125a1.688 1.688 0 010-3.345 1.735 1.735 0 011.344.688v1.94a1.735 1.735 0 01-1.344.7m-.2 3.126c1.282 0 2.688-.516 2.688-2.391v-5h-1.141v.719a2.048 2.048 0 00-1.672-.86c-1.36 0-2.313.985-2.313 2.688s.985 2.688 2.313 2.688a2.079 2.079 0 001.672-.891v.61a1.376 1.376 0 01-1.563 1.454 2.063 2.063 0 01-1.657-.672l-.531.828a3 3 0 002.188.782" transform="translate(247.374 1574.282)"/></g></svg>