<svg xmlns="http://www.w3.org/2000/svg" width="112.554" height="24.321" viewBox="0 0 112.554 24.321">
  <g id="Group_1683" data-name="Group 1683" transform="translate(-555.254 -31.151)">
    <path id="Path_1127" data-name="Path 1127" d="M361.023,32.914h5.768l-2.876-8.456Zm1.329-12.5h3.126l7.112,20.757H369.6l-1.844-5.408h-7.706l-1.829,5.408H355.24Z" transform="translate(200.014 11.601)" fill="#fff"/>
    <path id="Path_1128" data-name="Path 1128" d="M367,25.223h2.563l.281,1.422.141.141.141-.141A3.923,3.923,0,0,1,373.252,25a2.564,2.564,0,0,1,1.422.281v2.548h-1.7a3.126,3.126,0,0,0-3.126,3.017v7.815H367Z" transform="translate(206.635 14.181)" fill="#fff"/>
    <path id="Path_1129" data-name="Path 1129" d="M372.61,27.189h2.61V24.345l2.251-2.845H378v5.689h2.907v2.548H378v6.83a1.36,1.36,0,0,0,1.454,1.422l1.7-.281v2.563l-1.563.281c-2.845,0-4.377-1.422-4.377-3.986v-6.83h-2.61Z" transform="translate(209.794 12.215)" fill="#fff"/>
    <path id="Path_1130" data-name="Path 1130" d="M383.7,20.41h12.52v2.845h-9.535v5.971h8.675v2.829h-8.675v9.113H383.7Z" transform="translate(216.038 11.601)" fill="#fff"/>
    <path id="Path_1131" data-name="Path 1131" d="M403.934,38.5h-2.563l-.281-1.141-.141-.141-.141.141a4.032,4.032,0,0,1-3.126,1.422,5.08,5.08,0,0,1-5.408-5.408V25.14h2.845v8.237a2.563,2.563,0,0,0,2.845,2.845,3.126,3.126,0,0,0,3.126-2.985v-8.1h2.845Z" transform="translate(220.859 14.264)" fill="#fff"/>
    <path id="Path_1132" data-name="Path 1132" d="M400.91,25.246h2.563l.281,1.125.141.156.141-.156a4.127,4.127,0,0,1,3.126-1.407,5.064,5.064,0,0,1,5.408,5.392V38.61h-2.845V30.357a2.595,2.595,0,0,0-2.845-2.845,3.126,3.126,0,0,0-3.126,3.017V38.61H400.91Z" transform="translate(225.728 14.158)" fill="#fff"/>
    <path id="Path_1133" data-name="Path 1133" d="M416.056,30.379a4.064,4.064,0,0,0-4.111,4.408,4.048,4.048,0,0,0,4.158,4.408,4.423,4.423,0,0,0,0-8.816m6.674,11.1h-2.548l-.3-1.141-.141-.141-.141.141a5.345,5.345,0,0,1-3.689,1.422,6.971,6.971,0,0,1,0-13.927,5.455,5.455,0,0,1,3.689,1.407l.141.156.141-.156V19.86h2.845Z" transform="translate(230.464 11.291)" fill="#fff"/>
    <rect id="Rectangle_42" data-name="Rectangle 42" width="13.145" height="2.704" transform="translate(654.663 52.768)" fill="#fff"/>
  </g>
</svg>
