<svg xmlns="http://www.w3.org/2000/svg" width="112.539" height="55.472" viewBox="0 0 112.539 55.472">
  <g id="Group_1686" data-name="Group 1686" transform="translate(-241.036)">
    <rect id="Rectangle_43" data-name="Rectangle 43" width="83.201" height="1.016" transform="translate(270.374 34.559)" fill="#fff"/>
    <g id="Group_1685" data-name="Group 1685">
      <g id="Group_1682" data-name="Group 1682">
        <path id="Path_1134" data-name="Path 1134" d="M183.176,15.64v4.392a4.344,4.344,0,0,1-.078.813,1.641,1.641,0,0,1-.219.531.86.86,0,0,1-.375.281,1.688,1.688,0,0,1-.688.125,1.751,1.751,0,0,1-.719-.125.813.813,0,0,1-.359-.281,1.235,1.235,0,0,1-.219-.531,3.264,3.264,0,0,1,0-.813V15.64H178.33v4.689a4.377,4.377,0,0,0,.2,1.375,3.126,3.126,0,0,0,.672,1.172,3,3,0,0,0,1.141.8,4.361,4.361,0,0,0,3.126,0,3,3,0,0,0,1.141-.8,3.125,3.125,0,0,0,.656-1.172,4.378,4.378,0,0,0,.2-1.375V15.64Z" transform="translate(100.407 8.915)" fill="#fff"/>
        <path id="Path_1137" data-name="Path 1137" d="M179,18.8c-.313,1.813-1.407,3.845-2.782,3.845S175,20.922,175.3,19.874c.485-1.86,1.751-3.814,2.7-3.814s1.25,1.172,1,2.735m-9.238,12.5c-4.548,0-7.674-3.126-8.878-7.893-.828-3.251-1.876-5.408-4.517-6.111-.3-.078-.86-.3-.86-.86s.985-1.485,2.813-1.485a6.408,6.408,0,0,1,5.158,3.126l.922-.344a25.118,25.118,0,0,1,2.626-7.6c2-4.3,4.033-7.221,5.377-7.19a1.2,1.2,0,0,1,.938,1.266c0,1.766-1.563,4.439-2.939,7.331l-.766,1.672.891.391c.3-.5.907-1.688.985-1.891l.672,1.485a9.519,9.519,0,0,0-2.673,6.362,2.876,2.876,0,0,0,1.829,3.017,2.423,2.423,0,0,0,2.688-.86,2.126,2.126,0,0,0,2.2,1.938,2.8,2.8,0,0,0,2.563-1.844,9.191,9.191,0,0,1-9.019,9.535m-4.345-28.01c0-.907.391-2,1.25-2,.61,0,1.344.953,2.219,2.86a23.448,23.448,0,0,0-2.3,3.783,14.317,14.317,0,0,1-1.172-4.689m9.378,10.191c.907.406.985,2.3,0,4.548s-1.8,3.5-2.782,3.5-1.422-.547-1.422-2.016c0-2.782,2.266-6.909,4.142-6.033m3.22,1.3a2.188,2.188,0,0,0-1.3.516,2.454,2.454,0,0,0-3.423-2.939l-.844-2.048c.766-1.907,2.141-4.22,2.141-6.127,0-1.563-.75-2.563-2.173-2.563a3.673,3.673,0,0,0-2.548,1.563c-1-2.2-2.048-3.251-3.126-3.251-1.782,0-2.516,1.782-2.516,3.3a15.63,15.63,0,0,0,1.7,6.252,53.888,53.888,0,0,0-2.438,6.33,7.159,7.159,0,0,0-5.111-2.251,5.189,5.189,0,0,0-2.954.828,2.438,2.438,0,0,0-1.172,1.954,2.235,2.235,0,0,0,1.876,2.126c1.938.516,2.814,2.079,3.548,5.158,1.344,5.549,4.814,8.878,10.144,8.878a10.254,10.254,0,0,0,10.238-10.222,12.5,12.5,0,0,0-.219-2.22,9.979,9.979,0,0,0,.391-1.3c.469-2.391-.438-4.08-2.173-4.08" transform="translate(86.826 0.07)" fill="#fff"/>
        <path id="Path_1141" data-name="Path 1141" d="M172.98,30.32v7.768h1.125V34.681h2.86V33.7h-2.86V31.32h3.751v-1Z" transform="translate(97.394 17.181)" fill="#fff"/>
        <path id="Path_1142" data-name="Path 1142" d="M176.64,30.32h1.11v4.533a4.692,4.692,0,0,0,.094.969,1.828,1.828,0,0,0,.328.75,1.407,1.407,0,0,0,.594.485,2.438,2.438,0,0,0,.969.172,2.469,2.469,0,0,0,.953-.172,1.407,1.407,0,0,0,.594-.485,1.83,1.83,0,0,0,.328-.75,4.691,4.691,0,0,0,.094-.969V30.32h1.11v4.814a4,4,0,0,1-.188,1.235,2.86,2.86,0,0,1-.563,1,2.689,2.689,0,0,1-.953.672,3.908,3.908,0,0,1-2.751,0,2.751,2.751,0,0,1-.969-.672,2.86,2.86,0,0,1-.563-1,4,4,0,0,1-.188-1.235Z" transform="translate(99.455 17.181)" fill="#fff"/>
        <path id="Path_1143" data-name="Path 1143" d="M186.711,30.32v6.065l-4.236-6.065H181.35v7.768h1.094v-6.08l4.251,6.08h1.11V30.32Z" transform="translate(102.107 17.181)" fill="#fff"/>
        <path id="Path_1144" data-name="Path 1144" d="M188.773,37.088a3.282,3.282,0,0,0,2.266-.719,2.72,2.72,0,0,0,.8-2.126,2.829,2.829,0,0,0-.782-2.173,3.126,3.126,0,0,0-2.313-.75H187.32v5.768ZM186.21,30.32H188.8a6.393,6.393,0,0,1,1.688.219,3.6,3.6,0,0,1,1.344.719,3.532,3.532,0,0,1,.875,1.219,4.5,4.5,0,0,1,.313,1.751,4.423,4.423,0,0,1-.313,1.7,3.376,3.376,0,0,1-2.141,1.923,5.908,5.908,0,0,1-1.7.234h-2.579Z" transform="translate(104.843 17.181)" fill="#fff"/>
        <path id="Path_1145" data-name="Path 1145" d="M172.98,23.9h2.157v2.97h2.985V23.9h2.157v8.128h-2.157V28.855h-2.985v3.173H172.98Z" transform="translate(97.394 13.566)" fill="#fff"/>
        <path id="Path_1146" data-name="Path 1146" d="M178.59,23.9h5.846v1.876h-3.689v1.25h3.032v1.751h-3.032v1.391h3.939v1.86h-6.1Z" transform="translate(100.553 13.566)" fill="#fff"/>
        <path id="Path_1147" data-name="Path 1147" d="M186.357,27.568a1,1,0,0,0,.7-.266.953.953,0,0,0,.266-.7,1,1,0,0,0-.266-.719.891.891,0,0,0-.719-.266H185.31v1.954Zm-3.126-3.658h3.345a3.908,3.908,0,0,1,1.188.156,2.454,2.454,0,0,1,.907.516,2.126,2.126,0,0,1,.594.828,2.938,2.938,0,0,1,.2,1.157,2.657,2.657,0,0,1-.344,1.391,3.032,3.032,0,0,1-.938.953l1.735,3.126h-2.345L186.2,29.272h-.907v2.751H183.2Z" transform="translate(103.149 13.571)" fill="#fff"/>
        <rect id="Rectangle_44" data-name="Rectangle 44" width="2.157" height="8.112" transform="translate(294.008 37.466)" fill="#fff"/>
        <path id="Path_1148" data-name="Path 1148" d="M192.585,25.791H190.1V23.9h7.143v1.891h-2.47v6.237h-2.188Z" transform="translate(107.034 13.566)" fill="#fff"/>
        <path id="Path_1149" data-name="Path 1149" d="M199.033,28.751l-.891-2.985-.938,2.985Zm-2.048-4.861h2.47L202.331,32H200l-.531-1.688h-2.7L196.235,32H194Z" transform="translate(109.229 13.56)" fill="#fff"/>
        <path id="Path_1150" data-name="Path 1150" d="M203.765,27.448h3.329v3.673a4.532,4.532,0,0,1-1.672.891,6.5,6.5,0,0,1-1.891.266,4.814,4.814,0,0,1-1.766-.3,3.517,3.517,0,0,1-1.329-.844,3.845,3.845,0,0,1-.844-1.344,5.33,5.33,0,0,1-.281-1.782,4.689,4.689,0,0,1,.313-1.7,3.876,3.876,0,0,1,2.2-2.188,4.3,4.3,0,0,1,1.7-.328,5.346,5.346,0,0,1,1.891.344,3.251,3.251,0,0,1,1.485,1.11L205.5,26.65a3.612,3.612,0,0,0-.8-.61,1.954,1.954,0,0,0-1.016-.25,2.157,2.157,0,0,0-.922.188,2.11,2.11,0,0,0-.672.485,2.143,2.143,0,0,0-.422.735,2.8,2.8,0,0,0-.141.891,2.6,2.6,0,0,0,.156.953,2.22,2.22,0,0,0,.438.719,2.11,2.11,0,0,0,.688.453,2.314,2.314,0,0,0,.891.172,3.017,3.017,0,0,0,.766-.094,2.454,2.454,0,0,0,.7-.344v-.782h-1.407Z" transform="translate(112.219 13.504)" fill="#fff"/>
        <path id="Path_1151" data-name="Path 1151" d="M205.14,23.9h5.846v1.876H207.3v1.25h3.032v1.751H207.3v1.391h3.954v1.86H205.14Z" transform="translate(115.502 13.566)" fill="#fff"/>
        <path id="Path_1152" data-name="Path 1152" d="M186.96,16.388a2.735,2.735,0,0,0,2.048-.907,2.861,2.861,0,0,0,.563-.969,3.532,3.532,0,0,0,0-2.36,2.86,2.86,0,0,0-.563-.969,2.5,2.5,0,0,0-.891-.656,2.939,2.939,0,0,0-2.3,0,2.641,2.641,0,0,0-.891.656,3.5,3.5,0,0,0-.563.969,3.814,3.814,0,0,0,0,2.36,3.5,3.5,0,0,0,.563.969,2.641,2.641,0,0,0,.891.656,2.5,2.5,0,0,0,1.141.25m0,1.047a3.908,3.908,0,0,1-1.563-.313,4.268,4.268,0,0,1-1.266-.875,3.767,3.767,0,0,1-.828-1.3,4.2,4.2,0,0,1-.313-1.563,4.142,4.142,0,0,1,.313-1.563,3.907,3.907,0,0,1,.828-1.3,3.72,3.72,0,0,1,1.25-.86,3.923,3.923,0,0,1,3.126,0,3.72,3.72,0,0,1,1.25.86,4.22,4.22,0,0,1,.844,1.3,4.126,4.126,0,0,1,.3,1.563,4.19,4.19,0,0,1-.3,1.563,4.048,4.048,0,0,1-.844,1.3,4,4,0,0,1-1.25.875,4.064,4.064,0,0,1-1.563.313" transform="translate(103.03 5.369)" fill="#fff"/>
        <path id="Path_1153" data-name="Path 1153" d="M190.61,9.43h1.125l4.236,6.065V9.43h1.094v7.753h-1.11L191.7,11.118v6.065H190.61Z" transform="translate(107.321 5.419)" fill="#fff"/>
        <path id="Path_1154" data-name="Path 1154" d="M183.167,14.1l-1.25-3.423L180.651,14.1ZM181.385,9.41h1.078l3.032,7.815h-1.25l-.735-2.2h-3.126l-.8,2.173H178.4Z" transform="translate(100.446 5.408)" fill="#fff"/>
        <rect id="Rectangle_45" data-name="Rectangle 45" width="1.11" height="7.768" transform="translate(295.32 14.849)" fill="#fff"/>
        <path id="Path_1155" data-name="Path 1155" d="M180.188,9.43h-1.125l-2.345,4-2.345-4h-1.141l-.313,7.753h1.094l.2-6.065,2.266,3.7h.469l2.266-3.7.2,6.065h1.094Z" transform="translate(97.361 5.419)" fill="#fff"/>
        <path id="Path_1156" data-name="Path 1156" d="M211.43,22.85l1.3-1.563a2.985,2.985,0,0,0,2.016.922c.594,0,.969-.25,1.016-.531v-.141c0-.359-.3-.625-1.344-.953-1.563-.516-2.47-1.11-2.516-2.5v-.109a2.8,2.8,0,0,1,3.126-2.485,4.283,4.283,0,0,1,3.017,1.047l-1.11,1.438a2.563,2.563,0,0,0-1.829-.75c-.516,0-.922.234-.922.547v.094c0,.359.234.531,1.3.86,1.8.547,2.7,1.172,2.7,2.657v.172a2.907,2.907,0,0,1-3.267,2.563,4.689,4.689,0,0,1-3.486-1.188" transform="translate(119.043 8.818)" fill="#fff"/>
        <path id="Path_1157" data-name="Path 1157" d="M199.348,20.986a2.516,2.516,0,0,1-2.094,1.078,2.141,2.141,0,0,1-2.079-2.251h0a2.141,2.141,0,0,1,2.063-2.266,2.657,2.657,0,0,1,2,1l1.407-1.407a4.377,4.377,0,0,0-7.815,2.688h0a4.236,4.236,0,0,0,4.345,4.283,4.345,4.345,0,0,0,3.5-1.719Z" transform="translate(108.571 8.821)" fill="#fff"/>
        <path id="Path_1158" data-name="Path 1158" d="M175.972,21.862a2.032,2.032,0,0,0,2.219-2.157,2.563,2.563,0,0,0-.141-.875,1.782,1.782,0,0,0-.406-.688,1.922,1.922,0,0,0-.688-.438,2.61,2.61,0,0,0-.985-.156H175.1v4.314Zm-3.017-6.252h3.126a5.5,5.5,0,0,1,1.719.25,3.83,3.83,0,0,1,1.391.735,3.517,3.517,0,0,1,.907,1.282,4.689,4.689,0,0,1,.328,1.829,4.064,4.064,0,0,1-.344,1.751,3.36,3.36,0,0,1-.907,1.25,3.626,3.626,0,0,1-1.391.75,5.58,5.58,0,0,1-1.719.25H172.94Z" transform="translate(97.372 8.898)" fill="#fff"/>
        <path id="Path_1159" data-name="Path 1159" d="M188.017,20.5l-.891-2.97-.938,2.97ZM185.97,15.64h2.47l2.86,8.1h-2.313l-.531-1.672h-2.7l-.531,1.672H183Z" transform="translate(103.036 8.915)" fill="#fff"/>
        <path id="Path_1160" data-name="Path 1160" d="M208.707,20.5l-.891-2.97-.938,2.97ZM206.66,15.64h2.47l2.86,8.1h-2.313l-.531-1.672h-2.7l-.531,1.672H203.69Z" transform="translate(114.685 8.915)" fill="#fff"/>
        <path id="Path_1161" data-name="Path 1161" d="M198.5,15.64h2.141v2.97h2.985V15.64h2.157v8.1h-2.157V20.579h-2.985v3.157H198.5Z" transform="translate(111.763 8.915)" fill="#fff"/>
        <rect id="Rectangle_46" data-name="Rectangle 46" width="2.157" height="8.112" transform="translate(327.472 24.555)" fill="#fff"/>
        <path id="Path_1162" data-name="Path 1162" d="M190.921,15.64H188.78v8.1h6.08V21.892h-3.939Z" transform="translate(106.29 8.915)" fill="#fff"/>
      </g>
    </g>
  </g>
</svg>
