<svg xmlns="http://www.w3.org/2000/svg" width="667.808" height="55.535" viewBox="0 0 667.808 55.535"><defs><style>.a{fill:#fff;}</style></defs><rect class="a" width="1.501" height="26.134" transform="translate(425.428 27.197)"/><path class="a" d="M244.44,17.3l16.709,9.8,16.724-9.8Z" transform="translate(137.629 9.85)"/><path class="a" d="M244.44,37.55l16.709-9.8,16.724,9.8Z" transform="translate(137.629 15.734)"/><path class="a" d="M241.12,19.2V39.41L257.735,29.3Z" transform="translate(135.76 10.92)"/><path class="a" d="M275.275,19.2V39.41L258.66,29.3Z" transform="translate(145.636 10.92)"/><path class="a" d="M373.988,30.168c-.922,0-1.485-.719-1.485-1.751s.563-1.751,1.485-1.751a1.735,1.735,0,0,1,1.36.7v2.094a1.735,1.735,0,0,1-1.36.7m2.5.891V25.776h-1.141v.735a2.079,2.079,0,0,0-1.688-.86,2.438,2.438,0,0,0-2.345,2.767c0,1.751,1,2.767,2.345,2.767a2.125,2.125,0,0,0,1.688-.844v.719Zm-10.019,0v-.672a2.157,2.157,0,0,0,1.688.844c1.36,0,2.345-1.016,2.345-2.767a2.438,2.438,0,0,0-2.344-2.767,2.079,2.079,0,0,0-1.688.86V23.776h-1.157v7.284Zm0-1.563V27.371a1.735,1.735,0,0,1,1.36-.7,1.563,1.563,0,0,1,1.485,1.751c0,1.032-.578,1.751-1.485,1.751a1.719,1.719,0,0,1-1.36-.688m-2.86,1.7a1.563,1.563,0,0,0,1.079-.328l-.266-.875a.782.782,0,0,1-.516.188c-.328,0-.5-.266-.5-.625V23.776h-1.157v6.049a1.219,1.219,0,0,0,1.36,1.36m-4.33-2.657h-2.626l1.313-3.47Zm2.345,2.532-2.86-7.284H357.2l-2.97,7.284h1.563l.531-1.407h3.345l.531,1.407ZM353.9,27.933h-2.626v.985H353.9Zm-3.783,3.126v-3.8a1.563,1.563,0,0,0-1.751-1.563,2.5,2.5,0,0,0-1.86.844V23.776h-1.141v7.284h1.141V27.371a1.751,1.751,0,0,1,1.36-.7c.641,0,1.063.234,1.063,1.063v3.329Zm-11.41-.891a1.766,1.766,0,0,1,0-3.5,1.735,1.735,0,0,1,1.36.7v2.094a1.735,1.735,0,0,1-1.36.7m2.5.891V25.776H340.07v.735a2.11,2.11,0,0,0-1.7-.86c-1.344,0-2.329,1.063-2.329,2.767s.985,2.767,2.329,2.767a2.157,2.157,0,0,0,1.7-.844v.719Zm-6.252,0v-3.72a1.563,1.563,0,0,0-1.751-1.641,2.469,2.469,0,0,0-1.86.844v-.719h-1.157v5.283h1.157V27.371a1.735,1.735,0,0,1,1.344-.7c.657,0,1.079.266,1.079,1.094v3.3Zm-10.769.125c1.422,0,2.2-.7,2.2-1.641,0-2.094-3.126-1.407-3.126-2.329,0-.375.375-.656.969-.656a2.094,2.094,0,0,1,1.563.641l.485-.813a3,3,0,0,0-2.048-.735c-1.329,0-2.079.735-2.079,1.563,0,2.032,3.126,1.3,3.126,2.329,0,.406-.359.7-1.047.7a2.767,2.767,0,0,1-1.782-.735l-.516.813a3.126,3.126,0,0,0,2.251.828m-5.721-1.016a1.751,1.751,0,1,1,1.36-2.8v2.094a1.75,1.75,0,0,1-1.36.7m2.5.891V25.776h-1.125v.735a2.11,2.11,0,0,0-1.7-.86c-1.36,0-2.329,1.063-2.329,2.767s.985,2.767,2.329,2.767a2.157,2.157,0,0,0,1.7-.8v.719Zm-6.58.125a1.563,1.563,0,0,0,1.078-.328l-.281-.875a.7.7,0,0,1-.5.188c-.328,0-.5-.266-.5-.625V26.777h.969v-1h-1.078V24.338h-1.141v1.438h-.875v1h.875v3.048a1.2,1.2,0,0,0,1.344,1.36m-3.126,0a1.563,1.563,0,0,0,1.078-.328l-.266-.875a.781.781,0,0,1-.516.188c-.328,0-.5-.266-.5-.625V23.776h-1.157v6.049a1.219,1.219,0,0,0,1.36,1.36m-5.221-1.016a1.766,1.766,0,0,1,0-3.5,1.7,1.7,0,0,1,1.344.7v2.094a1.7,1.7,0,0,1-1.344.7m2.5.891V25.776H307.34v.735a2.063,2.063,0,0,0-1.688-.86c-1.36,0-2.329,1.063-2.329,2.767s.985,2.767,2.329,2.767a2.11,2.11,0,0,0,1.688-.8v.719Zm-6.252,0v-3.8a1.563,1.563,0,0,0-1.672-1.563,2.5,2.5,0,0,0-1.86.844V23.776h-1.141v7.284h1.141V27.371a1.751,1.751,0,0,1,1.36-.7c.641,0,1.063.234,1.063,1.063v3.329ZM293.6,30.043a1.7,1.7,0,0,1,0-3.376,1.75,1.75,0,0,1,1.36.7V29.34a1.751,1.751,0,0,1-1.36.7m-.2,3.126c1.282,0,2.7-.516,2.7-2.423v-5H294.96v.735a2.11,2.11,0,0,0-1.688-.782c-1.36,0-2.329,1-2.329,2.7s.985,2.72,2.329,2.72a2.157,2.157,0,0,0,1.7-.891v.594a1.407,1.407,0,0,1-1.563,1.485,2.063,2.063,0,0,1-1.688-.688l-.531.828a3,3,0,0,0,2.22.8m-6.065-3.032a1.766,1.766,0,0,1,0-3.5,1.735,1.735,0,0,1,1.36.7v2.094a1.735,1.735,0,0,1-1.36.7m2.5.891v-5.33h-1.141v.735a2.11,2.11,0,0,0-1.688-.813c-1.344,0-2.329,1.063-2.329,2.767s1,2.767,2.329,2.767a2.157,2.157,0,0,0,1.7-.844v.719ZM283.6,25.823H282.44v5.283H283.6Zm-.578-.641a.719.719,0,0,0,.719-.7.735.735,0,0,0-.719-.719.719.719,0,0,0-.7.719.7.7,0,0,0,.7.7m-4.189,2.079h-1.766V24.9h1.766a1.157,1.157,0,1,1,0,2.313m2.61,3.845-1.8-2.86a2.048,2.048,0,0,0,1.735-2.141,2.219,2.219,0,0,0-2.391-2.282H275.86v7.284h1.266V28.34h1.282l1.563,2.72Z" transform="translate(155.32 13.487)"/><path class="a" d="M375.746,25.088a1.563,1.563,0,0,0,1.063-.344l-.266-.875a.781.781,0,0,1-.516.2c-.328,0-.5-.281-.5-.641V20.664h1.078V19.68h-1.078V18.3h-1.141v1.438h-.875v.985h.875v3.048a1.219,1.219,0,0,0,1.36,1.375m-3.032-.141V21.243a1.563,1.563,0,0,0-1.7-1.7,2.6,2.6,0,0,0-1.876.844v-.7h-1.141v5.267h1.141V21.258a1.845,1.845,0,0,1,1.36-.7c.641,0,1.063.266,1.063,1.094v3.3Zm-6.909-3.126H362.82a1.469,1.469,0,0,1,1.485-1.391,1.438,1.438,0,0,1,1.563,1.391m-1.407,3.22a3.126,3.126,0,0,0,2.141-.782l-.531-.75a2.235,2.235,0,0,1-1.563.594,1.563,1.563,0,0,1-1.672-1.454h4.08v-.3a2.595,2.595,0,0,0-2.595-2.86,2.782,2.782,0,0,0,.094,5.549m-3.876-.141V21.133a1.407,1.407,0,0,0-1.563-1.563,2.251,2.251,0,0,0-1.8.969,1.375,1.375,0,0,0-1.438-.969,2.376,2.376,0,0,0-1.735.844v-.7h-1.157v5.267h1.141v-3.72a1.563,1.563,0,0,1,1.219-.7c.625,0,.875.391.875.953v3.439h1.141V21.258a1.563,1.563,0,0,1,1.219-.7c.625,0,.875.391.875.953v3.439Zm-9.05,0v-3.72a1.563,1.563,0,0,0-1.766-1.7,2.516,2.516,0,0,0-1.86.844v-.7h-1.157v5.267h1.157V21.258a1.782,1.782,0,0,1,1.344-.7c.656,0,1.079.266,1.079,1.094v3.3Zm-7.284,0V21.43a1.829,1.829,0,0,1,1.375-.7h.344V19.586a2.282,2.282,0,0,0-1.719.907v-.766h-1.141v5.267Zm-3.329-3.126H337.89a1.469,1.469,0,0,1,1.485-1.391,1.438,1.438,0,0,1,1.563,1.391m-1.407,3.22a3.126,3.126,0,0,0,2.141-.782l-.531-.75a2.219,2.219,0,0,1-1.563.594,1.563,1.563,0,0,1-1.672-1.454h4v-.3a2.595,2.595,0,0,0-2.579-2.86,2.782,2.782,0,0,0,.078,5.549m-5.127-.141,2.141-5.267H335.2L333.638,23.6l-1.563-3.954h-1.11l2.157,5.267Zm-6.252-.875a1.563,1.563,0,0,1-1.563-1.766,1.563,1.563,0,1,1,3.032,0,1.563,1.563,0,0,1-1.563,1.766m0,1.016a2.782,2.782,0,1,0-2.7-2.782,2.642,2.642,0,0,0,2.7,2.782m-6.971,0c2.3,0,3.626-1.563,3.626-4.064h-3.97v1.125h2.595a2.126,2.126,0,0,1-2.141,1.8,2.642,2.642,0,0,1,0-5.267,2.345,2.345,0,0,1,1.891.969l1.047-.594a3.439,3.439,0,0,0-2.939-1.563,3.783,3.783,0,0,0-.109,7.549m-7.5-.141V21.211a1.563,1.563,0,0,0-1.7-1.672,2.548,2.548,0,0,0-1.86.844v-2.72h-1.141v7.284H309.9V21.258a1.8,1.8,0,0,1,1.36-.7c.641,0,1.063.25,1.063,1.079v3.314Zm-8,.141c1.422,0,2.188-.719,2.188-1.657,0-2.094-3.126-1.391-3.126-2.329,0-.36.375-.656.985-.656a2.219,2.219,0,0,1,1.563.641l.469-.813a3.032,3.032,0,0,0-2.032-.735c-1.344,0-2.079.735-2.079,1.563,0,2.032,3.126,1.3,3.126,2.329,0,.422-.36.7-1.047.7a2.689,2.689,0,0,1-1.782-.735l-.531.828a3.235,3.235,0,0,0,2.266.828m-3.251-5.408h-1.157v5.267h1.157Zm-.578-.641a.667.667,0,1,0-.7-.719.719.719,0,0,0,.7.719m-2.439,6.049a1.563,1.563,0,0,0,1.063-.344l-.266-.875a.735.735,0,0,1-.5.2c-.328,0-.5-.281-.5-.641V20.664h1.063V19.68h-1.063V18.3h-1.157v1.438h-.875v.985h.875v3.048a1.219,1.219,0,0,0,1.36,1.375m-3.673,0a1.563,1.563,0,0,0,1.063-.344l-.266-.875a.782.782,0,0,1-.516.2c-.313,0-.5-.281-.5-.641V20.664h1.078V19.68H295.3V18.3h-1.141v1.438h-.875v.985h.875v3.048a1.219,1.219,0,0,0,1.36,1.375m-5.424-1.016a1.563,1.563,0,0,1-1.563-1.766,1.563,1.563,0,1,1,3.048,0,1.563,1.563,0,0,1-1.563,1.766m0,1.016a2.782,2.782,0,1,0-2.7-2.782,2.657,2.657,0,0,0,2.7,2.782m-5.236,0a2.36,2.36,0,0,0,2.016-.938l-.75-.719a1.391,1.391,0,0,1-1.2.641,1.766,1.766,0,0,1,0-3.517,1.407,1.407,0,0,1,1.2.61l.75-.688a2.313,2.313,0,0,0-2.016-.938,2.782,2.782,0,0,0,0,5.549m-6.346,0c1.954,0,2.813-1.047,2.813-2.266,0-2.7-4.236-1.86-4.236-3.235,0-.531.485-.907,1.235-.907a2.97,2.97,0,0,1,2.11.844l.719-.953a3.751,3.751,0,0,0-2.72-1.032c-1.563,0-2.657.938-2.657,2.141,0,2.688,4.251,1.735,4.251,3.267,0,.485-.406,1-1.454,1a3.126,3.126,0,0,1-2.235-1.016l-.719,1a4,4,0,0,0,2.97,1.157" transform="translate(155.14 9.94)"/><path class="a" d="M313.738,36.584a1.563,1.563,0,0,0,1.047-.328l-.266-.875a.672.672,0,0,1-.5.2c-.328,0-.5-.266-.5-.625V32.223h1.063v-.985h-1.063V29.8h-1.125v1.438h-.875v.985h.875v3.017a1.2,1.2,0,0,0,1.344,1.344m-5.361-1a1.751,1.751,0,1,1,1.517-1.735,1.751,1.751,0,0,1-1.517,1.735m0,1a2.751,2.751,0,1,0-2.689-2.751,2.61,2.61,0,0,0,2.688,2.751m-5.189,0a2.376,2.376,0,0,0,2-.922l-.75-.7a1.422,1.422,0,0,1-1.2.625,1.563,1.563,0,0,1-1.563-1.751,1.563,1.563,0,0,1,1.563-1.719,1.36,1.36,0,0,1,1.2.61l.75-.688a2.345,2.345,0,0,0-2-.938,2.751,2.751,0,0,0,0,5.486m-5.627,0c1.407,0,2.173-.7,2.173-1.563,0-2.079-3.126-1.391-3.126-2.313,0-.359.375-.641.969-.641a2.142,2.142,0,0,1,1.563.625l.469-.8a2.954,2.954,0,0,0-2.016-.735c-1.329,0-2.063.735-2.063,1.563,0,2.016,3.126,1.282,3.126,2.313,0,.406-.36.688-1.032.688A2.72,2.72,0,0,1,295.857,35l-.516.813a3.126,3.126,0,0,0,2.235.813m-3.939,0a.75.75,0,1,0-.766-.766.766.766,0,0,0,.766.766m-2.892-.109,2.141-5.221h-1.219L290.1,35.208,288.542,31.3h-1.219l2.126,5.221Zm-6.252-.875a1.751,1.751,0,1,1,1.563-1.751,1.563,1.563,0,0,1-1.563,1.751m0,1a2.751,2.751,0,1,0-2.688-2.751,2.61,2.61,0,0,0,2.688,2.751m-6.252-1.125a1.688,1.688,0,0,1,0-3.345,1.735,1.735,0,0,1,1.344.688V34.8a1.735,1.735,0,0,1-1.344.7m-.2,3.126c1.282,0,2.688-.516,2.688-2.391v-5h-1.141v.719a2.048,2.048,0,0,0-1.672-.86c-1.36,0-2.313.985-2.313,2.688s.985,2.688,2.313,2.688a2.079,2.079,0,0,0,1.672-.891v.61a1.376,1.376,0,0,1-1.563,1.454,2.063,2.063,0,0,1-1.657-.672l-.531.828a3,3,0,0,0,2.188.782" transform="translate(155.173 16.888)"/><path class="a" d="M361.023,32.914h5.768l-2.876-8.456Zm1.329-12.5h3.126l7.112,20.757H369.6l-1.844-5.408h-7.706l-1.829,5.408H355.24Z" transform="translate(200.014 11.601)"/><path class="a" d="M367,25.223h2.563l.281,1.422.141.141.141-.141A3.923,3.923,0,0,1,373.252,25a2.564,2.564,0,0,1,1.422.281v2.548h-1.7a3.126,3.126,0,0,0-3.126,3.017v7.815H367Z" transform="translate(206.635 14.181)"/><path class="a" d="M372.61,27.189h2.61V24.345l2.251-2.845H378v5.689h2.907v2.548H378v6.83a1.36,1.36,0,0,0,1.454,1.422l1.7-.281v2.563l-1.563.281c-2.845,0-4.377-1.422-4.377-3.986v-6.83h-2.61Z" transform="translate(209.794 12.215)"/><path class="a" d="M383.7,20.41h12.52v2.845h-9.535v5.971h8.675v2.829h-8.675v9.113H383.7Z" transform="translate(216.038 11.601)"/><path class="a" d="M403.934,38.5h-2.563l-.281-1.141-.141-.141-.141.141a4.032,4.032,0,0,1-3.126,1.422,5.08,5.08,0,0,1-5.408-5.408V25.14h2.845v8.237a2.563,2.563,0,0,0,2.845,2.845,3.126,3.126,0,0,0,3.126-2.985v-8.1h2.845Z" transform="translate(220.859 14.264)"/><path class="a" d="M400.91,25.246h2.563l.281,1.125.141.156.141-.156a4.127,4.127,0,0,1,3.126-1.407,5.064,5.064,0,0,1,5.408,5.392V38.61h-2.845V30.357a2.595,2.595,0,0,0-2.845-2.845,3.126,3.126,0,0,0-3.126,3.017V38.61H400.91Z" transform="translate(225.728 14.158)"/><path class="a" d="M416.056,30.379a4.064,4.064,0,0,0-4.111,4.408,4.048,4.048,0,0,0,4.158,4.408,4.423,4.423,0,0,0,0-8.816m6.674,11.1h-2.548l-.3-1.141-.141-.141-.141.141a5.345,5.345,0,0,1-3.689,1.422,6.971,6.971,0,0,1,0-13.927,5.455,5.455,0,0,1,3.689,1.407l.141.156.141-.156V19.86h2.845Z" transform="translate(230.464 11.291)"/><rect class="a" width="13.145" height="2.704" transform="translate(654.663 52.768)"/><path class="a" d="M183.176,15.64v4.392a4.344,4.344,0,0,1-.078.813,1.641,1.641,0,0,1-.219.531.86.86,0,0,1-.375.281,1.688,1.688,0,0,1-.688.125,1.751,1.751,0,0,1-.719-.125.813.813,0,0,1-.359-.281,1.235,1.235,0,0,1-.219-.531,3.264,3.264,0,0,1,0-.813V15.64H178.33v4.689a4.377,4.377,0,0,0,.2,1.375,3.126,3.126,0,0,0,.672,1.172,3,3,0,0,0,1.141.8,4.361,4.361,0,0,0,3.126,0,3,3,0,0,0,1.141-.8,3.125,3.125,0,0,0,.656-1.172,4.378,4.378,0,0,0,.2-1.375V15.64Z" transform="translate(100.407 8.915)"/><path class="a" d="M166.16,13.821a1,1,0,1,0-1-1,1,1,0,0,0,1,1" transform="translate(92.991 6.765)"/><path class="a" d="M162.615,15.42l-1.125.516c1.36,4,4.939,5.408,8.8,3.2l-.453-1.11c-2.939,1.563-6.127.641-7.221-2.61" transform="translate(90.925 8.791)"/><path class="a" d="M179,18.8c-.313,1.813-1.407,3.845-2.782,3.845S175,20.922,175.3,19.874c.485-1.86,1.751-3.814,2.7-3.814s1.25,1.172,1,2.735m-9.238,12.5c-4.548,0-7.674-3.126-8.878-7.893-.828-3.251-1.876-5.408-4.517-6.111-.3-.078-.86-.3-.86-.86s.985-1.485,2.813-1.485a6.408,6.408,0,0,1,5.158,3.126l.922-.344a25.118,25.118,0,0,1,2.626-7.6c2-4.3,4.033-7.221,5.377-7.19a1.2,1.2,0,0,1,.938,1.266c0,1.766-1.563,4.439-2.939,7.331l-.766,1.672.891.391c.3-.5.907-1.688.985-1.891l.672,1.485a9.519,9.519,0,0,0-2.673,6.362,2.876,2.876,0,0,0,1.829,3.017,2.423,2.423,0,0,0,2.688-.86,2.126,2.126,0,0,0,2.2,1.938,2.8,2.8,0,0,0,2.563-1.844,9.191,9.191,0,0,1-9.019,9.535m-4.345-28.01c0-.907.391-2,1.25-2,.61,0,1.344.953,2.219,2.86a23.448,23.448,0,0,0-2.3,3.783,14.317,14.317,0,0,1-1.172-4.689m9.378,10.191c.907.406.985,2.3,0,4.548s-1.8,3.5-2.782,3.5-1.422-.547-1.422-2.016c0-2.782,2.266-6.909,4.142-6.033m3.22,1.3a2.188,2.188,0,0,0-1.3.516,2.454,2.454,0,0,0-3.423-2.939l-.844-2.048c.766-1.907,2.141-4.22,2.141-6.127,0-1.563-.75-2.563-2.173-2.563a3.673,3.673,0,0,0-2.548,1.563c-1-2.2-2.048-3.251-3.126-3.251-1.782,0-2.516,1.782-2.516,3.3a15.63,15.63,0,0,0,1.7,6.252,53.888,53.888,0,0,0-2.438,6.33,7.159,7.159,0,0,0-5.111-2.251,5.189,5.189,0,0,0-2.954.828,2.438,2.438,0,0,0-1.172,1.954,2.235,2.235,0,0,0,1.876,2.126c1.938.516,2.814,2.079,3.548,5.158,1.344,5.549,4.814,8.878,10.144,8.878a10.254,10.254,0,0,0,10.238-10.222,12.5,12.5,0,0,0-.219-2.22,9.979,9.979,0,0,0,.391-1.3c.469-2.391-.438-4.08-2.173-4.08" transform="translate(86.826 0.07)"/><path class="a" d="M168.907,12.66a.907.907,0,1,0,.907.907.907.907,0,0,0-.907-.907" transform="translate(94.59 7.237)"/><path class="a" d="M167.752,2.121a.594.594,0,0,1,.141-.234.657.657,0,0,1,.234-.172.891.891,0,0,1,.281,0,.907.907,0,0,1,.3,0,.766.766,0,0,1,.219.172.625.625,0,0,1,.156.234.906.906,0,0,1,0,.3.891.891,0,0,1,0,.281.625.625,0,0,1-.156.234.516.516,0,0,1-.219.156.641.641,0,0,1-.3,0,.578.578,0,0,1-.281,0,.484.484,0,0,1-.234-.156.594.594,0,0,1-.141-.234.61.61,0,0,1,0-.281.641.641,0,0,1,0-.3m0,.938a.719.719,0,0,0,.281.2.923.923,0,0,0,.36,0,.875.875,0,0,0,.359,0,.672.672,0,0,0,.3-.2.812.812,0,0,0,.188-.3.672.672,0,0,0,0-.36.719.719,0,0,0,0-.359,1.189,1.189,0,0,0-.188-.3.813.813,0,0,0-.3-.188.875.875,0,0,0-.359-.078.922.922,0,0,0-.36.078.891.891,0,0,0-.281.188.86.86,0,0,0-.266.656.876.876,0,0,0,0,.359.672.672,0,0,0,.2.3" transform="translate(94.291 0.943)"/><path class="a" d="M168.051,1.893h.172a.172.172,0,0,1,.125,0,.156.156,0,0,1,0,.109.11.11,0,0,1,0,.094.156.156,0,0,1-.125,0h-.172Zm0,.422h.156l.2.359h.2l-.234-.391a.25.25,0,0,0,.141-.109.266.266,0,0,0,0-.156.2.2,0,0,0,0-.094V1.83h-.61v.938h.141Z" transform="translate(94.54 1.14)"/><rect class="a" width="83.201" height="1.016" transform="translate(270.374 34.559)"/><path class="a" d="M172.98,30.32v7.768h1.125V34.681h2.86V33.7h-2.86V31.32h3.751v-1Z" transform="translate(97.394 17.181)"/><path class="a" d="M176.64,30.32h1.11v4.533a4.692,4.692,0,0,0,.094.969,1.828,1.828,0,0,0,.328.75,1.407,1.407,0,0,0,.594.485,2.438,2.438,0,0,0,.969.172,2.469,2.469,0,0,0,.953-.172,1.407,1.407,0,0,0,.594-.485,1.83,1.83,0,0,0,.328-.75,4.691,4.691,0,0,0,.094-.969V30.32h1.11v4.814a4,4,0,0,1-.188,1.235,2.86,2.86,0,0,1-.563,1,2.689,2.689,0,0,1-.953.672,3.908,3.908,0,0,1-2.751,0,2.751,2.751,0,0,1-.969-.672,2.86,2.86,0,0,1-.563-1,4,4,0,0,1-.188-1.235Z" transform="translate(99.455 17.181)"/><path class="a" d="M186.711,30.32v6.065l-4.236-6.065H181.35v7.768h1.094v-6.08l4.251,6.08h1.11V30.32Z" transform="translate(102.107 17.181)"/><path class="a" d="M188.773,37.088a3.282,3.282,0,0,0,2.266-.719,2.72,2.72,0,0,0,.8-2.126,2.829,2.829,0,0,0-.782-2.173,3.126,3.126,0,0,0-2.313-.75H187.32v5.768ZM186.21,30.32H188.8a6.393,6.393,0,0,1,1.688.219,3.6,3.6,0,0,1,1.344.719,3.532,3.532,0,0,1,.875,1.219,4.5,4.5,0,0,1,.313,1.751,4.423,4.423,0,0,1-.313,1.7,3.376,3.376,0,0,1-2.141,1.923,5.908,5.908,0,0,1-1.7.234h-2.579Z" transform="translate(104.843 17.181)"/><path class="a" d="M172.98,23.9h2.157v2.97h2.985V23.9h2.157v8.128h-2.157V28.855h-2.985v3.173H172.98Z" transform="translate(97.394 13.566)"/><path class="a" d="M178.59,23.9h5.846v1.876h-3.689v1.25h3.032v1.751h-3.032v1.391h3.939v1.86h-6.1Z" transform="translate(100.553 13.566)"/><path class="a" d="M186.357,27.568a1,1,0,0,0,.7-.266.953.953,0,0,0,.266-.7,1,1,0,0,0-.266-.719.891.891,0,0,0-.719-.266H185.31v1.954Zm-3.126-3.658h3.345a3.908,3.908,0,0,1,1.188.156,2.454,2.454,0,0,1,.907.516,2.126,2.126,0,0,1,.594.828,2.938,2.938,0,0,1,.2,1.157,2.657,2.657,0,0,1-.344,1.391,3.032,3.032,0,0,1-.938.953l1.735,3.126h-2.345L186.2,29.272h-.907v2.751H183.2Z" transform="translate(103.149 13.571)"/><rect class="a" width="2.157" height="8.112" transform="translate(294.008 37.466)"/><path class="a" d="M192.585,25.791H190.1V23.9h7.143v1.891h-2.47v6.237h-2.188Z" transform="translate(107.034 13.566)"/><path class="a" d="M199.033,28.751l-.891-2.985-.938,2.985Zm-2.048-4.861h2.47L202.331,32H200l-.531-1.688h-2.7L196.235,32H194Z" transform="translate(109.229 13.56)"/><path class="a" d="M203.765,27.448h3.329v3.673a4.532,4.532,0,0,1-1.672.891,6.5,6.5,0,0,1-1.891.266,4.814,4.814,0,0,1-1.766-.3,3.517,3.517,0,0,1-1.329-.844,3.845,3.845,0,0,1-.844-1.344,5.33,5.33,0,0,1-.281-1.782,4.689,4.689,0,0,1,.313-1.7,3.876,3.876,0,0,1,2.2-2.188,4.3,4.3,0,0,1,1.7-.328,5.346,5.346,0,0,1,1.891.344,3.251,3.251,0,0,1,1.485,1.11L205.5,26.65a3.612,3.612,0,0,0-.8-.61,1.954,1.954,0,0,0-1.016-.25,2.157,2.157,0,0,0-.922.188,2.11,2.11,0,0,0-.672.485,2.143,2.143,0,0,0-.422.735,2.8,2.8,0,0,0-.141.891,2.6,2.6,0,0,0,.156.953,2.22,2.22,0,0,0,.438.719,2.11,2.11,0,0,0,.688.453,2.314,2.314,0,0,0,.891.172,3.017,3.017,0,0,0,.766-.094,2.454,2.454,0,0,0,.7-.344v-.782h-1.407Z" transform="translate(112.219 13.504)"/><path class="a" d="M205.14,23.9h5.846v1.876H207.3v1.25h3.032v1.751H207.3v1.391h3.954v1.86H205.14Z" transform="translate(115.502 13.566)"/><path class="a" d="M186.96,16.388a2.735,2.735,0,0,0,2.048-.907,2.861,2.861,0,0,0,.563-.969,3.532,3.532,0,0,0,0-2.36,2.86,2.86,0,0,0-.563-.969,2.5,2.5,0,0,0-.891-.656,2.939,2.939,0,0,0-2.3,0,2.641,2.641,0,0,0-.891.656,3.5,3.5,0,0,0-.563.969,3.814,3.814,0,0,0,0,2.36,3.5,3.5,0,0,0,.563.969,2.641,2.641,0,0,0,.891.656,2.5,2.5,0,0,0,1.141.25m0,1.047a3.908,3.908,0,0,1-1.563-.313,4.268,4.268,0,0,1-1.266-.875,3.767,3.767,0,0,1-.828-1.3,4.2,4.2,0,0,1-.313-1.563,4.142,4.142,0,0,1,.313-1.563,3.907,3.907,0,0,1,.828-1.3,3.72,3.72,0,0,1,1.25-.86,3.923,3.923,0,0,1,3.126,0,3.72,3.72,0,0,1,1.25.86,4.22,4.22,0,0,1,.844,1.3,4.126,4.126,0,0,1,.3,1.563,4.19,4.19,0,0,1-.3,1.563,4.048,4.048,0,0,1-.844,1.3,4,4,0,0,1-1.25.875,4.064,4.064,0,0,1-1.563.313" transform="translate(103.03 5.369)"/><path class="a" d="M190.61,9.43h1.125l4.236,6.065V9.43h1.094v7.753h-1.11L191.7,11.118v6.065H190.61Z" transform="translate(107.321 5.419)"/><path class="a" d="M183.167,14.1l-1.25-3.423L180.651,14.1ZM181.385,9.41h1.078l3.032,7.815h-1.25l-.735-2.2h-3.126l-.8,2.173H178.4Z" transform="translate(100.446 5.408)"/><rect class="a" width="1.11" height="7.768" transform="translate(295.32 14.849)"/><path class="a" d="M180.188,9.43h-1.125l-2.345,4-2.345-4h-1.141l-.313,7.753h1.094l.2-6.065,2.266,3.7h.469l2.266-3.7.2,6.065h1.094Z" transform="translate(97.361 5.419)"/><path class="a" d="M211.43,22.85l1.3-1.563a2.985,2.985,0,0,0,2.016.922c.594,0,.969-.25,1.016-.531v-.141c0-.359-.3-.625-1.344-.953-1.563-.516-2.47-1.11-2.516-2.5v-.109a2.8,2.8,0,0,1,3.126-2.485,4.283,4.283,0,0,1,3.017,1.047l-1.11,1.438a2.563,2.563,0,0,0-1.829-.75c-.516,0-.922.234-.922.547v.094c0,.359.234.531,1.3.86,1.8.547,2.7,1.172,2.7,2.657v.172a2.907,2.907,0,0,1-3.267,2.563,4.689,4.689,0,0,1-3.486-1.188" transform="translate(119.043 8.818)"/><path class="a" d="M199.348,20.986a2.516,2.516,0,0,1-2.094,1.078,2.141,2.141,0,0,1-2.079-2.251h0a2.141,2.141,0,0,1,2.063-2.266,2.657,2.657,0,0,1,2,1l1.407-1.407a4.377,4.377,0,0,0-7.815,2.688h0a4.236,4.236,0,0,0,4.345,4.283,4.345,4.345,0,0,0,3.5-1.719Z" transform="translate(108.571 8.821)"/><path class="a" d="M175.972,21.862a2.032,2.032,0,0,0,2.219-2.157,2.563,2.563,0,0,0-.141-.875,1.782,1.782,0,0,0-.406-.688,1.922,1.922,0,0,0-.688-.438,2.61,2.61,0,0,0-.985-.156H175.1v4.314Zm-3.017-6.252h3.126a5.5,5.5,0,0,1,1.719.25,3.83,3.83,0,0,1,1.391.735,3.517,3.517,0,0,1,.907,1.282,4.689,4.689,0,0,1,.328,1.829,4.064,4.064,0,0,1-.344,1.751,3.36,3.36,0,0,1-.907,1.25,3.626,3.626,0,0,1-1.391.75,5.58,5.58,0,0,1-1.719.25H172.94Z" transform="translate(97.372 8.898)"/><path class="a" d="M188.017,20.5l-.891-2.97-.938,2.97ZM185.97,15.64h2.47l2.86,8.1h-2.313l-.531-1.672h-2.7l-.531,1.672H183Z" transform="translate(103.036 8.915)"/><path class="a" d="M208.707,20.5l-.891-2.97-.938,2.97ZM206.66,15.64h2.47l2.86,8.1h-2.313l-.531-1.672h-2.7l-.531,1.672H203.69Z" transform="translate(114.685 8.915)"/><path class="a" d="M198.5,15.64h2.141v2.97h2.985V15.64h2.157v8.1h-2.157V20.579h-2.985v3.157H198.5Z" transform="translate(111.763 8.915)"/><rect class="a" width="2.157" height="8.112" transform="translate(327.472 24.555)"/><path class="a" d="M190.921,15.64H188.78v8.1h6.08V21.892h-3.939Z" transform="translate(106.29 8.915)"/><path class="a" d="M31.089,20.319c0-.3.078-.438.313-.485h.25c.094,0,.141,0,.141-.094s0,0-.172,0H29.26s0,.094.141.094a1.016,1.016,0,0,1,.313,0c.188,0,.266.188.281.469s0,.516,0,1.813v3.407c0,.359-.078.391-.25.422a.875.875,0,0,1-.313,0h-.141s0,.094.172.094H31.87c.094,0,.156,0,.156-.094s0,0-.125,0a1.876,1.876,0,0,1-.438,0c-.266,0-.313-.188-.344-.406s0-1.047,0-1.86V20.3m13.13,2.188c-1.235-1.235-2.532-2.626-2.626-2.735s-.234-.266-.328-.266-.109.125-.109.3v5.033c0,.75,0,1-.25,1.063a1.766,1.766,0,0,1-.391,0H40.4s0,.094.188.094h1.985c.109,0,.188,0,.188-.094s0,0-.141,0a1.407,1.407,0,0,1-.438,0c-.172,0-.281-.281-.313-.938V21.367h0c.156.156,1.094,1.219,2.032,2.141s1.969,1.985,2.516,2.5a.453.453,0,0,0,.281.188c.078,0,.109-.078.109-.266l.094-5.361c0-.485.078-.656.313-.735h.25c.109,0,.156,0,.156-.078s-.078,0-.188,0H45.109s0,.078.141.078a1.563,1.563,0,0,1,.453,0c.2.078.281.25.281.766l.094,3.814h0c-.141-.125-1.3-1.36-1.876-1.938M41.936,32.824a3.408,3.408,0,0,1-.844-.094c-.094,0-.094,0-.109-.109s0-.969,0-1.641V29.948a.156.156,0,0,1,.141-.156h.453c.953,0,1.282.953,1.282,1.844a1.313,1.313,0,0,1-.328,1,.782.782,0,0,1-.578.2m5.064,2.97h1.329c.094,0,.156,0,.156-.078s0-.078-.125-.078h-.438c-.266,0-.313-.188-.344-.422s0-1.032,0-1.86V30.01c0-.234.078-.438.313-.485h.25c.094,0,.141,0,.141-.078s0-.078-.172-.078H45.985c-.141,0-.219,0-.219.078s0,.078.141.078h.313c.188,0,.266.188.281.485s0,.516,0,1.8v3.423c0,.3,0,.391-.25.422h-.313a3.219,3.219,0,0,1-.516,0c-1-.234-1.766-1.563-2.532-2.829a1.985,1.985,0,0,0,1.016-1.751,1.563,1.563,0,0,0-1.7-1.641H39.295c-.125,0-.188,0-.188.078s0,.078.141.078h.344c.281,0,.344.188.359.485s0,.516,0,1.8v3.376c0,.359-.078.438-.234.469H39.4a.141.141,0,0,0-.141.078s0,.078.172.078h2.3c.109,0,.172,0,.172-.078s0-.078-.109-.078h-.422c-.25,0-.3-.219-.328-.469s0-1.469,0-1.954c0-.094,0-.094.109-.078a3.829,3.829,0,0,0,.969,0c.875,1.563,1.438,2.657,3.017,2.657h1.938M35.95,19.9c1.407,0,2.5,1.188,2.5,3.126,0,2.454-1.375,2.751-1.969,2.751-1.563,0-2.626-1.407-2.626-3.126,0-2.126,1.125-2.673,2.094-2.673m.172,6.252a3.361,3.361,0,0,0,3.517-3.486A3.126,3.126,0,0,0,36.2,19.616a3.345,3.345,0,1,0,0,6.674m-3.032,8.55a.192.192,0,0,0-.172.125,3.252,3.252,0,0,1-.328.328,1.923,1.923,0,0,1-1.235.25c-.672,0-.828-.078-.969-.2s-.188-.735-.188-1.829V30.151c0-.234.094-.453.313-.485h.344c.094,0,.156,0,.156-.078s0-.078-.188-.078H28.572c-.125,0-.172,0-.172.078s0,.078.141.078h.281c.281,0,.344.188.359.485s0,.5,0,1.8v3.376c0,.359,0,.438-.234.469h-.313c-.094,0-.141,0-.141.078s0,.078.172.078h3.361c.453,0,.656-.109.813-.375l.375-.656v-.141M23.836,39.7c1.391,0,2.438,1.188,2.438,3.126,0,2.454-1.329,2.751-1.923,2.751-1.563,0-2.548-1.407-2.548-3.126,0-2.126,1.047-2.673,2.032-2.673m.156,6.252a3.329,3.329,0,0,0,3.47-3.5A3.032,3.032,0,0,0,24.086,39.4a3.345,3.345,0,1,0-.094,6.674m3.673-10.394.375-.656v-.141c0-.031-.125,0-.172.125a3.251,3.251,0,0,1-.328.328,1.923,1.923,0,0,1-1.235.25c-.672,0-.828-.078-.969-.2a4.151,4.151,0,0,1-.328-2V30.026c0-.234.094-.453.313-.485h.344c.094,0,.141,0,.141-.078s0-.078-.172-.078H23.3c-.125,0-.188,0-.188.078s0,.078.156.078h.281c.281,0,.344.188.359.485s0,.5,0,1.8V35.2c0,.359,0,.438-.234.469h-.313c-.094,0-.141,0-.141.078s0,.078.172.078h3.361c.453,0,.656-.109.813-.375M7.362,52.643,3.829,55.3H69.946l-3.517-2.657Zm12.5-19.491H18.3l.8-2.094v0l.782,2.11h0m.25.485.672,1.8a.141.141,0,0,1-.078.2c-.078,0-.109,0-.109.078s.094,0,.25,0H22.43c.313,0,.391,0,.391-.078s0-.078-.109-.078a1.453,1.453,0,0,1-.359,0c-.188,0-.422-.156-.75-.922-.547-1.3-1.907-4.767-2.11-5.236-.078-.2-.141-.281-.219-.281s-.125.094-.234.344L16.9,34.824c-.156.422-.328.719-.719.766h-.234s-.094,0-.094.078,0,.078.156.078h1.907c.094,0,.141,0,.141-.078s0-.078-.125-.078H17.8c-.266,0-.344-.109-.344-.266a1.954,1.954,0,0,1,.125-.516l.469-1.219h1.985M0,52.471l2.642-1.985V4.877L0,2.892ZM71.165,4.877V50.486l2.642,1.985V2.892ZM56.91,35.5a1.36,1.36,0,0,1-1.407-.782,1.735,1.735,0,0,1,0-.438c0-.078,0-.141-.094-.141s-.094.094-.094.219v1.11c0,.188,0,.234.156.3a4.267,4.267,0,0,0,1.469.219c1.563,0,2.5-.782,2.5-1.923a1.657,1.657,0,0,0-.453-1.219A5.33,5.33,0,0,0,57.567,32c-1-.453-1.36-.719-1.36-1.36s.735-.922,1.313-.922a1.438,1.438,0,0,1,1.172.406,1.079,1.079,0,0,1,.219.547v.156s.094,0,.094-.25V29.557c0-.109,0-.094-.109-.109a7.456,7.456,0,0,0-1.375-.141c-1.36,0-2.22.672-2.22,1.719s.438,1.36,1.563,1.876a5.8,5.8,0,0,1,1.282.672,1.157,1.157,0,0,1,.422.875c0,.75-.531,1.047-1.563,1.047m-2.845,0c.141-.234.313-.563.359-.656s0-.109,0-.141-.125,0-.172.125a1.563,1.563,0,0,1-.328.328,3.235,3.235,0,0,1-2.376,0c-.109-.078-.156-.313-.172-.688V32.636h1.454a.42.42,0,0,1,.469.344,2.823,2.823,0,0,1,0,.3V33.2a4.926,4.926,0,0,1,0-.578,4.846,4.846,0,0,1,0-.625l-.141.109a.576.576,0,0,1-.406.125H51.283V29.87h1.688c.422,0,.5.156.563.313a.844.844,0,0,1,0,.313V30.6a.1.1,0,0,0,.094-.094c.016-.094,0-.469,0-.563a5.272,5.272,0,0,1,0-.547H49.6c-.125,0-.172,0-.172.078s0,.078.141.078h.328c.281,0,.344.188.36.485s0,.516,0,1.8v3.376c0,.156,0,.438-.25.469h-.313c-.094,0-.141,0-.141.078s0,.078.172.078h3.548a.8.8,0,0,0,.813-.375m-2.767-12.02H49.752l.782-2.094v0l.766,2.11h0m.844,2.485s-.109,0-.109.078.094,0,.25,0h1.563c.266,0,.391,0,.391-.094s0,0-.109,0h-.359c-.172,0-.422-.156-.75-.922-.547-1.3-1.907-4.689-2.11-5.236a.248.248,0,0,0-.2-.266c-.063,0-.141.094-.25.344l-2,5.267c-.172.422-.344.7-.735.766h-.36s0,.094.156.094h1.907c.094,0,.156,0,.156-.094s0,0-.141,0h-.125c-.266,0-.344-.109-.344-.266a1.422,1.422,0,0,1,.141-.516l.453-1.219h1.891a.078.078,0,0,1,.094,0l.672,1.813a.125.125,0,0,1-.078.188m4.439-5.564c0-.3.094-.438.328-.485h.328c.094,0,.156,0,.156-.078s0,0-.188,0h-2.5s0,.078.141.078h.281c.281,0,.344.2.359.485s0,.516,0,1.813v3.3c0,.344-.078.438-.25.469a1.469,1.469,0,0,1-.313,0H54.8s0,.078.156.078h3.376a.8.8,0,0,0,.8-.359l.375-.656v-.156c0-.031-.125,0-.172.125a2.172,2.172,0,0,1-.328.328,1.923,1.923,0,0,1-1.235.25c-.672,0-.828,0-.969-.188a4.364,4.364,0,0,1-.188-1.844v-3.3M34.293,34.527V35.2c0,.156-.078.438-.25.469H33.73c-.094,0-.125,0-.125.078s0,.078.156.078H37.31a.8.8,0,0,0,.813-.375,6.378,6.378,0,0,0,.359-.656v-.141c0-.031-.125,0-.172.125a2.3,2.3,0,0,1-.344.328,1.922,1.922,0,0,1-1.235.25,1.938,1.938,0,0,1-1.141-.2c-.109-.078-.141-.313-.172-.688V32.636h1.438a.449.449,0,0,1,.485.344.6.6,0,0,1,0,.3v.078a.349.349,0,0,0,.078-.156v-.578a4.846,4.846,0,0,1,0-.625h0l-.125.109c-.125.109-.2.109-.422.125H35.309V29.87H37c.422,0,.516.156.563.313a.907.907,0,0,1,0,.313V30.6l.094-.094c.094-.094,0-.469,0-.563a3.719,3.719,0,0,1,0-.547H33.637c-.125,0-.188,0-.188.078s0,.078.141.078h.328c.281,0,.359.188.375.485s0,.516,0,1.8v2.7M54.988,41.7V40a.172.172,0,0,1,.094-.172,2.547,2.547,0,0,1,.563,0,2.86,2.86,0,0,1,2.985,2.985,2.454,2.454,0,0,1-.7,2.016,2.141,2.141,0,0,1-1.657.5c-.672,0-1-.094-1.125-.25a2.267,2.267,0,0,1-.094-.656c0-.156,0-.813,0-1.719Zm-1.094,3.439c0,.25,0,.438-.25.469H53.19s0,.078.172.078h2.907a3.236,3.236,0,0,0,2.61-1,3.126,3.126,0,0,0,.922-2.282,3.032,3.032,0,0,0-.813-2.157,3.955,3.955,0,0,0-3.126-.985H53.331q-.188,0-.188.094h.485c.281,0,.344.2.36.485s0,.516,0,1.8v3.376m-42.733.406a1.36,1.36,0,0,1-1.407-.782,1.735,1.735,0,0,1,0-.438v-.141a.423.423,0,0,0-.109.219c-.016.125,0,.641,0,1.11,0,.188,0,.234.156.3a4.173,4.173,0,0,0,1.454.219c1.563,0,2.5-.782,2.5-1.923a1.657,1.657,0,0,0-.453-1.219,5.111,5.111,0,0,0-1.422-.844c-.985-.453-1.36-.719-1.36-1.36s.735-.907,1.313-.907a1.422,1.422,0,0,1,1.172.391,1.079,1.079,0,0,1,.031.594v.141s.109,0,.109-.25V39.514c0-.109,0-.094-.125-.109a7.16,7.16,0,0,0-1.375-.141c-1.344,0-2.22.672-2.22,1.719s.438,1.36,1.563,1.876a5.658,5.658,0,0,1,1.266.672,1.11,1.11,0,0,1,.422.891c0,.735-.516,1.032-1.563,1.032m31-2.313H40.639l.8-2.094h0l.766,2.11h0m.844,2.485h1.7c.313,0,.391,0,.391-.078s0,0-.109,0a1.454,1.454,0,0,1-.359,0c-.172,0-.422-.156-.75-.922-.547-1.3-1.907-4.689-2.11-5.236-.078-.2-.141-.266-.219-.266s-.125.094-.234.328l-2.141,5.346c-.156.422-.328.719-.719.766h-.359s0,.078.156.078H40.2c.094,0,.141,0,.141-.078s0,0-.125,0H40.17c-.266,0-.344-.109-.344-.25a1.907,1.907,0,0,1,.125-.531l.469-1.219h2.063l.672,1.8a.141.141,0,0,1-.078.2m-8.69-.453c0,.25-.078.438-.25.469h-.453s0,.094.172.094h3.361c.453,0,.656-.109.813-.375l.375-.656v-.141c0-.031-.125,0-.172.109a3.407,3.407,0,0,1-.328.344,2.032,2.032,0,0,1-1.235.25c-.672,0-.828-.078-.969-.2s-.188-.735-.188-1.829V39.826c0-.234.094-.453.328-.485h.328c.094,0,.156,0,.156-.078s0,0-.188,0H33.621s0,.078.156.078h.281c.281,0,.344.188.359.485s0,.5,0,1.8V45m-2.673-5.142c.766,0,.985.25,1.016.469v.094c0,.125,0,.172.094.172s0,0,.078-.141a4.145,4.145,0,0,0,0-.985c0-.188,0-.172-.078-.172a3.861,3.861,0,0,1-.813.078H28.057a2.72,2.72,0,0,1-.359-.109l-.109.156a3.187,3.187,0,0,0-.172.985c0,.141,0,.141.078.141s0,0,.094-.109a.8.8,0,0,1,.141-.3c.125-.188.328-.234.828-.25H29.7v5.3c0,.359,0,.438-.234.469H29.01s0,.078.172.078h2.391c.094,0,.172,0,.172-.078s0,0-.141,0h-.438c-.25,0-.3-.219-.328-.453s0-1.047,0-1.829V39.826ZM48.939,43.2c.891.875,1.923,1.985,2.454,2.5a.531.531,0,0,0,.3.188.326.326,0,0,0,.109-.266l.094-5.377c0-.469,0-.656.313-.719a.735.735,0,0,1,.25,0h.156a.334.334,0,0,0-.2-.094h-1.86c-.125,0-.219,0-.219.094s0,0,.141,0a1.094,1.094,0,0,1,.438,0c.219.078.3.234.3.766l.094,3.814h0c-.141-.141-1.235-1.36-1.813-1.938-1.25-1.235-2.532-2.626-2.642-2.735s-.219-.266-.313-.266-.109.125-.109.3L46.344,44.5c0,.75,0,.985-.266,1.063a1.656,1.656,0,0,1-.391,0h-.125a.292.292,0,0,0,.188.078h1.923c.125,0,.2,0,.2-.078s0,0-.156,0a1.438,1.438,0,0,1-.438,0c-.172,0-.281-.281-.3-.953l-.094-3.564h0c.141.172,1.094,1.235,2.016,2.157M15.287,35.293V33.355c0-.266.109-.531.344-.531h.219s.109,0,.109-.078,0-.078-.172-.078h-2.22c-.125,0-.188,0-.188.078s0,.078.141.078h.328c.281,0,.359.2.359.485v1.813a.3.3,0,0,1-.172.313,1.86,1.86,0,0,1-.719.094A2.954,2.954,0,0,1,10.363,32.4a2.485,2.485,0,0,1,.782-2.079,2.423,2.423,0,0,1,1.7-.625,2.735,2.735,0,0,1,1.891.656,1.313,1.313,0,0,1,.3.719s0,.109.078.109.094,0,.094-.188a10.831,10.831,0,0,1,0-1.391s0-.094-.125-.109a3.313,3.313,0,0,1-.672-.094,11.192,11.192,0,0,0-1.563-.125,4.2,4.2,0,0,0-2.3.547A3.2,3.2,0,0,0,8.987,32.6c.2,2.391,2.063,3.345,4.142,3.345a4.689,4.689,0,0,0,2.048-.391c.109,0,.109-.078.109-.3m-2.11-12.8c-1.25-1.235-2.548-2.626-2.642-2.735s-.219-.266-.313-.266-.109.125-.109.3V24.79c0,.75,0,1-.266,1.063a1.672,1.672,0,0,1-.391,0H9.331s0,.078.188.078H11.41c.125,0,.188,0,.188-.078s0,0-.141,0a1.563,1.563,0,0,1-.438,0c-.172,0-.281-.281-.3-.938l-.094-3.595h0c.141.156,1.094,1.219,2.016,2.141l2.516,2.5c.094.094.188.188.281.188s.109-.078.109-.266l.078-5.361c0-.485.078-.656.328-.735h.25c.094,0,.156,0,.156-.078s-.094,0-.2,0H14.13s0,.078.125.078a1.563,1.563,0,0,1,.453,0c.2.078.281.25.3.766l.078,3.814h0c-.141-.125-1.282-1.36-1.86-1.938M66.429,2.642,69.946,0H3.845L7.378,2.642ZM20.21,23.446H18.647l.782-2.094v0l.891,2h0M22.1,24.915c-.547-1.3-1.907-4.689-2.11-5.236-.094-.188-.141-.266-.219-.266s-.141.094-.234.344L17.4,25.1c-.172.422-.328.7-.719.766H16.3s0,.078.172.078h1.907q.141,0,.141-.094h-.25c-.266,0-.344-.109-.344-.266a1.344,1.344,0,0,1,.125-.516l.453-1.219H20.32a.078.078,0,0,1,.078,0l.688,1.813a.141.141,0,0,1,0,.188c-.094,0-.125,0-.125.078s.109,0,.266,0h1.563c.266,0,.391,0,.391-.094s0,0-.109,0h-.344c-.188,0-.438-.156-.75-.922m-6.69,20.069a4.126,4.126,0,0,0,2.86.922,4.376,4.376,0,0,0,1.469-.2c.141,0,.172-.094.219-.25a8.769,8.769,0,0,0,.188-1.125s0-.125-.078-.125,0,0-.109.172a1.313,1.313,0,0,1-.3.563c-.328.391-.719.469-1.485.469a2.8,2.8,0,0,1-2.61-3.017,2.876,2.876,0,0,1,.782-2.22,2.094,2.094,0,0,1,1.563-.516,2.345,2.345,0,0,1,1.657.516,1.3,1.3,0,0,1,.344.8v.172s.094,0,.094-.188V39.56c0-.078,0-.094-.125-.094s-.531-.109-.86-.156a7.908,7.908,0,0,0-1.157,0,3.548,3.548,0,0,0-2.626.907,3.126,3.126,0,0,0-1,2.329,3.235,3.235,0,0,0,1.047,2.516M26.9,20.194c.75,0,.985.25,1,.469v.094c0,.141,0,.172.094.172s0,0,.078-.125a4.273,4.273,0,0,0,0-1v-.172a3.861,3.861,0,0,1-.813.078H23.133c-.219,0-.3-.109-.375-.109s-.078,0-.094.156-.188.844-.188.985v.141s.078,0,.094-.109a1.172,1.172,0,0,1,.141-.3c.141-.188.344-.219.828-.25h1.266V25.54c0,.359-.078.422-.25.453a.875.875,0,0,1-.313,0h-.125s0,.094.156.094H26.7c.094,0,.156,0,.156-.094s0,0-.141,0a2.079,2.079,0,0,1-.438,0c-.25,0-.3-.219-.328-.453s0-1.032,0-1.813V20.085Z" transform="translate(0 0.109)"/><path class="a" d="M85.738,18l-4.08-5.58V18H79.83V9.45h1.876l3.97,5.377V9.45h1.813V18Z" transform="translate(44.947 5.43)"/><path class="a" d="M90.118,15.205V13.033a1.782,1.782,0,0,0-1.391-.719,1.563,1.563,0,0,0-1.563,1.8,1.563,1.563,0,0,0,1.563,1.8,1.719,1.719,0,0,0,1.391-.7m0,2v-.8a2.36,2.36,0,0,1-1.907.953c-1.563,0-2.751-1.172-2.751-3.251a2.86,2.86,0,0,1,2.751-3.251,2.36,2.36,0,0,1,1.907.953v-.735h1.563v6.252Z" transform="translate(48.102 6.224)"/><path class="a" d="M91.016,16.21V12.99H90v-1.36h1.032V9.88h1.563v1.751h1.25v1.422h-1.25v2.782c0,.406.2.688.563.688a.782.782,0,0,0,.563-.188l.344,1.25a1.985,1.985,0,0,1-1.36.391,1.563,1.563,0,0,1-1.735-1.7" transform="translate(50.673 5.672)"/><path class="a" d="M93.188,11.963h1.563v6.252H93.188ZM93,10.259a.969.969,0,1,1,.969.969A.969.969,0,0,1,93,10.259" transform="translate(52.363 5.34)"/><path class="a" d="M99.751,14.122a1.563,1.563,0,1,0-1.563,1.563,1.563,1.563,0,0,0,1.563-1.563m-4.861,0A3.282,3.282,0,1,1,98.172,17.4a3.282,3.282,0,0,1-3.282-3.282" transform="translate(53.427 6.213)"/><path class="a" d="M103.911,17.189V13.453A1,1,0,0,0,102.77,12.3a1.8,1.8,0,0,0-1.407.719v4.173H99.8V11.061h1.563v.8a2.845,2.845,0,0,1,2.157-.953,1.813,1.813,0,0,1,2.032,1.969v4.377Z" transform="translate(56.191 6.241)"/><path class="a" d="M108.828,15.205V13.033a1.813,1.813,0,0,0-1.407-.719,1.563,1.563,0,0,0-1.563,1.8,1.563,1.563,0,0,0,1.563,1.8,1.751,1.751,0,0,0,1.407-.7m0,2v-.8a2.391,2.391,0,0,1-1.923.953c-1.563,0-2.735-1.172-2.735-3.251s1.157-3.251,2.735-3.251a2.391,2.391,0,0,1,1.923.953v-.735h1.563v6.252Z" transform="translate(58.652 6.224)"/><path class="a" d="M109.175,16.452v-7h1.563v6.565c0,.406.2.688.563.688a.782.782,0,0,0,.563-.188l.344,1.25a2,2,0,0,1-1.36.391,1.563,1.563,0,0,1-1.735-1.7" transform="translate(61.43 5.43)"/><path class="a" d="M113.51,18V9.45h1.844v6.956h3.611V18Z" transform="translate(63.911 5.43)"/><path class="a" d="M117.736,11.94H119.3v6.252h-1.563ZM117.58,10.3a.969.969,0,1,1,.969.969.953.953,0,0,1-.969-.969" transform="translate(66.202 5.363)"/><path class="a" d="M122.746,16.7a1.563,1.563,0,0,0,1.563-1.8,1.563,1.563,0,0,0-1.563-1.8,1.813,1.813,0,0,0-1.407.719v2.188a1.782,1.782,0,0,0,1.407.688M119.62,18V9.45h1.563v3.126a2.345,2.345,0,0,1,1.907-.953c1.563,0,2.735,1.235,2.735,3.251s-1.016,3.251-2.579,3.251a2.36,2.36,0,0,1-1.907-.953v.8Z" transform="translate(67.351 5.43)"/><path class="a" d="M124.4,17.183V11.056h1.563v.828a2.751,2.751,0,0,1,1.985-.985v1.563a1.922,1.922,0,0,0-.453,0,2.032,2.032,0,0,0-1.563.7v4.08Z" transform="translate(70.042 6.247)"/><path class="a" d="M131.678,15.205V13.033a1.813,1.813,0,0,0-1.407-.719,1.563,1.563,0,0,0-1.563,1.8,1.563,1.563,0,0,0,1.563,1.8,1.751,1.751,0,0,0,1.407-.7m0,2v-.8a2.391,2.391,0,0,1-1.923.953c-1.563,0-2.735-1.172-2.735-3.251s1.157-3.251,2.735-3.251a2.391,2.391,0,0,1,1.923.953v-.735h1.563v6.252Z" transform="translate(71.517 6.224)"/><path class="a" d="M132,17.183V11.056h1.563v.828a2.735,2.735,0,0,1,1.969-.985v1.563a1.719,1.719,0,0,0-.438,0,2.032,2.032,0,0,0-1.563.7v4.08Z" transform="translate(74.321 6.247)"/><path class="a" d="M134.843,18.721l.735-1.172a2.407,2.407,0,0,0,1.86.766,1.563,1.563,0,0,0,1.657-1.563v-.641a2.892,2.892,0,0,1-2.173.938,1.782,1.782,0,0,1-2-1.954V11h1.563v3.486a1,1,0,0,0,1.141,1.141,1.813,1.813,0,0,0,1.407-.7V11h1.641v5.783a2.907,2.907,0,0,1-3.3,2.923,3.751,3.751,0,0,1-2.595-.922" transform="translate(75.886 6.303)"/><path class="a" d="M84.412,21.794a1.563,1.563,0,1,0-1.563,1.563,1.563,1.563,0,0,0,1.563-1.563m-4.861,0a3.282,3.282,0,1,1,3.282,3.251,3.126,3.126,0,0,1-3.282-3.251" transform="translate(44.789 10.514)"/><path class="a" d="M85.086,25.722V21.033H84.07V19.611h1.016v-.266A2.016,2.016,0,0,1,87.165,17a2.579,2.579,0,0,1,1.188.25l-.344,1.2a.969.969,0,0,0-.516-.125c-.469,0-.766.3-.766.891v.266h1.25v1.422h-1.25V25.6Z" transform="translate(47.335 9.68)"/><path class="a" d="M88.84,24.5l1-1.422a3.8,3.8,0,0,0,2.72,1.172c1.016,0,1.563-.453,1.563-.953,0-1.485-4.924-.453-4.924-3.673,0-1.422,1.235-2.595,3.251-2.595A4.689,4.689,0,0,1,95.78,18.22l-1.016,1.36a3.658,3.658,0,0,0-2.485-.938c-.766,0-1.2.328-1.2.844,0,1.344,4.908.438,4.908,3.626,0,1.563-1.125,2.751-3.423,2.751a4.924,4.924,0,0,1-3.642-1.36" transform="translate(50.02 9.696)"/><path class="a" d="M93.821,21.773A3.126,3.126,0,0,1,97.1,18.522a2.892,2.892,0,0,1,2.454,1.11l-1.063,1a1.563,1.563,0,0,0-1.313-.656,1.8,1.8,0,0,0,0,3.595,1.563,1.563,0,0,0,1.313-.672l1.063,1A2.892,2.892,0,0,1,97.1,25.024a3.126,3.126,0,0,1-3.282-3.251" transform="translate(52.823 10.535)"/><path class="a" d="M102.752,21.794a1.563,1.563,0,1,0-1.563,1.563,1.563,1.563,0,0,0,1.563-1.563m-4.861,0a3.282,3.282,0,1,1,3.282,3.251,3.126,3.126,0,0,1-3.282-3.251" transform="translate(55.115 10.514)"/><path class="a" d="M103.372,23.87V20.65H102.34V19.228h1.032V17.54h1.563v1.688h1.25V20.65h-1.25v2.782c0,.391.2.688.563.688a.782.782,0,0,0,.563-.188l.344,1.235a1.969,1.969,0,0,1-1.36.406,1.563,1.563,0,0,1-1.672-1.7" transform="translate(57.621 9.985)"/><path class="a" d="M105.565,24.112v-7h1.563v6.565c0,.391.2.688.563.688a.781.781,0,0,0,.563-.188l.344,1.235a2,2,0,0,1-1.36.406,1.563,1.563,0,0,1-1.735-1.7" transform="translate(59.398 9.743)"/><path class="a" d="M112.332,22.865V20.693a1.735,1.735,0,0,0-1.391-.719,1.563,1.563,0,0,0-1.563,1.8,1.563,1.563,0,0,0,1.563,1.8,1.766,1.766,0,0,0,1.391-.7m0,2v-.8a2.345,2.345,0,0,1-1.907.953c-1.563,0-2.735-1.188-2.735-3.251s1.157-3.251,2.735-3.251a2.36,2.36,0,0,1,1.907.953v-.8H113.9v6.252Z" transform="translate(60.634 10.537)"/><path class="a" d="M116.861,24.894V21.142A1,1,0,0,0,115.72,20a1.8,1.8,0,0,0-1.407.719v4.173H112.75V18.642h1.563v.8a2.876,2.876,0,0,1,2.173-.953,1.8,1.8,0,0,1,2.016,1.969v4.377Z" transform="translate(63.483 10.509)"/><path class="a" d="M121.828,23.648V21.46a1.766,1.766,0,0,0-1.391-.7,1.563,1.563,0,0,0-1.563,1.8,1.563,1.563,0,0,0,1.563,1.8,1.766,1.766,0,0,0,1.391-.7m0,2v-.8a2.36,2.36,0,0,1-1.907.953c-1.563,0-2.751-1.188-2.751-3.251a2.86,2.86,0,0,1,2.751-3.251,2.345,2.345,0,0,1,1.907.953V17.13h1.563v8.55Z" transform="translate(65.956 9.754)"/><path class="a" d="M79.67,31.486V25.5h.75v5.314H83.2v.672Z" transform="translate(44.857 14.467)"/><path class="a" d="M84.4,27.037a1.454,1.454,0,0,0-1.422,1.438h2.845A1.391,1.391,0,0,0,84.4,27.037m-2.126,1.719a2.157,2.157,0,0,1,2.141-2.266,2.094,2.094,0,0,1,2.126,2.36v.172H82.99a1.563,1.563,0,0,0,1.563,1.563,1.922,1.922,0,0,0,1.36-.547l.313.438a2.407,2.407,0,0,1-1.719.672,2.157,2.157,0,0,1-2.22-2.282" transform="translate(46.32 15.024)"/><path class="a" d="M88.9,29.713V27.759a1.563,1.563,0,0,0-1.282-.7c-.891,0-1.407.719-1.407,1.688s.516,1.657,1.407,1.657a1.563,1.563,0,0,0,1.282-.688m0,1.188V30.26a1.8,1.8,0,0,1-1.454.75,2,2,0,0,1-1.938-2.188,2.016,2.016,0,0,1,1.938-2.282,1.766,1.766,0,0,1,1.454.766v-.656h.688v4.33Z" transform="translate(48.133 15.052)"/><path class="a" d="M90.923,30.971c.875,0,1.391-.7,1.391-1.657s-.516-1.688-1.391-1.688a1.563,1.563,0,0,0-1.3.7V30.3a1.563,1.563,0,0,0,1.3.672M89,31.486V25.5h.672v2.345a1.766,1.766,0,0,1,1.454-.766,2.016,2.016,0,0,1,1.891,2.329c0,1.407-.8,2.266-1.938,2.266a1.8,1.8,0,0,1-1.454-.75v.641Z" transform="translate(50.11 14.467)"/><path class="a" d="M95.209,31.486v-2.86c0-.766-.391-.985-.985-.985a1.672,1.672,0,0,0-1.266.672V31.44H92.27V25.5h.688v2.345a2.032,2.032,0,0,1,1.563-.735,1.219,1.219,0,0,1,1.391,1.375v3.126Z" transform="translate(51.952 14.467)"/><path class="a" d="M98.672,29.741V27.787a1.563,1.563,0,0,0-1.3-.7c-.875,0-1.391.719-1.391,1.688s.516,1.657,1.391,1.657a1.563,1.563,0,0,0,1.3-.688m0,1.188v-.641a1.844,1.844,0,0,1-1.469.75c-1.125,0-1.923-.86-1.923-2.266s.8-2.282,1.923-2.282a1.782,1.782,0,0,1,1.469.766V26.6h.672v4.33Z" transform="translate(53.646 15.024)"/><path class="a" d="M98.74,30.929V26.6h.672v.688a1.891,1.891,0,0,1,1.454-.8v.7H100.6a1.563,1.563,0,0,0-1.188.7v3.126Z" transform="translate(55.594 15.024)"/><path class="a" d="M100.64,30.58V25.5h.672v4.939c0,.328.141.547.438.547a.578.578,0,0,0,.453-.188l.2.516a1.172,1.172,0,0,1-.813.281c-.641,0-.953-.375-.953-1.016" transform="translate(56.664 14.467)"/><path class="a" d="M105.418,29.741V27.787a1.563,1.563,0,0,0-1.3-.7c-.875,0-1.391.719-1.391,1.688s.516,1.657,1.391,1.657a1.563,1.563,0,0,0,1.3-.688m0,1.188v-.641a1.813,1.813,0,0,1-1.454.75c-1.141,0-1.938-.86-1.938-2.266a2.016,2.016,0,0,1,1.938-2.282,1.766,1.766,0,0,1,1.454.766V26.6h.672v4.33Z" transform="translate(57.435 15.024)"/><path class="a" d="M108.419,30.91V28.081c0-.782-.391-1.016-.969-1.016a1.735,1.735,0,0,0-1.3.672v3.126h-.672V26.58h.672v.688a2.126,2.126,0,0,1,1.563-.735,1.235,1.235,0,0,1,1.375,1.391v3.048Z" transform="translate(59.389 15.043)"/><path class="a" d="M111.588,30.91V28.081c0-.782-.391-1.016-.969-1.016a1.688,1.688,0,0,0-1.282.672v3.126h-.688V26.58h.688v.688a2.063,2.063,0,0,1,1.563-.735,1.235,1.235,0,0,1,1.375,1.391v3.048Z" transform="translate(61.174 15.043)"/><path class="a" d="M117.566,31.486,114.08,26.7v4.783h-.75V25.5h.766l3.439,4.673V25.5h.75v5.986Z" transform="translate(63.809 14.467)"/><path class="a" d="M119.518,26.607l-1.563-1.3h.7l1.329,1.3Zm1.094,3.8V28.452a1.563,1.563,0,0,0-1.3-.7c-.875,0-1.407.719-1.407,1.688a1.469,1.469,0,0,0,1.407,1.657,1.563,1.563,0,0,0,1.3-.688m0,1.188v-.641a1.844,1.844,0,0,1-1.469.75c-1.125,0-1.923-.86-1.923-2.266s.8-2.282,1.923-2.282a1.8,1.8,0,0,1,1.469.766v-.656h.672v4.33Z" transform="translate(65.999 14.36)"/><path class="a" d="M120.719,27.112h.672v4.33h-.672Zm-.109-1.079a.453.453,0,1,1,.453.453.453.453,0,0,1-.453-.453" transform="translate(67.908 14.512)"/><path class="a" d="M121.774,30.391l.344-.485a1.907,1.907,0,0,0,1.422.625c.656,0,1.032-.313,1.032-.75,0-1.047-2.688-.406-2.688-2,0-.688.578-1.25,1.563-1.25a2.188,2.188,0,0,1,1.563.625l-.313.469a1.7,1.7,0,0,0-1.3-.547c-.594,0-.953.3-.953.672,0,.953,2.673.328,2.673,2.016,0,.735-.578,1.313-1.688,1.313a2.282,2.282,0,0,1-1.751-.688" transform="translate(68.511 15.047)"/><path class="a" d="M126.607,27.037a1.438,1.438,0,0,0-1.407,1.438h2.845a1.407,1.407,0,0,0-1.438-1.438m-2.126,1.719a2.173,2.173,0,0,1,2.141-2.266,2.094,2.094,0,0,1,2.079,2.36v.172h-3.5a1.563,1.563,0,0,0,1.563,1.563,1.891,1.891,0,0,0,1.344-.547l.313.438a2.407,2.407,0,0,1-1.719.672,2.157,2.157,0,0,1-2.219-2.282" transform="translate(70.086 15.024)"/><path class="a" d="M131.128,29.741V27.787a1.563,1.563,0,0,0-1.3-.7c-.875,0-1.407.719-1.407,1.688a1.469,1.469,0,0,0,1.407,1.657,1.563,1.563,0,0,0,1.3-.688m0,1.188v-.641a1.844,1.844,0,0,1-1.469.75,2,2,0,0,1-1.938-2.188,2.016,2.016,0,0,1,2.016-2.36,1.829,1.829,0,0,1,1.469.766V26.6h.672v4.33Z" transform="translate(71.895 15.024)"/><path class="a" d="M134.118,30.911V28.082c0-.782-.406-1.016-.985-1.016a1.7,1.7,0,0,0-1.282.672v3.126h-.672V26.581h.672v.688a2.063,2.063,0,0,1,1.563-.735,1.219,1.219,0,0,1,1.375,1.391v3.048Z" transform="translate(73.859 15.042)"/><path class="a" d="M134.688,30.411V27.582H134v-.594h.719V25.8h.672v1.188h.875v.594h-.875V30.27c0,.328.141.547.438.547a.61.61,0,0,0,.453-.188l.2.516a1.141,1.141,0,0,1-.813.281c-.641,0-.953-.375-.953-1.016" transform="translate(75.447 14.636)"/><path class="a" d="M139.272,29.741V27.787a1.563,1.563,0,0,0-1.3-.7c-.875,0-1.407.719-1.407,1.688a1.469,1.469,0,0,0,1.407,1.657,1.563,1.563,0,0,0,1.3-.688m0,1.188v-.641a1.844,1.844,0,0,1-1.469.75c-1.125,0-1.923-.86-1.923-2.266s.8-2.282,1.923-2.282a1.829,1.829,0,0,1,1.469.766V26.6h.672v4.33Z" transform="translate(76.506 15.024)"/><path class="a" d="M82.659,36.941V34.1c0-.766-.406-1-.985-1a1.657,1.657,0,0,0-1.282.672v3.126H79.72V32.6h.672v.672a2.188,2.188,0,0,1,1.563-.735,1.235,1.235,0,0,1,1.375,1.407v3.126Z" transform="translate(44.885 18.422)"/><path class="a" d="M86.122,35.767V33.813a1.563,1.563,0,0,0-1.3-.7c-.875,0-1.391.719-1.391,1.672s.516,1.672,1.391,1.672a1.563,1.563,0,0,0,1.3-.688m0,1.188V36.3a1.86,1.86,0,0,1-1.469.766c-1.125,0-1.923-.875-1.923-2.282A2.012,2.012,0,0,1,84.715,32.5a1.829,1.829,0,0,1,1.469.766v-.656h.672v4.345Z" transform="translate(46.58 18.408)"/><path class="a" d="M90.613,37.506v-2.86c0-.766-.391-.985-.985-.985a1.563,1.563,0,0,0-1.266.672V37.46H87.69V31.52h.672v2.313a2.079,2.079,0,0,1,1.563-.735,1.235,1.235,0,0,1,1.391,1.391v3.126Z" transform="translate(49.373 17.856)"/><rect class="a" width="2.157" height="0.594" transform="translate(141.596 52.893)"/><path class="a" d="M95.036,32.27l1.282,3.235h-2.5Zm-.453-.75L92.16,37.491h.86l.531-1.329H96.6l.516,1.329h.86L95.567,31.52Z" transform="translate(51.89 17.856)"/><path class="a" d="M96.353,36.6V31.52h.672v4.924c0,.328.156.563.438.563a.61.61,0,0,0,.453-.188l.2.516a1.11,1.11,0,0,1-.8.266.891.891,0,0,1-.969-1" transform="translate(54.246 17.856)"/><path class="a" d="M99.869,36.959c.875,0,1.391-.7,1.391-1.672s-.516-1.672-1.391-1.672a1.563,1.563,0,0,0-1.3.7v1.954a1.563,1.563,0,0,0,1.3.688m-1.969.5V31.52h.672v2.313a1.813,1.813,0,0,1,1.454-.766,2.016,2.016,0,0,1,1.938,2.329c0,1.407-.8,2.282-1.938,2.282a1.813,1.813,0,0,1-1.454-.766v.656Z" transform="translate(55.121 17.856)"/><path class="a" d="M104.432,35.767V33.813a1.563,1.563,0,0,0-1.3-.7c-.875,0-1.391.719-1.391,1.672s.516,1.672,1.391,1.672a1.563,1.563,0,0,0,1.3-.688m0,1.188V36.3a1.86,1.86,0,0,1-1.469.766c-1.125,0-1.923-.875-1.923-2.282s.8-2.282,1.923-2.282a1.844,1.844,0,0,1,1.469.766v-.656h.672v4.345Z" transform="translate(56.889 18.408)"/><path class="a" d="M69.65,18.46l12.285,7.081v-13.5L69.65,4.94Z" transform="translate(39.216 2.891)"/><path class="a" d="M74.1,27.794l12.285-7.1L74.04,13.57l-12.27,7.1Z" transform="translate(34.779 7.75)"/></svg>