<svg xmlns="http://www.w3.org/2000/svg" width="73.807" height="55.3" viewBox="0 0 73.807 55.3">
  <path id="Path_1163" data-name="Path 1163" d="M31.089,20.319c0-.3.078-.438.313-.485h.25c.094,0,.141,0,.141-.094s0,0-.172,0H29.26s0,.094.141.094a1.016,1.016,0,0,1,.313,0c.188,0,.266.188.281.469s0,.516,0,1.813v3.407c0,.359-.078.391-.25.422a.875.875,0,0,1-.313,0h-.141s0,.094.172.094H31.87c.094,0,.156,0,.156-.094s0,0-.125,0a1.876,1.876,0,0,1-.438,0c-.266,0-.313-.188-.344-.406s0-1.047,0-1.86V20.3m13.13,2.188c-1.235-1.235-2.532-2.626-2.626-2.735s-.234-.266-.328-.266-.109.125-.109.3v5.033c0,.75,0,1-.25,1.063a1.766,1.766,0,0,1-.391,0H40.4s0,.094.188.094h1.985c.109,0,.188,0,.188-.094s0,0-.141,0a1.407,1.407,0,0,1-.438,0c-.172,0-.281-.281-.313-.938V21.367h0c.156.156,1.094,1.219,2.032,2.141s1.969,1.985,2.516,2.5a.453.453,0,0,0,.281.188c.078,0,.109-.078.109-.266l.094-5.361c0-.485.078-.656.313-.735h.25c.109,0,.156,0,.156-.078s-.078,0-.188,0H45.109s0,.078.141.078a1.563,1.563,0,0,1,.453,0c.2.078.281.25.281.766l.094,3.814h0c-.141-.125-1.3-1.36-1.876-1.938M41.936,32.824a3.408,3.408,0,0,1-.844-.094c-.094,0-.094,0-.109-.109s0-.969,0-1.641V29.948a.156.156,0,0,1,.141-.156h.453c.953,0,1.282.953,1.282,1.844a1.313,1.313,0,0,1-.328,1,.782.782,0,0,1-.578.2m5.064,2.97h1.329c.094,0,.156,0,.156-.078s0-.078-.125-.078h-.438c-.266,0-.313-.188-.344-.422s0-1.032,0-1.86V30.01c0-.234.078-.438.313-.485h.25c.094,0,.141,0,.141-.078s0-.078-.172-.078H45.985c-.141,0-.219,0-.219.078s0,.078.141.078h.313c.188,0,.266.188.281.485s0,.516,0,1.8v3.423c0,.3,0,.391-.25.422h-.313a3.219,3.219,0,0,1-.516,0c-1-.234-1.766-1.563-2.532-2.829a1.985,1.985,0,0,0,1.016-1.751,1.563,1.563,0,0,0-1.7-1.641H39.295c-.125,0-.188,0-.188.078s0,.078.141.078h.344c.281,0,.344.188.359.485s0,.516,0,1.8v3.376c0,.359-.078.438-.234.469H39.4a.141.141,0,0,0-.141.078s0,.078.172.078h2.3c.109,0,.172,0,.172-.078s0-.078-.109-.078h-.422c-.25,0-.3-.219-.328-.469s0-1.469,0-1.954c0-.094,0-.094.109-.078a3.829,3.829,0,0,0,.969,0c.875,1.563,1.438,2.657,3.017,2.657h1.938M35.95,19.9c1.407,0,2.5,1.188,2.5,3.126,0,2.454-1.375,2.751-1.969,2.751-1.563,0-2.626-1.407-2.626-3.126,0-2.126,1.125-2.673,2.094-2.673m.172,6.252a3.361,3.361,0,0,0,3.517-3.486A3.126,3.126,0,0,0,36.2,19.616a3.345,3.345,0,1,0,0,6.674m-3.032,8.55a.192.192,0,0,0-.172.125,3.252,3.252,0,0,1-.328.328,1.923,1.923,0,0,1-1.235.25c-.672,0-.828-.078-.969-.2s-.188-.735-.188-1.829V30.151c0-.234.094-.453.313-.485h.344c.094,0,.156,0,.156-.078s0-.078-.188-.078H28.572c-.125,0-.172,0-.172.078s0,.078.141.078h.281c.281,0,.344.188.359.485s0,.5,0,1.8v3.376c0,.359,0,.438-.234.469h-.313c-.094,0-.141,0-.141.078s0,.078.172.078h3.361c.453,0,.656-.109.813-.375l.375-.656v-.141M23.836,39.7c1.391,0,2.438,1.188,2.438,3.126,0,2.454-1.329,2.751-1.923,2.751-1.563,0-2.548-1.407-2.548-3.126,0-2.126,1.047-2.673,2.032-2.673m.156,6.252a3.329,3.329,0,0,0,3.47-3.5A3.032,3.032,0,0,0,24.086,39.4a3.345,3.345,0,1,0-.094,6.674m3.673-10.394.375-.656v-.141c0-.031-.125,0-.172.125a3.251,3.251,0,0,1-.328.328,1.923,1.923,0,0,1-1.235.25c-.672,0-.828-.078-.969-.2a4.151,4.151,0,0,1-.328-2V30.026c0-.234.094-.453.313-.485h.344c.094,0,.141,0,.141-.078s0-.078-.172-.078H23.3c-.125,0-.188,0-.188.078s0,.078.156.078h.281c.281,0,.344.188.359.485s0,.5,0,1.8V35.2c0,.359,0,.438-.234.469h-.313c-.094,0-.141,0-.141.078s0,.078.172.078h3.361c.453,0,.656-.109.813-.375M7.362,52.643,3.829,55.3H69.946l-3.517-2.657Zm12.5-19.491H18.3l.8-2.094v0l.782,2.11h0m.25.485.672,1.8a.141.141,0,0,1-.078.2c-.078,0-.109,0-.109.078s.094,0,.25,0H22.43c.313,0,.391,0,.391-.078s0-.078-.109-.078a1.453,1.453,0,0,1-.359,0c-.188,0-.422-.156-.75-.922-.547-1.3-1.907-4.767-2.11-5.236-.078-.2-.141-.281-.219-.281s-.125.094-.234.344L16.9,34.824c-.156.422-.328.719-.719.766h-.234s-.094,0-.094.078,0,.078.156.078h1.907c.094,0,.141,0,.141-.078s0-.078-.125-.078H17.8c-.266,0-.344-.109-.344-.266a1.954,1.954,0,0,1,.125-.516l.469-1.219h1.985M0,52.471l2.642-1.985V4.877L0,2.892ZM71.165,4.877V50.486l2.642,1.985V2.892ZM56.91,35.5a1.36,1.36,0,0,1-1.407-.782,1.735,1.735,0,0,1,0-.438c0-.078,0-.141-.094-.141s-.094.094-.094.219v1.11c0,.188,0,.234.156.3a4.267,4.267,0,0,0,1.469.219c1.563,0,2.5-.782,2.5-1.923a1.657,1.657,0,0,0-.453-1.219A5.33,5.33,0,0,0,57.567,32c-1-.453-1.36-.719-1.36-1.36s.735-.922,1.313-.922a1.438,1.438,0,0,1,1.172.406,1.079,1.079,0,0,1,.219.547v.156s.094,0,.094-.25V29.557c0-.109,0-.094-.109-.109a7.456,7.456,0,0,0-1.375-.141c-1.36,0-2.22.672-2.22,1.719s.438,1.36,1.563,1.876a5.8,5.8,0,0,1,1.282.672,1.157,1.157,0,0,1,.422.875c0,.75-.531,1.047-1.563,1.047m-2.845,0c.141-.234.313-.563.359-.656s0-.109,0-.141-.125,0-.172.125a1.563,1.563,0,0,1-.328.328,3.235,3.235,0,0,1-2.376,0c-.109-.078-.156-.313-.172-.688V32.636h1.454a.42.42,0,0,1,.469.344,2.823,2.823,0,0,1,0,.3V33.2a4.926,4.926,0,0,1,0-.578,4.846,4.846,0,0,1,0-.625l-.141.109a.576.576,0,0,1-.406.125H51.283V29.87h1.688c.422,0,.5.156.563.313a.844.844,0,0,1,0,.313V30.6a.1.1,0,0,0,.094-.094c.016-.094,0-.469,0-.563a5.272,5.272,0,0,1,0-.547H49.6c-.125,0-.172,0-.172.078s0,.078.141.078h.328c.281,0,.344.188.36.485s0,.516,0,1.8v3.376c0,.156,0,.438-.25.469h-.313c-.094,0-.141,0-.141.078s0,.078.172.078h3.548a.8.8,0,0,0,.813-.375m-2.767-12.02H49.752l.782-2.094v0l.766,2.11h0m.844,2.485s-.109,0-.109.078.094,0,.25,0h1.563c.266,0,.391,0,.391-.094s0,0-.109,0h-.359c-.172,0-.422-.156-.75-.922-.547-1.3-1.907-4.689-2.11-5.236a.248.248,0,0,0-.2-.266c-.063,0-.141.094-.25.344l-2,5.267c-.172.422-.344.7-.735.766h-.36s0,.094.156.094h1.907c.094,0,.156,0,.156-.094s0,0-.141,0h-.125c-.266,0-.344-.109-.344-.266a1.422,1.422,0,0,1,.141-.516l.453-1.219h1.891a.078.078,0,0,1,.094,0l.672,1.813a.125.125,0,0,1-.078.188m4.439-5.564c0-.3.094-.438.328-.485h.328c.094,0,.156,0,.156-.078s0,0-.188,0h-2.5s0,.078.141.078h.281c.281,0,.344.2.359.485s0,.516,0,1.813v3.3c0,.344-.078.438-.25.469a1.469,1.469,0,0,1-.313,0H54.8s0,.078.156.078h3.376a.8.8,0,0,0,.8-.359l.375-.656v-.156c0-.031-.125,0-.172.125a2.172,2.172,0,0,1-.328.328,1.923,1.923,0,0,1-1.235.25c-.672,0-.828,0-.969-.188a4.364,4.364,0,0,1-.188-1.844v-3.3M34.293,34.527V35.2c0,.156-.078.438-.25.469H33.73c-.094,0-.125,0-.125.078s0,.078.156.078H37.31a.8.8,0,0,0,.813-.375,6.378,6.378,0,0,0,.359-.656v-.141c0-.031-.125,0-.172.125a2.3,2.3,0,0,1-.344.328,1.922,1.922,0,0,1-1.235.25,1.938,1.938,0,0,1-1.141-.2c-.109-.078-.141-.313-.172-.688V32.636h1.438a.449.449,0,0,1,.485.344.6.6,0,0,1,0,.3v.078a.349.349,0,0,0,.078-.156v-.578a4.846,4.846,0,0,1,0-.625h0l-.125.109c-.125.109-.2.109-.422.125H35.309V29.87H37c.422,0,.516.156.563.313a.907.907,0,0,1,0,.313V30.6l.094-.094c.094-.094,0-.469,0-.563a3.719,3.719,0,0,1,0-.547H33.637c-.125,0-.188,0-.188.078s0,.078.141.078h.328c.281,0,.359.188.375.485s0,.516,0,1.8v2.7M54.988,41.7V40a.172.172,0,0,1,.094-.172,2.547,2.547,0,0,1,.563,0,2.86,2.86,0,0,1,2.985,2.985,2.454,2.454,0,0,1-.7,2.016,2.141,2.141,0,0,1-1.657.5c-.672,0-1-.094-1.125-.25a2.267,2.267,0,0,1-.094-.656c0-.156,0-.813,0-1.719Zm-1.094,3.439c0,.25,0,.438-.25.469H53.19s0,.078.172.078h2.907a3.236,3.236,0,0,0,2.61-1,3.126,3.126,0,0,0,.922-2.282,3.032,3.032,0,0,0-.813-2.157,3.955,3.955,0,0,0-3.126-.985H53.331q-.188,0-.188.094h.485c.281,0,.344.2.36.485s0,.516,0,1.8v3.376m-42.733.406a1.36,1.36,0,0,1-1.407-.782,1.735,1.735,0,0,1,0-.438v-.141a.423.423,0,0,0-.109.219c-.016.125,0,.641,0,1.11,0,.188,0,.234.156.3a4.173,4.173,0,0,0,1.454.219c1.563,0,2.5-.782,2.5-1.923a1.657,1.657,0,0,0-.453-1.219,5.111,5.111,0,0,0-1.422-.844c-.985-.453-1.36-.719-1.36-1.36s.735-.907,1.313-.907a1.422,1.422,0,0,1,1.172.391,1.079,1.079,0,0,1,.031.594v.141s.109,0,.109-.25V39.514c0-.109,0-.094-.125-.109a7.16,7.16,0,0,0-1.375-.141c-1.344,0-2.22.672-2.22,1.719s.438,1.36,1.563,1.876a5.658,5.658,0,0,1,1.266.672,1.11,1.11,0,0,1,.422.891c0,.735-.516,1.032-1.563,1.032m31-2.313H40.639l.8-2.094h0l.766,2.11h0m.844,2.485h1.7c.313,0,.391,0,.391-.078s0,0-.109,0a1.454,1.454,0,0,1-.359,0c-.172,0-.422-.156-.75-.922-.547-1.3-1.907-4.689-2.11-5.236-.078-.2-.141-.266-.219-.266s-.125.094-.234.328l-2.141,5.346c-.156.422-.328.719-.719.766h-.359s0,.078.156.078H40.2c.094,0,.141,0,.141-.078s0,0-.125,0H40.17c-.266,0-.344-.109-.344-.25a1.907,1.907,0,0,1,.125-.531l.469-1.219h2.063l.672,1.8a.141.141,0,0,1-.078.2m-8.69-.453c0,.25-.078.438-.25.469h-.453s0,.094.172.094h3.361c.453,0,.656-.109.813-.375l.375-.656v-.141c0-.031-.125,0-.172.109a3.407,3.407,0,0,1-.328.344,2.032,2.032,0,0,1-1.235.25c-.672,0-.828-.078-.969-.2s-.188-.735-.188-1.829V39.826c0-.234.094-.453.328-.485h.328c.094,0,.156,0,.156-.078s0,0-.188,0H33.621s0,.078.156.078h.281c.281,0,.344.188.359.485s0,.5,0,1.8V45m-2.673-5.142c.766,0,.985.25,1.016.469v.094c0,.125,0,.172.094.172s0,0,.078-.141a4.145,4.145,0,0,0,0-.985c0-.188,0-.172-.078-.172a3.861,3.861,0,0,1-.813.078H28.057a2.72,2.72,0,0,1-.359-.109l-.109.156a3.187,3.187,0,0,0-.172.985c0,.141,0,.141.078.141s0,0,.094-.109a.8.8,0,0,1,.141-.3c.125-.188.328-.234.828-.25H29.7v5.3c0,.359,0,.438-.234.469H29.01s0,.078.172.078h2.391c.094,0,.172,0,.172-.078s0,0-.141,0h-.438c-.25,0-.3-.219-.328-.453s0-1.047,0-1.829V39.826ZM48.939,43.2c.891.875,1.923,1.985,2.454,2.5a.531.531,0,0,0,.3.188.326.326,0,0,0,.109-.266l.094-5.377c0-.469,0-.656.313-.719a.735.735,0,0,1,.25,0h.156a.334.334,0,0,0-.2-.094h-1.86c-.125,0-.219,0-.219.094s0,0,.141,0a1.094,1.094,0,0,1,.438,0c.219.078.3.234.3.766l.094,3.814h0c-.141-.141-1.235-1.36-1.813-1.938-1.25-1.235-2.532-2.626-2.642-2.735s-.219-.266-.313-.266-.109.125-.109.3L46.344,44.5c0,.75,0,.985-.266,1.063a1.656,1.656,0,0,1-.391,0h-.125a.292.292,0,0,0,.188.078h1.923c.125,0,.2,0,.2-.078s0,0-.156,0a1.438,1.438,0,0,1-.438,0c-.172,0-.281-.281-.3-.953l-.094-3.564h0c.141.172,1.094,1.235,2.016,2.157M15.287,35.293V33.355c0-.266.109-.531.344-.531h.219s.109,0,.109-.078,0-.078-.172-.078h-2.22c-.125,0-.188,0-.188.078s0,.078.141.078h.328c.281,0,.359.2.359.485v1.813a.3.3,0,0,1-.172.313,1.86,1.86,0,0,1-.719.094A2.954,2.954,0,0,1,10.363,32.4a2.485,2.485,0,0,1,.782-2.079,2.423,2.423,0,0,1,1.7-.625,2.735,2.735,0,0,1,1.891.656,1.313,1.313,0,0,1,.3.719s0,.109.078.109.094,0,.094-.188a10.831,10.831,0,0,1,0-1.391s0-.094-.125-.109a3.313,3.313,0,0,1-.672-.094,11.192,11.192,0,0,0-1.563-.125,4.2,4.2,0,0,0-2.3.547A3.2,3.2,0,0,0,8.987,32.6c.2,2.391,2.063,3.345,4.142,3.345a4.689,4.689,0,0,0,2.048-.391c.109,0,.109-.078.109-.3m-2.11-12.8c-1.25-1.235-2.548-2.626-2.642-2.735s-.219-.266-.313-.266-.109.125-.109.3V24.79c0,.75,0,1-.266,1.063a1.672,1.672,0,0,1-.391,0H9.331s0,.078.188.078H11.41c.125,0,.188,0,.188-.078s0,0-.141,0a1.563,1.563,0,0,1-.438,0c-.172,0-.281-.281-.3-.938l-.094-3.595h0c.141.156,1.094,1.219,2.016,2.141l2.516,2.5c.094.094.188.188.281.188s.109-.078.109-.266l.078-5.361c0-.485.078-.656.328-.735h.25c.094,0,.156,0,.156-.078s-.094,0-.2,0H14.13s0,.078.125.078a1.563,1.563,0,0,1,.453,0c.2.078.281.25.3.766l.078,3.814h0c-.141-.125-1.282-1.36-1.86-1.938M66.429,2.642,69.946,0H3.845L7.378,2.642ZM20.21,23.446H18.647l.782-2.094v0l.891,2h0M22.1,24.915c-.547-1.3-1.907-4.689-2.11-5.236-.094-.188-.141-.266-.219-.266s-.141.094-.234.344L17.4,25.1c-.172.422-.328.7-.719.766H16.3s0,.078.172.078h1.907q.141,0,.141-.094h-.25c-.266,0-.344-.109-.344-.266a1.344,1.344,0,0,1,.125-.516l.453-1.219H20.32a.078.078,0,0,1,.078,0l.688,1.813a.141.141,0,0,1,0,.188c-.094,0-.125,0-.125.078s.109,0,.266,0h1.563c.266,0,.391,0,.391-.094s0,0-.109,0h-.344c-.188,0-.438-.156-.75-.922m-6.69,20.069a4.126,4.126,0,0,0,2.86.922,4.376,4.376,0,0,0,1.469-.2c.141,0,.172-.094.219-.25a8.769,8.769,0,0,0,.188-1.125s0-.125-.078-.125,0,0-.109.172a1.313,1.313,0,0,1-.3.563c-.328.391-.719.469-1.485.469a2.8,2.8,0,0,1-2.61-3.017,2.876,2.876,0,0,1,.782-2.22,2.094,2.094,0,0,1,1.563-.516,2.345,2.345,0,0,1,1.657.516,1.3,1.3,0,0,1,.344.8v.172s.094,0,.094-.188V39.56c0-.078,0-.094-.125-.094s-.531-.109-.86-.156a7.908,7.908,0,0,0-1.157,0,3.548,3.548,0,0,0-2.626.907,3.126,3.126,0,0,0-1,2.329,3.235,3.235,0,0,0,1.047,2.516M26.9,20.194c.75,0,.985.25,1,.469v.094c0,.141,0,.172.094.172s0,0,.078-.125a4.273,4.273,0,0,0,0-1v-.172a3.861,3.861,0,0,1-.813.078H23.133c-.219,0-.3-.109-.375-.109s-.078,0-.094.156-.188.844-.188.985v.141s.078,0,.094-.109a1.172,1.172,0,0,1,.141-.3c.141-.188.344-.219.828-.25h1.266V25.54c0,.359-.078.422-.25.453a.875.875,0,0,1-.313,0h-.125s0,.094.156.094H26.7c.094,0,.156,0,.156-.094s0,0-.141,0a2.079,2.079,0,0,1-.438,0c-.25,0-.3-.219-.328-.453s0-1.032,0-1.813V20.085Z" fill="#fff"/>
</svg>
