<svg id="Group_1688" data-name="Group 1688" xmlns="http://www.w3.org/2000/svg" width="119.152" height="119.152" viewBox="0 0 119.152 119.152">
  <path id="Path_1228" data-name="Path 1228" d="M64.181,5.1A59.576,59.576,0,1,0,123.757,64.68,59.576,59.576,0,0,0,64.181,5.1Zm0,113.839a54.264,54.264,0,1,1,54.264-54.264A54.326,54.326,0,0,1,64.181,118.943ZM84.909,34.915a2.659,2.659,0,0,0-2.762.206l-19.484,14H41.315a2.657,2.657,0,0,0-2.656,2.656V77a2.657,2.657,0,0,0,2.656,2.656H61.123l21.025,15.1a2.656,2.656,0,0,0,4.205-2.158V37.278A2.655,2.655,0,0,0,84.909,34.915ZM81.041,87.429,63.528,74.848a2.657,2.657,0,0,0-1.55-.5H43.97V54.431H63.518a2.657,2.657,0,0,0,1.55-.5L81.041,42.458Z" transform="translate(-4.605 -5.104)" fill="#fff"/>
</svg>
