<svg id="Group_1687" data-name="Group 1687" xmlns="http://www.w3.org/2000/svg" width="117.575" height="117.575" viewBox="0 0 117.575 117.575">
  <path id="Path_1230" data-name="Path 1230" d="M38.458,77.86a2.392,2.392,0,0,1-1.165-.3A2.436,2.436,0,0,1,36,75.4V29.981a2.461,2.461,0,0,1,3.81-2.045l34.417,22.71a2.453,2.453,0,0,1,0,4.1L39.81,77.456a2.444,2.444,0,0,1-1.352.4Zm2.458-43.306v36.29L68.411,52.706,40.917,34.554Z" transform="translate(8.011 6.097)" fill="#fff"/>
  <path id="Path_1231" data-name="Path 1231" d="M58.788,4.9A53.889,53.889,0,1,1,4.9,58.788,53.959,53.959,0,0,1,58.788,4.9Zm0-4.9a58.788,58.788,0,1,0,58.788,58.788A58.79,58.79,0,0,0,58.788,0Z" fill="#fff"/>
</svg>
