<svg xmlns="http://www.w3.org/2000/svg" width="57.555" height="40.171" viewBox="0 0 57.555 40.171"><defs><style>.a{fill:#fff;}</style></defs><path class="a" d="M6.832,996.156H6.774c-.7,0-1.144-.517-1.144-1.355a1.183,1.183,0,0,1,1.355-1.349h.126V994c-.7,0-1,.232-1,.8v.038c0,.448.242.758.617.758h.042c.385,0,.612-.189.706-.885.121-.9.464-1.3,1.139-1.3h.056c.749,0,1.191.522,1.191,1.391a1.24,1.24,0,0,1-1.376,1.4H8.44v-.548c.654,0,.943-.332.943-.827v-.042c0-.5-.265-.807-.68-.807H8.661c-.417,0-.632.243-.722.917C7.817,995.787,7.443,996.156,6.832,996.156Z" transform="translate(-5.63 -956.027)"/><path class="a" d="M10.13,903.527H7.3v-.548h2.8c.654,0,.885-.253.885-.833s-.232-.828-.885-.828H7.3v-.548h2.83c.954,0,1.344.417,1.344,1.376S11.085,903.527,10.13,903.527Z" transform="translate(-7.237 -866.897)"/><path class="a" d="M11.411,812.357v.548H7.3v-1.218c0-.617.206-1.318,1.2-1.318h.105c1,0,1.2.7,1.2,1.318v.669Zm-2.082-.685a.667.667,0,0,0-.738-.743H8.523a.667.667,0,0,0-.738.743v.685H9.329Z" transform="translate(-7.237 -779.922)"/><path class="a" d="M11.411,725.287v.548H7.3v-1.218c0-.617.206-1.317,1.2-1.317h.106c1,0,1.2.7,1.2,1.317v.669ZM9.329,724.6a.667.667,0,0,0-.738-.743H8.523a.667.667,0,0,0-.738.743v.685H9.329Z" transform="translate(-7.237 -696.151)"/><path class="a" d="M7.854,632.616H7.643c-1.423,0-2.013-.48-2.013-1.471s.59-1.465,2.013-1.465h.211c1.423,0,2.013.48,2.013,1.465S9.278,632.616,7.854,632.616Zm1.528-1.486c0-.633-.485-.886-1.528-.886H7.643c-1.043,0-1.528.253-1.528.886v.038c0,.633.485.885,1.528.885h.211c1.044,0,1.528-.253,1.528-.885Z" transform="translate(-5.63 -606.078)"/><path class="a" d="M11.411,542.908v.548H7.3v-1.218c0-.617.206-1.318,1.2-1.318h.105a1.042,1.042,0,0,1,1.106.684l1.7-.685v.6l-1.6.623v.77Zm-2.082-.685a.667.667,0,0,0-.738-.743H8.523a.668.668,0,0,0-.738.743v.685H9.329Z" transform="translate(-7.237 -520.681)"/><path class="a" d="M11.411,461.012v.548H7.785v1.012H7.3V460h.485v1.012Z" transform="translate(-7.237 -442.827)"/><path class="a" d="M11.411,427v.549H7.3V427Z" transform="translate(-7.237 -411.078)"/><path class="a" d="M11.411,328v.585L8.27,330.309l.913-.021h2.229v.522H7.3v-.585l3.142-1.724-.912.021H7.3V328Z" transform="translate(-7.237 -315.829)"/><path class="a" d="M7.854,233.492H7.643c-1.423,0-2.013-.506-2.013-1.492,0-.912.455-1.37,1.424-1.37h.163v.553c-.749,0-1.1.211-1.1.78v.042c0,.648.485.928,1.528.928h.211c1.044,0,1.528-.269,1.528-.97v-.042a1.091,1.091,0,0,0-.258-.743H8.192v.648H7.707v-1.2H9.388a1.788,1.788,0,0,1,.48,1.318C9.868,232.986,9.278,233.492,7.854,233.492Z" transform="translate(-5.63 -222.148)"/><path class="a" d="M480.054,931.317a2.785,2.785,0,0,0,.541-1.69v-.019h-.882v.019a2.432,2.432,0,0,1-.213,1.045S478.043,929,478.043,929a1.274,1.274,0,0,1-.3-.762v-.045a.427.427,0,0,1,.458-.445h.045a.426.426,0,0,1,.458.445v.006h.852v-.038c0-.613-.407-1.122-1.329-1.122s-1.335.509-1.335,1.122v.071a1.667,1.667,0,0,0,.484,1.175,1.561,1.561,0,0,0-.742,1.335v.071a1.346,1.346,0,0,0,1.478,1.426,2.462,2.462,0,0,0,1.38-.387l.271.3h1.025Zm-1.793.187h-.032a.677.677,0,0,1-.735-.761V930.7a.893.893,0,0,1,.374-.716l1.129,1.3a1.283,1.283,0,0,1-.735.219Z" transform="translate(-458.784 -892.172)"/><path class="a" d="M881.478,523.66v.419H878.33v-.29l2.174-2.308a1.368,1.368,0,0,0,.516-1.026v-.064a.986.986,0,0,0-1.1-1h-.038c-.729,0-1.1.387-1.1,1.336h-.459v-.155a1.4,1.4,0,0,1,1.574-1.591c1.02,0,1.574.548,1.574,1.342v.076a1.651,1.651,0,0,1-.587,1.3l-1.857,1.974.484-.006Z" transform="translate(-845.264 -499.573)"/><path class="a" d="M994.755,518.9a1.373,1.373,0,0,1,1.536,1.516v2.142a1.535,1.535,0,0,1-3.071,0v-2.142A1.374,1.374,0,0,1,994.755,518.9Zm.02.413h-.038c-.787,0-1.057.458-1.057,1.155v2.038c0,.7.271,1.155,1.057,1.155h.038c.787,0,1.058-.458,1.058-1.155v-2.038C995.832,519.771,995.561,519.313,994.775,519.313Z" transform="translate(-955.801 -499.496)"/><path class="a" d="M1109.2,523.66v.419h-3.148v-.29l2.174-2.308a1.368,1.368,0,0,0,.516-1.026v-.064a.986.986,0,0,0-1.1-1h-.038c-.729,0-1.1.387-1.1,1.336h-.458v-.155a1.4,1.4,0,0,1,1.574-1.591c1.019,0,1.574.548,1.574,1.342v.076a1.652,1.652,0,0,1-.587,1.3l-1.857,1.974.484-.006Z" transform="translate(-1064.356 -499.573)"/><path class="a" d="M1222.475,518.9a1.374,1.374,0,0,1,1.535,1.516v2.142a1.535,1.535,0,0,1-3.07,0v-2.142A1.374,1.374,0,0,1,1222.475,518.9Zm.019.413h-.038c-.787,0-1.058.458-1.058,1.155v2.038c0,.7.271,1.155,1.058,1.155h.038c.787,0,1.058-.458,1.058-1.155v-2.038c0-.7-.271-1.155-1.057-1.155Z" transform="translate(-1174.892 -499.496)"/><path class="a" d="M674.071,727.234h.058c.587,0,.813-.393.813-1.026h.871v.065a1.509,1.509,0,0,1-1.735,1.716c-1.258,0-1.838-.729-1.838-2.47v-.258c0-1.743.581-2.471,1.838-2.471a1.522,1.522,0,0,1,1.735,1.755v.219h-.871c0-.8-.2-1.219-.813-1.219h-.058c-.716,0-.947.581-.947,1.716v.258C673.123,726.654,673.349,727.234,674.071,727.234Z" transform="translate(-646.983 -695.66)"/><path class="a" d="M785.4,725.519v-.258c0-1.743.6-2.471,1.864-2.471s1.857.729,1.857,2.471v.258c0,1.743-.6,2.47-1.857,2.47S785.4,727.26,785.4,725.519Zm1.89,1.716c.7,0,.947-.581.947-1.716v-.258c0-1.137-.245-1.716-.947-1.716h-.058c-.7,0-.947.581-.947,1.716v.258c0,1.137.245,1.716.947,1.716Z" transform="translate(-755.855 -695.66)"/><path class="a" d="M898.885,724.33l1.323,5.057h-.929L899,728.239h-1.419l-.277,1.149h-.935l1.322-5.057Zm-1.122,3.154h1.052l-.522-2.167Z" transform="translate(-862.62 -697.142)"/><path class="a" d="M1009.255,724.342v-.065c0-.89.632-1.458,1.722-1.458,1.194,0,1.716.561,1.716,1.7v.149h-.864c0-.755-.245-1.09-.845-1.09h-.058c-.478,0-.787.265-.787.658v.038c0,.413.187.644.98.755,1.1.149,1.619.542,1.619,1.426v.071c0,.942-.639,1.5-1.761,1.5a1.545,1.545,0,0,1-1.767-1.716v-.066h.863c0,.716.329,1.026.871,1.026H1011c.542,0,.852-.29.852-.709v-.038c0-.439-.245-.671-1.013-.775C1009.745,725.593,1009.255,725.174,1009.255,724.342Z" transform="translate(-971.185 -695.689)"/><path class="a" d="M1118.154,730.032h-.864v-4.277h-1.2V725h3.264v.754h-1.2Z" transform="translate(-1074.015 -697.787)"/><path class="a" d="M1213.155,724.342v-.065c0-.89.632-1.458,1.722-1.458,1.193,0,1.715.561,1.715,1.7v.149h-.864c0-.755-.245-1.09-.845-1.09h-.058c-.477,0-.787.265-.787.658v.038c0,.413.187.644.98.755,1.1.149,1.619.542,1.619,1.426v.071c0,.942-.639,1.5-1.761,1.5a1.545,1.545,0,0,1-1.768-1.716v-.066h.865c0,.716.329,1.026.871,1.026h.058c.542,0,.852-.29.852-.709v-.038c0-.439-.245-.671-1.013-.775C1213.645,725.593,1213.155,725.174,1213.155,724.342Z" transform="translate(-1167.359 -695.689)"/><path class="a" d="M651.2,930.23l-.834,4.077h-1.115l-.864-5.057h.9l.574,3.9.786-3.9h1.09l.793,3.9.574-3.9h.9l-.865,5.057h-1.121Z" transform="translate(-624.036 -894.298)"/><path class="a" d="M804.087,928.522l1.321,5.056h-.929l-.277-1.148h-1.419l-.277,1.148h-.935l1.322-5.058Zm-1.123,3.155h1.051l-.523-2.168Z" transform="translate(-771.412 -893.595)"/><path class="a" d="M906.6,934.28h-.864V930h-1.2v-.755H907.8V930h-1.2Z" transform="translate(-870.481 -894.298)"/><path class="a" d="M1011.5,929.25V930h-2.129v1.335h1.805v.748h-1.806v1.44h2.129v.752h-2.993v-5.03Z" transform="translate(-970.511 -894.298)"/><path class="a" d="M1109.862,934.28H1109v-5.03h1.574c.787,0,1.684.232,1.684,1.51v.129a1.319,1.319,0,0,1-.819,1.38l.819,2.012h-.935l-.723-1.877h-.735Zm.742-2.632a.7.7,0,0,0,.774-.787v-.071a.7.7,0,0,0-.774-.787h-.742v1.645Z" transform="translate(-1067.194 -894.298)"/><path class="a" d="M1213.155,928.562V928.5c0-.891.632-1.458,1.722-1.458,1.193,0,1.715.561,1.715,1.7v.148h-.864c0-.755-.245-1.09-.845-1.09h-.058c-.477,0-.787.265-.787.658v.038c0,.413.187.644.98.755,1.1.149,1.619.542,1.619,1.425v.071c0,.942-.639,1.5-1.761,1.5a1.545,1.545,0,0,1-1.768-1.716v-.065h.865c0,.716.329,1.026.871,1.026h.058c.542,0,.852-.291.852-.71v-.038c0-.439-.245-.671-1.013-.774C1213.645,929.813,1213.155,929.394,1213.155,928.562Z" transform="translate(-1167.359 -892.171)"/><path class="a" d="M1086.462,23.692v-4.9a3.562,3.562,0,1,0-3.562-3.562H1078a8.462,8.462,0,1,1,8.462,8.46Z" transform="translate(-1037.369 -6.77)"/><path class="a" d="M273.5,15.231a3.563,3.563,0,0,1-7.125,0,8.461,8.461,0,1,0-8.461,8.461v-4.9a3.562,3.562,0,1,1,3.562-3.562,8.461,8.461,0,1,0,16.922,0Z" transform="translate(-240.212 -6.77)"/><path class="a" d="M254.348,528.461h-4.9A8.47,8.47,0,0,1,257.911,520v4.9A3.567,3.567,0,0,0,254.348,528.461Z" transform="translate(-240.212 -500.554)"/></svg>