<svg id="Group_1691" data-name="Group 1691" xmlns="http://www.w3.org/2000/svg" width="692" height="111.75" viewBox="0 0 692 111.75">
  <g id="Group_1690" data-name="Group 1690">
    <text id="From_Shore_to_Shore" data-name="From Shore to Shore" fill="#fff" font-size="46" font-family="SourceSansPro-Light, Source Sans Pro" font-weight="300" letter-spacing="0.15em"><tspan x="93.598" y="47">From Shore to Shore</tspan></text>
    <g id="Group_1577" data-name="Group 1577" transform="translate(118.5 103.443)">
      <g id="Group_1575" data-name="Group 1575" transform="translate(210 -29)">
        <g id="Group_1574" data-name="Group 1574">
          <path id="Path_1220" data-name="Path 1220" d="M410.244,333.907a15.693,15.693,0,0,1-15.323,0q-.179-.1-.356-.206a17.218,17.218,0,0,0-4.83-1.833,17.422,17.422,0,0,0,4.006,3.273q.174.1.345.2a17.3,17.3,0,0,0,8.5,2.223,17.4,17.4,0,0,0,3.667-.39,17.219,17.219,0,0,0,4.829-1.832q.176-.105.356-.206a17.418,17.418,0,0,0,3.994-3.267A17.22,17.22,0,0,0,410.6,333.7Q410.424,333.807,410.244,333.907Z" transform="translate(-389.735 -327.648)" fill="#51d5e1"/>
          <path id="Path_1221" data-name="Path 1221" d="M522.654,305.843q-.152-.086-.3-.175a17.224,17.224,0,0,0-4.85-1.845,17.453,17.453,0,0,0-7.337,0,17.221,17.221,0,0,0-4.829,1.832q-.176.105-.356.206a17.418,17.418,0,0,0-3.994,3.267,17.223,17.223,0,0,0,4.829-1.832q.176-.105.356-.206a15.693,15.693,0,0,1,15.349.014q.154.087.306.177a17.219,17.219,0,0,0,4.854,1.846A17.418,17.418,0,0,0,522.654,305.843Z" transform="translate(-484.472 -303.433)" fill="#51d5e1"/>
        </g>
      </g>
      <path id="Path_1224" data-name="Path 1224" d="M-11.5,0H239.581" transform="translate(113.68 8.057)" fill="none" stroke="#fff" stroke-width="0.5"/>
    </g>
    <g id="Group_1635" data-name="Group 1635" transform="translate(2)">
      <g id="Group_1633" data-name="Group 1633" transform="translate(-84 -19)">
        <text id="Roon_the_Shores" data-name="Roon the Shores" transform="translate(463 80)" fill="#fff" font-size="23" font-family="SourceSansPro-Bold, Source Sans Pro" font-weight="700" letter-spacing="0.148em"><tspan x="4.031" y="24">Roon the Shores</tspan></text>
      </g>
      <g id="Group_1634" data-name="Group 1634" transform="translate(-19 205)">
        <text id="Eadar_Cladaichean" data-name="Eadar Cladaichean" transform="translate(111 -144)" fill="#fff" font-size="23" font-family="SourceSansPro-Bold, Source Sans Pro" font-weight="700" letter-spacing="0.09em"><tspan x="0" y="24">Eadar Cladaichean</tspan></text>
      </g>
    </g>
  </g>
</svg>
